{"glyphs":{"0":{"ha":833,"x_min":0,"x_max":0,"o":"m 417 -22 b 764 492 632 -22 764 176 b 417 1008 764 810 632 1008 b 69 492 201 1008 69 810 b 417 -22 69 176 201 -22 z m 194 492 b 417 892 194 738 279 892 b 546 832 467 892 511 871 l 229 256 b 194 492 207 319 194 399 z m 417 94 b 288 154 365 94 322 115 l 604 729 b 639 492 626 667 639 586 b 417 94 639 249 554 94 z "},"1":{"ha":833,"x_min":0,"x_max":0,"o":"m 83 0 l 750 0 l 750 117 l 514 117 l 514 986 l 417 986 b 269 833 417 875 375 833 l 136 833 l 136 731 l 394 731 l 394 117 l 83 117 z "},"2":{"ha":833,"x_min":0,"x_max":0,"o":"m 69 0 l 764 0 l 764 117 l 217 117 b 492 389 222 192 314 294 b 763 722 696 497 763 572 b 440 1008 763 892 643 1008 b 75 692 226 1008 97 885 l 200 683 b 440 892 221 817 301 892 b 638 719 571 892 638 821 b 447 503 638 619 583 575 b 69 0 151 346 69 208 z "},"3":{"ha":833,"x_min":0,"x_max":0,"o":"m 408 -22 b 764 275 614 -22 764 86 b 558 531 764 401 686 496 b 729 742 671 565 729 636 b 415 1008 729 906 607 1008 b 92 760 224 1008 110 907 l 217 751 b 415 892 229 839 290 892 b 604 736 538 892 604 838 b 415 582 604 624 518 582 l 338 582 l 338 465 l 415 465 b 639 275 543 465 639 406 b 408 94 639 142 528 94 b 193 263 290 94 204 142 l 69 254 b 408 -22 78 92 194 -22 z "},"4":{"ha":833,"x_min":0,"x_max":0,"o":"m 539 0 l 658 0 l 658 214 l 778 214 l 778 331 l 658 331 l 658 986 l 531 986 l 56 322 l 56 214 l 539 214 z m 178 331 l 539 819 l 539 331 z "},"5":{"ha":833,"x_min":0,"x_max":0,"o":"m 414 -22 b 750 317 610 -22 750 118 b 433 656 750 514 622 656 b 239 572 364 656 288 628 l 275 869 l 690 869 l 690 986 l 165 986 l 100 432 l 228 432 b 417 542 260 501 339 542 b 625 317 547 542 625 456 b 414 94 625 178 542 94 b 208 263 300 94 222 151 l 83 254 b 414 -22 97 90 222 -22 z "},"6":{"ha":833,"x_min":0,"x_max":0,"o":"m 419 -22 b 764 328 624 -22 764 111 b 442 664 764 531 636 664 b 194 538 329 664 242 610 l 196 547 b 458 892 215 778 310 892 b 639 764 567 892 617 842 l 764 775 b 458 1008 725 914 633 1008 b 69 417 167 1008 69 742 b 419 -22 69 135 197 -22 z m 422 94 b 200 328 286 94 200 192 b 433 550 200 464 300 550 b 639 328 557 550 639 464 b 422 94 639 181 551 94 z "},"7":{"ha":833,"x_min":0,"x_max":0,"o":"m 267 0 l 394 0 b 750 878 394 333 501 594 l 750 986 l 83 986 l 83 869 l 619 869 b 267 0 400 617 267 306 z "},"8":{"ha":833,"x_min":0,"x_max":0,"o":"m 417 -22 b 764 271 613 -22 764 79 b 574 531 764 399 690 489 b 717 738 661 567 717 632 b 417 1008 717 893 592 1008 b 117 738 242 1008 117 893 b 260 531 117 632 172 567 b 69 271 143 489 69 399 b 417 -22 69 79 221 -22 z m 417 579 b 242 738 311 579 242 632 b 417 892 242 832 308 892 b 592 738 525 892 592 832 b 417 579 592 632 522 579 z m 417 94 b 194 278 288 94 194 153 b 417 468 194 393 269 468 b 639 278 564 468 639 393 b 417 94 639 153 546 94 z "},"9":{"ha":833,"x_min":0,"x_max":0,"o":"m 414 1008 b 69 658 210 1008 69 875 b 392 322 69 456 197 322 b 639 449 504 322 592 376 l 638 439 b 375 94 618 208 524 94 b 194 222 267 94 217 144 l 69 211 b 375 -22 108 72 200 -22 b 764 569 667 -22 764 244 b 414 1008 764 851 636 1008 z m 411 892 b 633 658 547 892 633 794 b 400 436 633 522 533 436 b 194 658 276 436 194 522 b 411 892 194 806 282 892 z "},"A":{"ha":833,"x_min":0,"x_max":0,"o":"m 36 0 l 164 0 l 244 281 l 589 281 l 669 0 l 797 0 l 497 986 l 336 986 z m 417 878 l 556 397 l 278 397 z "},"Á":{"ha":833,"x_min":0,"x_max":0,"o":"m 364 1081 l 461 1081 l 586 1258 l 456 1258 z m 36 0 l 164 0 l 244 281 l 589 281 l 669 0 l 797 0 l 497 986 l 336 986 z m 417 878 l 556 397 l 278 397 z "},"Ă":{"ha":833,"x_min":0,"x_max":0,"o":"m 417 1088 b 611 1265 531 1088 606 1157 l 531 1265 b 417 1174 522 1201 481 1174 b 303 1265 353 1174 311 1201 l 222 1265 b 417 1088 228 1157 303 1088 z m 36 0 l 164 0 l 244 281 l 589 281 l 669 0 l 797 0 l 497 986 l 336 986 z m 417 878 l 556 397 l 278 397 z "},"Ắ":{"ha":833,"x_min":0,"x_max":0,"o":"m 372 1265 l 467 1265 l 558 1415 l 439 1415 z m 415 1074 b 610 1251 529 1074 604 1143 l 529 1251 b 415 1160 521 1188 479 1160 b 301 1251 351 1160 310 1188 l 221 1251 b 415 1074 226 1143 301 1074 z m 36 0 l 164 0 l 244 281 l 589 281 l 669 0 l 797 0 l 497 986 l 336 986 z m 417 878 l 556 397 l 278 397 z "},"Ặ":{"ha":833,"x_min":0,"x_max":0,"o":"m 417 1088 b 611 1265 531 1088 606 1157 l 531 1265 b 417 1174 522 1201 481 1174 b 303 1265 353 1174 311 1201 l 222 1265 b 417 1088 228 1157 303 1088 z m 36 0 l 164 0 l 244 281 l 589 281 l 669 0 l 797 0 l 497 986 l 336 986 z m 417 878 l 556 397 l 278 397 z m 356 -208 l 478 -208 l 478 -83 l 356 -83 z "},"Ằ":{"ha":833,"x_min":0,"x_max":0,"o":"m 372 1265 l 467 1265 l 400 1415 l 281 1415 z m 417 1074 b 611 1251 531 1074 606 1143 l 531 1251 b 417 1160 522 1188 481 1160 b 303 1251 353 1160 311 1188 l 222 1251 b 417 1074 228 1143 303 1074 z m 36 0 l 164 0 l 244 281 l 589 281 l 669 0 l 797 0 l 497 986 l 336 986 z m 417 878 l 556 397 l 278 397 z "},"Ẳ":{"ha":833,"x_min":0,"x_max":0,"o":"m 449 1254 b 514 1369 479 1276 514 1311 b 399 1464 514 1432 479 1464 b 319 1454 361 1464 335 1460 l 319 1382 b 389 1392 335 1386 360 1392 b 435 1349 422 1392 435 1374 b 374 1254 435 1319 407 1286 z m 417 1088 b 611 1265 531 1088 606 1157 l 531 1265 b 417 1174 522 1201 481 1174 b 303 1265 353 1174 311 1201 l 222 1265 b 417 1088 228 1157 303 1088 z m 36 0 l 164 0 l 244 281 l 589 281 l 669 0 l 797 0 l 497 986 l 336 986 z m 417 878 l 556 397 l 278 397 z "},"Ẵ":{"ha":833,"x_min":0,"x_max":0,"o":"m 494 1313 b 624 1469 569 1313 619 1371 l 551 1469 b 500 1389 546 1404 533 1389 b 435 1421 479 1389 463 1399 b 336 1457 404 1444 378 1457 b 208 1304 265 1457 211 1404 l 281 1304 b 336 1381 283 1367 304 1381 b 404 1347 361 1381 374 1372 b 494 1313 432 1324 461 1313 z m 418 1074 b 613 1251 532 1074 607 1143 l 532 1251 b 418 1160 524 1188 482 1160 b 304 1251 354 1160 313 1188 l 224 1251 b 418 1074 229 1143 304 1074 z m 36 0 l 164 0 l 244 281 l 589 281 l 669 0 l 797 0 l 497 986 l 336 986 z m 417 878 l 556 397 l 278 397 z "},"Ǎ":{"ha":833,"x_min":0,"x_max":0,"o":"m 222 1265 l 351 1081 l 482 1081 l 611 1265 l 514 1265 l 417 1140 l 319 1265 z m 36 0 l 164 0 l 244 281 l 589 281 l 669 0 l 797 0 l 497 986 l 336 986 z m 417 878 l 556 397 l 278 397 z "},"Â":{"ha":833,"x_min":0,"x_max":0,"o":"m 221 1081 l 318 1081 l 415 1206 l 513 1081 l 610 1081 l 481 1265 l 350 1265 z m 36 0 l 164 0 l 244 281 l 589 281 l 669 0 l 797 0 l 497 986 l 336 986 z m 417 878 l 556 397 l 278 397 z "},"Ấ":{"ha":833,"x_min":0,"x_max":0,"o":"m 535 1208 l 632 1208 l 738 1386 l 607 1386 z m 226 1067 l 324 1067 l 417 1172 l 510 1067 l 607 1067 l 482 1236 l 351 1236 z m 36 0 l 164 0 l 244 281 l 589 281 l 669 0 l 797 0 l 497 986 l 336 986 z m 417 878 l 556 397 l 278 397 z "},"Ậ":{"ha":833,"x_min":0,"x_max":0,"o":"m 221 1081 l 318 1081 l 415 1206 l 513 1081 l 610 1081 l 481 1265 l 350 1265 z m 36 0 l 164 0 l 244 281 l 589 281 l 669 0 l 797 0 l 497 986 l 336 986 z m 417 878 l 556 397 l 278 397 z m 356 -208 l 478 -208 l 478 -83 l 356 -83 z "},"Ầ":{"ha":833,"x_min":0,"x_max":0,"o":"m 599 1208 l 696 1208 l 624 1386 l 493 1386 z m 226 1067 l 324 1067 l 417 1172 l 510 1067 l 607 1067 l 482 1236 l 351 1236 z m 36 0 l 164 0 l 244 281 l 589 281 l 669 0 l 797 0 l 497 986 l 336 986 z m 417 878 l 556 397 l 278 397 z "},"Ẩ":{"ha":833,"x_min":0,"x_max":0,"o":"m 528 1199 l 603 1199 b 668 1313 633 1221 668 1254 b 553 1408 668 1375 633 1408 b 474 1399 515 1408 488 1404 l 474 1326 b 543 1336 488 1331 513 1336 b 588 1297 575 1336 588 1319 b 528 1199 588 1265 561 1231 z m 226 1067 l 324 1067 l 417 1172 l 510 1067 l 607 1067 l 482 1236 l 351 1236 z m 36 0 l 164 0 l 244 281 l 589 281 l 669 0 l 797 0 l 497 986 l 336 986 z m 417 878 l 556 397 l 278 397 z "},"Ẫ":{"ha":833,"x_min":0,"x_max":0,"o":"m 497 1285 b 625 1442 572 1285 622 1342 l 553 1442 b 503 1361 547 1376 536 1361 b 438 1393 482 1361 465 1371 b 336 1429 407 1417 381 1429 b 211 1276 268 1429 214 1379 l 283 1276 b 336 1353 286 1339 307 1353 b 407 1319 364 1353 376 1344 b 497 1285 435 1296 464 1285 z m 228 1065 l 325 1065 l 418 1171 l 511 1065 l 608 1065 l 483 1236 l 353 1236 z m 36 0 l 164 0 l 244 281 l 589 281 l 669 0 l 797 0 l 497 986 l 336 986 z m 417 878 l 556 397 l 278 397 z "},"Ä":{"ha":833,"x_min":0,"x_max":0,"o":"m 235 1101 l 357 1101 l 357 1238 l 235 1238 z m 476 1101 l 599 1101 l 599 1238 l 476 1238 z m 36 0 l 164 0 l 244 281 l 589 281 l 669 0 l 797 0 l 497 986 l 336 986 z m 417 878 l 556 397 l 278 397 z "},"Ạ":{"ha":833,"x_min":0,"x_max":0,"o":"m 36 0 l 164 0 l 244 281 l 589 281 l 669 0 l 797 0 l 497 986 l 336 986 z m 417 878 l 556 397 l 278 397 z m 356 -208 l 478 -208 l 478 -83 l 356 -83 z "},"À":{"ha":833,"x_min":0,"x_max":0,"o":"m 375 1081 l 472 1081 l 381 1258 l 250 1258 z m 36 0 l 164 0 l 244 281 l 589 281 l 669 0 l 797 0 l 497 986 l 336 986 z m 417 878 l 556 397 l 278 397 z "},"Ả":{"ha":833,"x_min":0,"x_max":0,"o":"m 456 1069 b 528 1197 489 1094 528 1133 b 400 1303 528 1267 489 1303 b 311 1292 358 1303 328 1297 l 311 1211 b 389 1222 328 1217 356 1222 b 439 1175 425 1222 439 1203 b 372 1069 439 1142 408 1106 z m 36 0 l 164 0 l 244 281 l 589 281 l 669 0 l 797 0 l 497 986 l 336 986 z m 417 878 l 556 397 l 278 397 z "},"Ā":{"ha":833,"x_min":0,"x_max":0,"o":"m 229 1118 l 601 1118 l 601 1218 l 229 1218 z m 36 0 l 164 0 l 244 281 l 589 281 l 669 0 l 797 0 l 497 986 l 336 986 z m 417 878 l 556 397 l 278 397 z "},"Ą":{"ha":833,"x_min":0,"x_max":0,"o":"m 36 0 l 164 0 l 244 281 l 589 281 l 669 0 l 690 0 l 657 -42 b 600 -181 618 -90 600 -133 b 725 -292 600 -250 647 -292 b 844 -256 778 -292 822 -278 l 811 -178 b 747 -197 794 -192 767 -197 b 706 -156 721 -197 706 -183 b 749 -62 706 -133 713 -110 l 797 0 l 497 986 l 336 986 z m 417 878 l 556 397 l 278 397 z "},"Å":{"ha":833,"x_min":0,"x_max":0,"o":"m 417 1050 b 544 1178 489 1050 544 1106 b 417 1306 544 1250 489 1306 b 289 1178 344 1306 289 1250 b 417 1050 289 1106 344 1050 z m 417 1119 b 358 1178 383 1119 358 1144 b 417 1236 358 1211 383 1236 b 475 1178 450 1236 475 1211 b 417 1119 475 1144 450 1119 z m 36 0 l 164 0 l 244 281 l 589 281 l 669 0 l 797 0 l 497 986 l 336 986 z m 417 878 l 556 397 l 278 397 z "},"Ã":{"ha":833,"x_min":0,"x_max":0,"o":"m 500 1097 b 636 1264 579 1097 631 1158 l 564 1264 b 506 1172 558 1194 540 1172 b 436 1206 483 1172 465 1182 b 331 1250 404 1232 375 1250 b 197 1088 256 1250 200 1194 l 269 1088 b 331 1175 272 1154 297 1175 b 403 1139 358 1175 371 1165 b 500 1097 433 1114 464 1097 z m 36 0 l 164 0 l 244 281 l 589 281 l 669 0 l 797 0 l 497 986 l 336 986 z m 417 878 l 556 397 l 278 397 z "},"Æ":{"ha":833,"x_min":0,"x_max":0,"o":"m 14 0 l 139 0 l 226 281 l 436 281 l 436 0 l 806 0 l 806 117 l 556 117 l 556 438 l 778 438 l 778 551 l 556 551 l 556 869 l 794 869 l 794 986 l 328 986 z m 411 874 l 436 874 l 436 397 l 263 397 z "},"B":{"ha":833,"x_min":0,"x_max":0,"o":"m 125 0 l 438 0 b 772 275 646 0 772 104 b 551 508 772 403 690 490 b 731 717 660 528 731 610 b 403 986 731 883 619 986 l 125 986 z m 244 560 l 244 869 l 408 869 b 606 714 544 869 606 814 b 408 560 606 615 544 560 z m 244 117 l 244 443 l 439 443 b 647 275 575 443 647 381 b 439 117 647 175 581 117 z "},"C":{"ha":833,"x_min":0,"x_max":0,"o":"m 419 -22 b 772 325 606 -22 736 108 l 646 332 b 419 94 618 175 533 94 b 178 492 263 94 178 238 b 419 892 178 747 263 892 b 636 676 522 892 604 818 l 764 685 b 419 1008 722 889 593 1008 b 53 492 183 1008 53 810 b 419 -22 53 176 183 -22 z "},"Ć":{"ha":833,"x_min":0,"x_max":0,"o":"m 367 1081 l 464 1081 l 589 1258 l 458 1258 z m 419 -22 b 772 325 606 -22 736 108 l 646 332 b 419 94 618 175 533 94 b 178 492 263 94 178 238 b 419 892 178 747 263 892 b 636 676 522 892 604 818 l 764 685 b 419 1008 722 889 593 1008 b 53 492 183 1008 53 810 b 419 -22 53 176 183 -22 z "},"Č":{"ha":833,"x_min":0,"x_max":0,"o":"m 225 1265 l 354 1081 l 485 1081 l 614 1265 l 517 1265 l 419 1140 l 322 1265 z m 419 -22 b 772 325 606 -22 736 108 l 646 332 b 419 94 618 175 533 94 b 178 492 263 94 178 238 b 419 892 178 747 263 892 b 636 676 522 892 604 818 l 764 685 b 419 1008 722 889 593 1008 b 53 492 183 1008 53 810 b 419 -22 53 176 183 -22 z "},"Ç":{"ha":833,"x_min":0,"x_max":0,"o":"m 424 -306 b 579 -175 514 -306 579 -253 b 446 -50 579 -103 536 -54 l 468 -19 b 772 325 629 3 739 128 l 646 332 b 419 94 618 175 533 94 b 178 492 263 94 178 238 b 419 892 178 747 263 892 b 636 676 522 892 604 818 l 764 685 b 419 1008 722 889 593 1008 b 53 492 183 1008 53 810 b 382 -21 53 193 169 0 l 351 -69 l 390 -111 b 496 -172 479 -111 496 -137 b 421 -228 496 -207 468 -228 b 332 -169 375 -228 349 -211 l 261 -197 b 424 -306 281 -258 335 -306 z "},"Ĉ":{"ha":833,"x_min":0,"x_max":0,"o":"m 224 1081 l 321 1081 l 418 1206 l 515 1081 l 613 1081 l 483 1265 l 353 1265 z m 419 -22 b 772 325 606 -22 736 108 l 646 332 b 419 94 618 175 533 94 b 178 492 263 94 178 238 b 419 892 178 747 263 892 b 636 676 522 892 604 818 l 764 685 b 419 1008 722 889 593 1008 b 53 492 183 1008 53 810 b 419 -22 53 176 183 -22 z "},"Ċ":{"ha":833,"x_min":0,"x_max":0,"o":"m 357 1101 l 479 1101 l 479 1238 l 357 1238 z m 419 -22 b 772 325 606 -22 736 108 l 646 332 b 419 94 618 175 533 94 b 178 492 263 94 178 238 b 419 892 178 747 263 892 b 636 676 522 892 604 818 l 764 685 b 419 1008 722 889 593 1008 b 53 492 183 1008 53 810 b 419 -22 53 176 183 -22 z "},"D":{"ha":833,"x_min":0,"x_max":0,"o":"m 125 0 l 358 0 b 781 492 614 0 781 175 b 358 986 781 808 614 986 l 125 986 z m 244 117 l 244 869 l 351 869 b 656 492 543 869 656 742 b 351 117 656 242 543 117 z "},"Ď":{"ha":833,"x_min":0,"x_max":0,"o":"m 222 1265 l 351 1081 l 482 1081 l 611 1265 l 514 1265 l 417 1140 l 319 1265 z m 125 0 l 358 0 b 781 492 614 0 781 175 b 358 986 781 808 614 986 l 125 986 z m 244 117 l 244 869 l 351 869 b 656 492 543 869 656 742 b 351 117 656 242 543 117 z "},"Đ":{"ha":833,"x_min":0,"x_max":0,"o":"m 125 0 l 358 0 b 781 492 614 0 781 175 b 358 986 781 808 614 986 l 125 986 l 125 547 l 28 547 l 28 439 l 125 439 z m 244 117 l 244 439 l 472 439 l 472 547 l 244 547 l 244 869 l 351 869 b 656 492 543 869 656 742 b 351 117 656 242 543 117 z "},"Ð":{"ha":833,"x_min":0,"x_max":0,"o":"m 125 0 l 358 0 b 781 492 614 0 781 175 b 358 986 781 808 614 986 l 125 986 l 125 547 l 28 547 l 28 439 l 125 439 z m 244 117 l 244 439 l 472 439 l 472 547 l 244 547 l 244 869 l 351 869 b 656 492 543 869 656 742 b 351 117 656 242 543 117 z "},"E":{"ha":833,"x_min":0,"x_max":0,"o":"m 125 0 l 736 0 l 736 117 l 244 117 l 244 438 l 708 438 l 708 551 l 244 551 l 244 869 l 725 869 l 725 986 l 125 986 z "},"É":{"ha":833,"x_min":0,"x_max":0,"o":"m 389 1082 l 486 1082 l 611 1260 l 481 1260 z m 125 0 l 736 0 l 736 117 l 244 117 l 244 438 l 708 438 l 708 551 l 244 551 l 244 869 l 725 869 l 725 986 l 125 986 z "},"Ě":{"ha":833,"x_min":0,"x_max":0,"o":"m 247 1267 l 376 1082 l 507 1082 l 636 1267 l 539 1267 l 442 1142 l 344 1267 z m 125 0 l 736 0 l 736 117 l 244 117 l 244 438 l 708 438 l 708 551 l 244 551 l 244 869 l 725 869 l 725 986 l 125 986 z "},"Ê":{"ha":833,"x_min":0,"x_max":0,"o":"m 246 1082 l 343 1082 l 440 1207 l 538 1082 l 635 1082 l 506 1267 l 375 1267 z m 125 0 l 736 0 l 736 117 l 244 117 l 244 438 l 708 438 l 708 551 l 244 551 l 244 869 l 725 869 l 725 986 l 125 986 z "},"Ế":{"ha":833,"x_min":0,"x_max":0,"o":"m 560 1210 l 657 1210 l 763 1388 l 632 1388 z m 251 1068 l 349 1068 l 442 1174 l 535 1068 l 632 1068 l 507 1238 l 376 1238 z m 125 0 l 736 0 l 736 117 l 244 117 l 244 438 l 708 438 l 708 551 l 244 551 l 244 869 l 725 869 l 725 986 l 125 986 z "},"Ệ":{"ha":833,"x_min":0,"x_max":0,"o":"m 246 1082 l 343 1082 l 440 1207 l 538 1082 l 635 1082 l 506 1267 l 375 1267 z m 125 0 l 736 0 l 736 117 l 244 117 l 244 438 l 708 438 l 708 551 l 244 551 l 244 869 l 725 869 l 725 986 l 125 986 z m 381 -208 l 503 -208 l 503 -83 l 381 -83 z "},"Ề":{"ha":833,"x_min":0,"x_max":0,"o":"m 624 1210 l 721 1210 l 649 1388 l 518 1388 z m 251 1068 l 349 1068 l 442 1174 l 535 1068 l 632 1068 l 507 1238 l 376 1238 z m 125 0 l 736 0 l 736 117 l 244 117 l 244 438 l 708 438 l 708 551 l 244 551 l 244 869 l 725 869 l 725 986 l 125 986 z "},"Ể":{"ha":833,"x_min":0,"x_max":0,"o":"m 553 1200 l 628 1200 b 693 1314 658 1222 693 1256 b 578 1410 693 1376 658 1410 b 499 1400 540 1410 513 1406 l 499 1328 b 568 1338 513 1332 538 1338 b 613 1299 600 1338 613 1321 b 553 1200 613 1267 586 1232 z m 251 1068 l 349 1068 l 442 1174 l 535 1068 l 632 1068 l 507 1238 l 376 1238 z m 125 0 l 736 0 l 736 117 l 244 117 l 244 438 l 708 438 l 708 551 l 244 551 l 244 869 l 725 869 l 725 986 l 125 986 z "},"Ễ":{"ha":833,"x_min":0,"x_max":0,"o":"m 522 1286 b 650 1443 597 1286 647 1343 l 578 1443 b 528 1363 572 1378 561 1363 b 463 1394 507 1363 490 1372 b 361 1431 432 1418 406 1431 b 236 1278 293 1431 239 1381 l 308 1278 b 361 1354 311 1340 332 1354 b 432 1321 389 1354 401 1346 b 522 1286 460 1297 489 1286 z m 253 1067 l 350 1067 l 443 1172 l 536 1067 l 633 1067 l 508 1238 l 378 1238 z m 125 0 l 736 0 l 736 117 l 244 117 l 244 438 l 708 438 l 708 551 l 244 551 l 244 869 l 725 869 l 725 986 l 125 986 z "},"Ë":{"ha":833,"x_min":0,"x_max":0,"o":"m 260 1103 l 382 1103 l 382 1239 l 260 1239 z m 501 1103 l 624 1103 l 624 1239 l 501 1239 z m 125 0 l 736 0 l 736 117 l 244 117 l 244 438 l 708 438 l 708 551 l 244 551 l 244 869 l 725 869 l 725 986 l 125 986 z "},"Ė":{"ha":833,"x_min":0,"x_max":0,"o":"m 379 1103 l 501 1103 l 501 1239 l 379 1239 z m 125 0 l 736 0 l 736 117 l 244 117 l 244 438 l 708 438 l 708 551 l 244 551 l 244 869 l 725 869 l 725 986 l 125 986 z "},"Ẹ":{"ha":833,"x_min":0,"x_max":0,"o":"m 125 0 l 736 0 l 736 117 l 244 117 l 244 438 l 708 438 l 708 551 l 244 551 l 244 869 l 725 869 l 725 986 l 125 986 z m 381 -208 l 503 -208 l 503 -83 l 381 -83 z "},"È":{"ha":833,"x_min":0,"x_max":0,"o":"m 400 1082 l 497 1082 l 406 1260 l 275 1260 z m 125 0 l 736 0 l 736 117 l 244 117 l 244 438 l 708 438 l 708 551 l 244 551 l 244 869 l 725 869 l 725 986 l 125 986 z "},"Ẻ":{"ha":833,"x_min":0,"x_max":0,"o":"m 481 1071 b 553 1199 514 1096 553 1135 b 425 1304 553 1268 514 1304 b 336 1293 383 1304 353 1299 l 336 1213 b 414 1224 353 1218 381 1224 b 464 1176 450 1224 464 1204 b 397 1071 464 1143 433 1107 z m 125 0 l 736 0 l 736 117 l 244 117 l 244 438 l 708 438 l 708 551 l 244 551 l 244 869 l 725 869 l 725 986 l 125 986 z "},"Ē":{"ha":833,"x_min":0,"x_max":0,"o":"m 254 1119 l 626 1119 l 626 1219 l 254 1219 z m 125 0 l 736 0 l 736 117 l 244 117 l 244 438 l 708 438 l 708 551 l 244 551 l 244 869 l 725 869 l 725 986 l 125 986 z "},"Ę":{"ha":833,"x_min":0,"x_max":0,"o":"m 125 0 l 629 0 l 596 -42 b 539 -181 557 -90 539 -133 b 664 -292 539 -250 586 -292 b 783 -256 717 -292 761 -278 l 750 -178 b 686 -197 733 -192 706 -197 b 644 -156 660 -197 644 -183 b 688 -62 644 -133 651 -110 l 736 0 l 736 117 l 244 117 l 244 438 l 708 438 l 708 551 l 244 551 l 244 869 l 725 869 l 725 986 l 125 986 z "},"Ẽ":{"ha":833,"x_min":0,"x_max":0,"o":"m 525 1099 b 661 1265 604 1099 656 1160 l 589 1265 b 531 1174 583 1196 565 1174 b 461 1207 508 1174 490 1183 b 356 1251 429 1233 400 1251 b 222 1089 281 1251 225 1196 l 294 1089 b 356 1176 297 1156 322 1176 b 428 1140 383 1176 396 1167 b 525 1099 458 1115 489 1099 z m 125 0 l 736 0 l 736 117 l 244 117 l 244 438 l 708 438 l 708 551 l 244 551 l 244 869 l 725 869 l 725 986 l 125 986 z "},"Ə":{"ha":833,"x_min":0,"x_max":0,"o":"m 428 -22 b 794 493 643 -22 794 176 b 414 1008 794 824 654 1008 b 72 692 249 1008 128 890 l 203 681 b 419 892 233 808 306 892 b 668 542 574 892 668 751 l 53 542 l 53 476 b 428 -22 53 181 192 -22 z m 428 94 b 182 425 275 94 182 219 l 667 425 b 428 94 667 219 574 94 z "},"F":{"ha":833,"x_min":0,"x_max":0,"o":"m 139 0 l 258 0 l 258 425 l 725 425 l 725 539 l 258 539 l 258 872 l 750 872 l 750 986 l 139 986 z "},"G":{"ha":833,"x_min":0,"x_max":0,"o":"m 414 -22 b 656 136 536 -22 610 40 l 658 0 l 769 0 l 769 499 l 422 499 l 422 385 l 658 385 b 425 94 653 214 565 94 b 178 492 268 94 178 238 b 419 892 178 747 265 892 b 640 683 536 892 608 806 l 765 692 b 419 1008 722 878 600 1008 b 53 492 189 1008 53 810 b 414 -22 53 153 206 -22 z "},"Ğ":{"ha":833,"x_min":0,"x_max":0,"o":"m 415 1088 b 610 1265 529 1088 604 1157 l 529 1265 b 415 1174 521 1201 479 1174 b 301 1265 351 1174 310 1201 l 221 1265 b 415 1088 226 1157 301 1088 z m 414 -22 b 656 136 536 -22 610 40 l 658 0 l 769 0 l 769 499 l 422 499 l 422 385 l 658 385 b 425 94 653 214 565 94 b 178 492 268 94 178 238 b 419 892 178 747 265 892 b 640 683 536 892 608 806 l 765 692 b 419 1008 722 878 600 1008 b 53 492 189 1008 53 810 b 414 -22 53 153 206 -22 z "},"Ǧ":{"ha":833,"x_min":0,"x_max":0,"o":"m 221 1265 l 350 1081 l 481 1081 l 610 1265 l 513 1265 l 415 1140 l 318 1265 z m 414 -22 b 656 136 536 -22 610 40 l 658 0 l 769 0 l 769 499 l 422 499 l 422 385 l 658 385 b 425 94 653 214 565 94 b 178 492 268 94 178 238 b 419 892 178 747 265 892 b 640 683 536 892 608 806 l 765 692 b 419 1008 722 878 600 1008 b 53 492 189 1008 53 810 b 414 -22 53 153 206 -22 z "},"Ĝ":{"ha":833,"x_min":0,"x_max":0,"o":"m 219 1081 l 317 1081 l 414 1206 l 511 1081 l 608 1081 l 479 1265 l 349 1265 z m 414 -22 b 656 136 536 -22 610 40 l 658 0 l 769 0 l 769 499 l 422 499 l 422 385 l 658 385 b 425 94 653 214 565 94 b 178 492 268 94 178 238 b 419 892 178 747 265 892 b 640 683 536 892 608 806 l 765 692 b 419 1008 722 878 600 1008 b 53 492 189 1008 53 810 b 414 -22 53 153 206 -22 z "},"Ģ":{"ha":833,"x_min":0,"x_max":0,"o":"m 414 -22 b 656 136 536 -22 610 40 l 658 0 l 769 0 l 769 499 l 422 499 l 422 385 l 658 385 b 425 94 653 214 565 94 b 178 492 268 94 178 238 b 419 892 178 747 265 892 b 640 683 536 892 608 806 l 765 692 b 419 1008 722 878 600 1008 b 53 492 189 1008 53 810 b 414 -22 53 153 206 -22 z m 318 -333 l 396 -333 l 485 -194 l 485 -75 l 346 -75 l 346 -200 l 393 -200 z "},"Ġ":{"ha":833,"x_min":0,"x_max":0,"o":"m 353 1101 l 475 1101 l 475 1238 l 353 1238 z m 414 -22 b 656 136 536 -22 610 40 l 658 0 l 769 0 l 769 499 l 422 499 l 422 385 l 658 385 b 425 94 653 214 565 94 b 178 492 268 94 178 238 b 419 892 178 747 265 892 b 640 683 536 892 608 806 l 765 692 b 419 1008 722 878 600 1008 b 53 492 189 1008 53 810 b 414 -22 53 153 206 -22 z "},"Ḡ":{"ha":833,"x_min":0,"x_max":0,"o":"m 228 1118 l 600 1118 l 600 1218 l 228 1218 z m 414 -22 b 656 136 536 -22 610 40 l 658 0 l 769 0 l 769 499 l 422 499 l 422 385 l 658 385 b 425 94 653 214 565 94 b 178 492 268 94 178 238 b 419 892 178 747 265 892 b 640 683 536 892 608 806 l 765 692 b 419 1008 722 878 600 1008 b 53 492 189 1008 53 810 b 414 -22 53 153 206 -22 z "},"Ǥ":{"ha":833,"x_min":0,"x_max":0,"o":"m 415 -22 b 746 207 578 -22 693 54 l 814 207 l 814 304 l 769 304 b 778 431 775 343 778 385 l 778 499 l 425 499 l 425 385 l 658 385 b 651 304 658 356 656 329 l 425 304 l 425 207 l 619 207 b 415 94 581 133 510 94 b 153 492 249 94 153 251 b 415 892 153 733 249 892 b 643 683 546 892 613 806 l 768 692 b 415 1008 725 875 613 1008 b 28 492 182 1008 28 807 b 415 -22 28 178 182 -22 z "},"H":{"ha":833,"x_min":0,"x_max":0,"o":"m 83 0 l 203 0 l 203 438 l 631 438 l 631 0 l 750 0 l 750 986 l 631 986 l 631 554 l 203 554 l 203 986 l 83 986 z "},"Ħ":{"ha":833,"x_min":0,"x_max":0,"o":"m 83 0 l 203 0 l 203 438 l 631 438 l 631 0 l 750 0 l 750 733 l 806 733 l 806 844 l 750 844 l 750 986 l 631 986 l 631 844 l 203 844 l 203 986 l 83 986 l 83 844 l 28 844 l 28 733 l 83 733 z m 203 554 l 203 733 l 631 733 l 631 554 z "},"Ĥ":{"ha":833,"x_min":0,"x_max":0,"o":"m 221 1081 l 318 1081 l 415 1206 l 513 1081 l 610 1081 l 481 1265 l 350 1265 z m 83 0 l 203 0 l 203 438 l 631 438 l 631 0 l 750 0 l 750 986 l 631 986 l 631 554 l 203 554 l 203 986 l 83 986 z "},"I":{"ha":833,"x_min":0,"x_max":0,"o":"m 111 0 l 722 0 l 722 117 l 476 117 l 476 869 l 722 869 l 722 986 l 111 986 l 111 869 l 357 869 l 357 117 l 111 117 z "},"Í":{"ha":833,"x_min":0,"x_max":0,"o":"m 364 1081 l 461 1081 l 586 1258 l 456 1258 z m 111 0 l 722 0 l 722 117 l 476 117 l 476 869 l 722 869 l 722 986 l 111 986 l 111 869 l 357 869 l 357 117 l 111 117 z "},"Î":{"ha":833,"x_min":0,"x_max":0,"o":"m 221 1081 l 318 1081 l 415 1206 l 513 1081 l 610 1081 l 481 1265 l 350 1265 z m 111 0 l 722 0 l 722 117 l 476 117 l 476 869 l 722 869 l 722 986 l 111 986 l 111 869 l 357 869 l 357 117 l 111 117 z "},"Ï":{"ha":833,"x_min":0,"x_max":0,"o":"m 235 1101 l 357 1101 l 357 1238 l 235 1238 z m 476 1101 l 599 1101 l 599 1238 l 476 1238 z m 111 0 l 722 0 l 722 117 l 476 117 l 476 869 l 722 869 l 722 986 l 111 986 l 111 869 l 357 869 l 357 117 l 111 117 z "},"İ":{"ha":833,"x_min":0,"x_max":0,"o":"m 354 1101 l 476 1101 l 476 1238 l 354 1238 z m 111 0 l 722 0 l 722 117 l 476 117 l 476 869 l 722 869 l 722 986 l 111 986 l 111 869 l 357 869 l 357 117 l 111 117 z "},"Ị":{"ha":833,"x_min":0,"x_max":0,"o":"m 111 0 l 722 0 l 722 117 l 476 117 l 476 869 l 722 869 l 722 986 l 111 986 l 111 869 l 357 869 l 357 117 l 111 117 z m 356 -208 l 478 -208 l 478 -83 l 356 -83 z "},"Ì":{"ha":833,"x_min":0,"x_max":0,"o":"m 375 1081 l 472 1081 l 381 1258 l 250 1258 z m 111 0 l 722 0 l 722 117 l 476 117 l 476 869 l 722 869 l 722 986 l 111 986 l 111 869 l 357 869 l 357 117 l 111 117 z "},"Ỉ":{"ha":833,"x_min":0,"x_max":0,"o":"m 456 1069 b 528 1197 489 1094 528 1133 b 400 1303 528 1267 489 1303 b 311 1292 358 1303 328 1297 l 311 1211 b 389 1222 328 1217 356 1222 b 439 1175 425 1222 439 1203 b 372 1069 439 1142 408 1106 z m 111 0 l 722 0 l 722 117 l 476 117 l 476 869 l 722 869 l 722 986 l 111 986 l 111 869 l 357 869 l 357 117 l 111 117 z "},"Ī":{"ha":833,"x_min":0,"x_max":0,"o":"m 229 1118 l 601 1118 l 601 1218 l 229 1218 z m 111 0 l 722 0 l 722 117 l 476 117 l 476 869 l 722 869 l 722 986 l 111 986 l 111 869 l 357 869 l 357 117 l 111 117 z "},"Į":{"ha":833,"x_min":0,"x_max":0,"o":"m 111 0 l 615 0 l 582 -42 b 525 -181 543 -90 525 -133 b 650 -292 525 -250 572 -292 b 769 -256 703 -292 747 -278 l 736 -178 b 672 -197 719 -192 692 -197 b 631 -156 646 -197 631 -183 b 674 -62 631 -133 638 -110 l 722 0 l 722 117 l 476 117 l 476 869 l 722 869 l 722 986 l 111 986 l 111 869 l 357 869 l 357 117 l 111 117 z "},"Ĩ":{"ha":833,"x_min":0,"x_max":0,"o":"m 500 1097 b 636 1264 579 1097 631 1158 l 564 1264 b 506 1172 558 1194 540 1172 b 436 1206 483 1172 465 1182 b 331 1250 404 1232 375 1250 b 197 1088 256 1250 200 1194 l 269 1088 b 331 1175 272 1154 297 1175 b 403 1139 358 1175 371 1165 b 500 1097 433 1114 464 1097 z m 111 0 l 722 0 l 722 117 l 476 117 l 476 869 l 722 869 l 722 986 l 111 986 l 111 869 l 357 869 l 357 117 l 111 117 z "},"J":{"ha":833,"x_min":0,"x_max":0,"o":"m 382 -22 b 708 331 583 -22 708 113 l 708 986 l 589 986 l 589 331 b 382 94 589 174 519 94 b 172 331 244 94 178 171 l 56 319 b 382 -22 61 111 188 -22 z "},"Ĵ":{"ha":833,"x_min":0,"x_max":0,"o":"m 450 1081 l 547 1081 l 644 1206 l 742 1081 l 839 1081 l 710 1265 l 579 1265 z m 382 -22 b 708 331 583 -22 708 113 l 708 986 l 589 986 l 589 331 b 382 94 589 174 519 94 b 172 331 244 94 178 171 l 56 319 b 382 -22 61 111 188 -22 z "},"K":{"ha":833,"x_min":0,"x_max":0,"o":"m 83 0 l 203 0 l 203 331 l 314 460 l 631 0 l 778 0 l 393 553 l 764 986 l 617 986 l 203 492 l 203 986 l 83 986 z "},"Ǩ":{"ha":833,"x_min":0,"x_max":0,"o":"m 190 1265 l 319 1081 l 450 1081 l 579 1265 l 482 1265 l 385 1140 l 288 1265 z m 83 0 l 203 0 l 203 331 l 314 460 l 631 0 l 778 0 l 393 553 l 764 986 l 617 986 l 203 492 l 203 986 l 83 986 z "},"Ķ":{"ha":833,"x_min":0,"x_max":0,"o":"m 83 0 l 203 0 l 203 331 l 314 460 l 631 0 l 778 0 l 393 553 l 764 986 l 617 986 l 203 492 l 203 986 l 83 986 z m 297 -333 l 375 -333 l 464 -194 l 464 -75 l 325 -75 l 325 -200 l 372 -200 z "},"L":{"ha":833,"x_min":0,"x_max":0,"o":"m 139 0 l 750 0 l 750 117 l 258 117 l 258 986 l 139 986 z "},"Ĺ":{"ha":833,"x_min":0,"x_max":0,"o":"m 146 1081 l 243 1081 l 368 1258 l 238 1258 z m 139 0 l 750 0 l 750 117 l 258 117 l 258 986 l 139 986 z "},"Ľ":{"ha":833,"x_min":0,"x_max":0,"o":"m 139 0 l 750 0 l 750 117 l 258 117 l 258 986 l 139 986 z m 492 633 l 575 633 l 650 986 l 533 986 z "},"Ļ":{"ha":833,"x_min":0,"x_max":0,"o":"m 139 0 l 750 0 l 750 117 l 258 117 l 258 986 l 139 986 z m 349 -333 l 426 -333 l 515 -194 l 515 -75 l 376 -75 l 376 -200 l 424 -200 z "},"Ł":{"ha":833,"x_min":0,"x_max":0,"o":"m 139 0 l 750 0 l 750 117 l 258 117 l 258 476 l 469 586 l 469 692 l 258 582 l 258 986 l 139 986 l 139 519 l 42 469 l 42 364 l 139 414 z "},"M":{"ha":833,"x_min":0,"x_max":0,"o":"m 364 111 l 469 111 l 644 829 l 644 0 l 764 0 l 764 986 l 583 986 l 417 290 l 250 986 l 69 986 l 69 0 l 189 0 l 189 829 z "},"N":{"ha":833,"x_min":0,"x_max":0,"o":"m 97 0 l 217 0 l 217 851 l 567 0 l 736 0 l 736 986 l 617 986 l 617 135 l 267 986 l 97 986 z "},"Ń":{"ha":833,"x_min":0,"x_max":0,"o":"m 364 1081 l 461 1081 l 586 1258 l 456 1258 z m 97 0 l 217 0 l 217 851 l 567 0 l 736 0 l 736 986 l 617 986 l 617 135 l 267 986 l 97 986 z "},"Ň":{"ha":833,"x_min":0,"x_max":0,"o":"m 222 1265 l 351 1081 l 482 1081 l 611 1265 l 514 1265 l 417 1140 l 319 1265 z m 97 0 l 217 0 l 217 851 l 567 0 l 736 0 l 736 986 l 617 986 l 617 135 l 267 986 l 97 986 z "},"Ņ":{"ha":833,"x_min":0,"x_max":0,"o":"m 97 0 l 217 0 l 217 851 l 567 0 l 736 0 l 736 986 l 617 986 l 617 135 l 267 986 l 97 986 z m 319 -333 l 397 -333 l 486 -194 l 486 -75 l 347 -75 l 347 -200 l 394 -200 z "},"Ñ":{"ha":833,"x_min":0,"x_max":0,"o":"m 500 1097 b 636 1264 579 1097 631 1158 l 564 1264 b 506 1172 558 1194 540 1172 b 436 1206 483 1172 465 1182 b 331 1250 404 1232 375 1250 b 197 1088 256 1250 200 1194 l 269 1088 b 331 1175 272 1154 297 1175 b 403 1139 358 1175 371 1165 b 500 1097 433 1114 464 1097 z m 97 0 l 217 0 l 217 851 l 567 0 l 736 0 l 736 986 l 617 986 l 617 135 l 267 986 l 97 986 z "},"Ŋ":{"ha":833,"x_min":0,"x_max":0,"o":"m 97 0 l 217 0 l 217 851 l 567 0 l 617 0 l 617 -11 b 528 -92 617 -64 586 -92 l 385 -92 l 385 -208 l 528 -208 b 736 -10 656 -208 736 -131 l 736 986 l 617 986 l 617 135 l 267 986 l 97 986 z "},"O":{"ha":833,"x_min":0,"x_max":0,"o":"m 417 -22 b 781 492 650 -22 781 163 b 417 1008 781 824 650 1008 b 53 492 183 1008 53 824 b 417 -22 53 163 183 -22 z m 417 94 b 178 492 264 94 178 233 b 417 892 178 750 264 892 b 656 492 569 892 656 750 b 417 94 656 233 569 94 z "},"Ó":{"ha":833,"x_min":0,"x_max":0,"o":"m 364 1081 l 461 1081 l 586 1258 l 456 1258 z m 417 -22 b 781 492 650 -22 781 163 b 417 1008 781 824 650 1008 b 53 492 183 1008 53 824 b 417 -22 53 163 183 -22 z m 417 94 b 178 492 264 94 178 233 b 417 892 178 750 264 892 b 656 492 569 892 656 750 b 417 94 656 233 569 94 z "},"Ô":{"ha":833,"x_min":0,"x_max":0,"o":"m 221 1081 l 318 1081 l 415 1206 l 513 1081 l 610 1081 l 481 1265 l 350 1265 z m 417 -22 b 781 492 650 -22 781 163 b 417 1008 781 824 650 1008 b 53 492 183 1008 53 824 b 417 -22 53 163 183 -22 z m 417 94 b 178 492 264 94 178 233 b 417 892 178 750 264 892 b 656 492 569 892 656 750 b 417 94 656 233 569 94 z "},"Ố":{"ha":833,"x_min":0,"x_max":0,"o":"m 535 1208 l 632 1208 l 738 1386 l 607 1386 z m 226 1067 l 324 1067 l 417 1172 l 510 1067 l 607 1067 l 482 1236 l 351 1236 z m 417 -22 b 781 492 650 -22 781 163 b 417 1008 781 824 650 1008 b 53 492 183 1008 53 824 b 417 -22 53 163 183 -22 z m 417 94 b 178 492 264 94 178 233 b 417 892 178 750 264 892 b 656 492 569 892 656 750 b 417 94 656 233 569 94 z "},"Ộ":{"ha":833,"x_min":0,"x_max":0,"o":"m 221 1081 l 318 1081 l 415 1206 l 513 1081 l 610 1081 l 481 1265 l 350 1265 z m 417 -22 b 781 492 650 -22 781 163 b 417 1008 781 824 650 1008 b 53 492 183 1008 53 824 b 417 -22 53 163 183 -22 z m 417 94 b 178 492 264 94 178 233 b 417 892 178 750 264 892 b 656 492 569 892 656 750 b 417 94 656 233 569 94 z m 356 -208 l 478 -208 l 478 -83 l 356 -83 z "},"Ồ":{"ha":833,"x_min":0,"x_max":0,"o":"m 599 1208 l 696 1208 l 624 1386 l 493 1386 z m 226 1067 l 324 1067 l 417 1172 l 510 1067 l 607 1067 l 482 1236 l 351 1236 z m 417 -22 b 781 492 650 -22 781 163 b 417 1008 781 824 650 1008 b 53 492 183 1008 53 824 b 417 -22 53 163 183 -22 z m 417 94 b 178 492 264 94 178 233 b 417 892 178 750 264 892 b 656 492 569 892 656 750 b 417 94 656 233 569 94 z "},"Ổ":{"ha":833,"x_min":0,"x_max":0,"o":"m 528 1199 l 603 1199 b 668 1313 633 1221 668 1254 b 553 1408 668 1375 633 1408 b 474 1399 515 1408 488 1404 l 474 1326 b 543 1336 488 1331 513 1336 b 588 1297 575 1336 588 1319 b 528 1199 588 1265 561 1231 z m 226 1067 l 324 1067 l 417 1172 l 510 1067 l 607 1067 l 482 1236 l 351 1236 z m 417 -22 b 781 492 650 -22 781 163 b 417 1008 781 824 650 1008 b 53 492 183 1008 53 824 b 417 -22 53 163 183 -22 z m 417 94 b 178 492 264 94 178 233 b 417 892 178 750 264 892 b 656 492 569 892 656 750 b 417 94 656 233 569 94 z "},"Ỗ":{"ha":833,"x_min":0,"x_max":0,"o":"m 497 1285 b 625 1442 572 1285 622 1342 l 553 1442 b 503 1361 547 1376 536 1361 b 438 1393 482 1361 465 1371 b 336 1429 407 1417 381 1429 b 211 1276 268 1429 214 1379 l 283 1276 b 336 1353 286 1339 307 1353 b 407 1319 364 1353 376 1344 b 497 1285 435 1296 464 1285 z m 228 1065 l 325 1065 l 418 1171 l 511 1065 l 608 1065 l 483 1236 l 353 1236 z m 417 -22 b 781 492 650 -22 781 163 b 417 1008 781 824 650 1008 b 53 492 183 1008 53 824 b 417 -22 53 163 183 -22 z m 417 94 b 178 492 264 94 178 233 b 417 892 178 750 264 892 b 656 492 569 892 656 750 b 417 94 656 233 569 94 z "},"Ö":{"ha":833,"x_min":0,"x_max":0,"o":"m 235 1101 l 357 1101 l 357 1238 l 235 1238 z m 476 1101 l 599 1101 l 599 1238 l 476 1238 z m 417 -22 b 781 492 650 -22 781 163 b 417 1008 781 824 650 1008 b 53 492 183 1008 53 824 b 417 -22 53 163 183 -22 z m 417 94 b 178 492 264 94 178 233 b 417 892 178 750 264 892 b 656 492 569 892 656 750 b 417 94 656 233 569 94 z "},"Ọ":{"ha":833,"x_min":0,"x_max":0,"o":"m 417 -22 b 781 492 650 -22 781 163 b 417 1008 781 824 650 1008 b 53 492 183 1008 53 824 b 417 -22 53 163 183 -22 z m 417 94 b 178 492 264 94 178 233 b 417 892 178 750 264 892 b 656 492 569 892 656 750 b 417 94 656 233 569 94 z m 356 -208 l 478 -208 l 478 -83 l 356 -83 z "},"Ò":{"ha":833,"x_min":0,"x_max":0,"o":"m 375 1081 l 472 1081 l 381 1258 l 250 1258 z m 417 -22 b 781 492 650 -22 781 163 b 417 1008 781 824 650 1008 b 53 492 183 1008 53 824 b 417 -22 53 163 183 -22 z m 417 94 b 178 492 264 94 178 233 b 417 892 178 750 264 892 b 656 492 569 892 656 750 b 417 94 656 233 569 94 z "},"Ỏ":{"ha":833,"x_min":0,"x_max":0,"o":"m 456 1069 b 528 1197 489 1094 528 1133 b 400 1303 528 1267 489 1303 b 311 1292 358 1303 328 1297 l 311 1211 b 389 1222 328 1217 356 1222 b 439 1175 425 1222 439 1203 b 372 1069 439 1142 408 1106 z m 417 -22 b 781 492 650 -22 781 163 b 417 1008 781 824 650 1008 b 53 492 183 1008 53 824 b 417 -22 53 163 183 -22 z m 417 94 b 178 492 264 94 178 233 b 417 892 178 750 264 892 b 656 492 569 892 656 750 b 417 94 656 233 569 94 z "},"Ơ":{"ha":833,"x_min":0,"x_max":0,"o":"m 417 -22 b 781 492 650 -22 781 163 b 644 924 781 692 733 838 b 760 1058 714 935 760 975 b 740 1181 760 1103 749 1156 l 638 1181 b 657 1053 646 1147 657 1094 b 588 986 657 1003 629 986 l 544 986 b 417 1008 507 1001 464 1008 b 53 492 183 1008 53 824 b 417 -22 53 163 183 -22 z m 417 94 b 178 492 264 94 178 233 b 417 892 178 750 264 892 b 656 492 569 892 656 750 b 417 94 656 233 569 94 z "},"Ớ":{"ha":833,"x_min":0,"x_max":0,"o":"m 353 1081 l 450 1081 l 575 1258 l 444 1258 z m 417 -22 b 781 492 650 -22 781 163 b 644 924 781 692 733 838 b 760 1058 714 935 760 975 b 740 1181 760 1103 749 1156 l 638 1181 b 657 1053 646 1147 657 1094 b 588 986 657 1003 629 986 l 544 986 b 417 1008 507 1001 464 1008 b 53 492 183 1008 53 824 b 417 -22 53 163 183 -22 z m 417 94 b 178 492 264 94 178 233 b 417 892 178 750 264 892 b 656 492 569 892 656 750 b 417 94 656 233 569 94 z "},"Ợ":{"ha":833,"x_min":0,"x_max":0,"o":"m 417 -22 b 781 492 650 -22 781 163 b 644 924 781 692 733 838 b 760 1058 714 935 760 975 b 740 1181 760 1103 749 1156 l 638 1181 b 657 1053 646 1147 657 1094 b 588 986 657 1003 629 986 l 544 986 b 417 1008 507 1001 464 1008 b 53 492 183 1008 53 824 b 417 -22 53 163 183 -22 z m 417 94 b 178 492 264 94 178 233 b 417 892 178 750 264 892 b 656 492 569 892 656 750 b 417 94 656 233 569 94 z m 356 -208 l 478 -208 l 478 -83 l 356 -83 z "},"Ờ":{"ha":833,"x_min":0,"x_max":0,"o":"m 364 1081 l 461 1081 l 369 1258 l 239 1258 z m 417 -22 b 781 492 650 -22 781 163 b 644 924 781 692 733 838 b 760 1058 714 935 760 975 b 740 1181 760 1103 749 1156 l 638 1181 b 657 1053 646 1147 657 1094 b 588 986 657 1003 629 986 l 544 986 b 417 1008 507 1001 464 1008 b 53 492 183 1008 53 824 b 417 -22 53 163 183 -22 z m 417 94 b 178 492 264 94 178 233 b 417 892 178 750 264 892 b 656 492 569 892 656 750 b 417 94 656 233 569 94 z "},"Ở":{"ha":833,"x_min":0,"x_max":0,"o":"m 444 1069 b 517 1197 478 1094 517 1133 b 389 1303 517 1267 478 1303 b 300 1292 347 1303 317 1297 l 300 1211 b 378 1222 317 1217 344 1222 b 428 1175 414 1222 428 1203 b 361 1069 428 1142 397 1106 z m 417 -22 b 781 492 650 -22 781 163 b 644 924 781 692 733 838 b 760 1058 714 935 760 975 b 740 1181 760 1103 749 1156 l 638 1181 b 657 1053 646 1147 657 1094 b 588 986 657 1003 629 986 l 544 986 b 417 1008 507 1001 464 1008 b 53 492 183 1008 53 824 b 417 -22 53 163 183 -22 z m 417 94 b 178 492 264 94 178 233 b 417 892 178 750 264 892 b 656 492 569 892 656 750 b 417 94 656 233 569 94 z "},"Ỡ":{"ha":833,"x_min":0,"x_max":0,"o":"m 489 1097 b 625 1264 568 1097 619 1158 l 553 1264 b 494 1172 547 1194 529 1172 b 425 1206 472 1172 454 1182 b 319 1250 393 1232 364 1250 b 186 1088 244 1250 189 1194 l 258 1088 b 319 1175 261 1154 286 1175 b 392 1139 347 1175 360 1165 b 489 1097 422 1114 453 1097 z m 417 -22 b 781 492 650 -22 781 163 b 644 924 781 692 733 838 b 760 1058 714 935 760 975 b 740 1181 760 1103 749 1156 l 638 1181 b 657 1053 646 1147 657 1094 b 588 986 657 1003 629 986 l 544 986 b 417 1008 507 1001 464 1008 b 53 492 183 1008 53 824 b 417 -22 53 163 183 -22 z m 417 94 b 178 492 264 94 178 233 b 417 892 178 750 264 892 b 656 492 569 892 656 750 b 417 94 656 233 569 94 z "},"Ő":{"ha":833,"x_min":0,"x_max":0,"o":"m 264 1078 l 361 1078 l 486 1256 l 356 1256 z m 458 1078 l 556 1078 l 681 1256 l 550 1256 z m 417 -22 b 781 492 650 -22 781 163 b 417 1008 781 824 650 1008 b 53 492 183 1008 53 824 b 417 -22 53 163 183 -22 z m 417 94 b 178 492 264 94 178 233 b 417 892 178 750 264 892 b 656 492 569 892 656 750 b 417 94 656 233 569 94 z "},"Ō":{"ha":833,"x_min":0,"x_max":0,"o":"m 229 1118 l 601 1118 l 601 1218 l 229 1218 z m 417 -22 b 781 492 650 -22 781 163 b 417 1008 781 824 650 1008 b 53 492 183 1008 53 824 b 417 -22 53 163 183 -22 z m 417 94 b 178 492 264 94 178 233 b 417 892 178 750 264 892 b 656 492 569 892 656 750 b 417 94 656 233 569 94 z "},"Ø":{"ha":833,"x_min":0,"x_max":0,"o":"m 56 -22 l 172 -22 l 211 43 b 417 -22 267 0 335 -22 b 781 492 650 -22 781 163 b 693 864 781 651 750 776 l 778 1008 l 661 1008 l 622 942 b 417 1008 567 986 499 1008 b 53 492 183 1008 53 824 b 140 122 53 333 83 208 z m 178 492 b 417 892 178 750 264 892 b 558 833 474 892 521 872 l 215 249 b 178 492 190 311 178 393 z m 417 94 b 275 151 360 94 313 114 l 618 738 b 656 492 643 674 656 592 b 417 94 656 233 569 94 z "},"Õ":{"ha":833,"x_min":0,"x_max":0,"o":"m 500 1097 b 636 1264 579 1097 631 1158 l 564 1264 b 506 1172 558 1194 540 1172 b 436 1206 483 1172 465 1182 b 331 1250 404 1232 375 1250 b 197 1088 256 1250 200 1194 l 269 1088 b 331 1175 272 1154 297 1175 b 403 1139 358 1175 371 1165 b 500 1097 433 1114 464 1097 z m 417 -22 b 781 492 650 -22 781 163 b 417 1008 781 824 650 1008 b 53 492 183 1008 53 824 b 417 -22 53 163 183 -22 z m 417 94 b 178 492 264 94 178 233 b 417 892 178 750 264 892 b 656 492 569 892 656 750 b 417 94 656 233 569 94 z "},"Œ":{"ha":833,"x_min":0,"x_max":0,"o":"m 294 -22 b 456 61 361 -22 414 8 l 456 0 l 819 0 l 819 117 l 575 117 l 575 438 l 792 438 l 792 551 l 575 551 l 575 869 l 808 869 l 808 986 l 456 986 l 456 924 b 294 1008 414 978 361 1008 b 14 492 115 1008 14 825 b 294 -22 14 158 115 -22 z m 294 94 b 136 492 176 94 136 233 b 294 892 136 753 176 892 b 453 492 413 892 453 753 b 294 94 453 233 413 94 z "},"P":{"ha":833,"x_min":0,"x_max":0,"o":"m 125 0 l 244 0 l 244 383 l 425 383 b 764 685 631 383 764 496 b 425 986 764 874 631 986 l 125 986 z m 244 500 l 244 869 l 411 869 b 639 685 567 869 639 804 b 411 500 639 565 567 500 z "},"Þ":{"ha":833,"x_min":0,"x_max":0,"o":"m 125 0 l 244 0 l 244 207 l 428 207 b 778 511 649 207 778 321 b 428 808 778 699 649 808 l 244 808 l 244 986 l 125 986 z m 428 692 b 653 511 578 692 653 632 b 428 324 653 388 578 324 l 244 324 l 244 692 z "},"Q":{"ha":833,"x_min":0,"x_max":0,"o":"m 417 -22 b 471 -18 436 -22 454 -21 l 528 -165 l 647 -165 l 578 15 b 781 492 710 83 781 249 b 417 1008 781 824 650 1008 b 53 492 183 1008 53 824 b 417 -22 53 163 183 -22 z m 417 94 b 178 492 264 94 178 233 b 417 892 178 750 264 892 b 656 492 569 892 656 750 b 533 129 656 310 613 186 l 467 303 l 347 303 l 428 94 b 417 94 424 94 421 94 z "},"R":{"ha":833,"x_min":0,"x_max":0,"o":"m 97 0 l 217 0 l 217 397 l 422 397 b 599 268 550 397 590 360 l 622 0 l 742 0 l 717 283 b 567 460 707 389 661 442 b 733 692 654 489 733 575 b 397 986 733 875 604 986 l 97 986 z m 217 514 l 217 869 l 397 869 b 608 692 533 869 608 806 b 397 514 608 578 533 514 z "},"Ŕ":{"ha":833,"x_min":0,"x_max":0,"o":"m 344 1081 l 442 1081 l 567 1258 l 436 1258 z m 97 0 l 217 0 l 217 397 l 422 397 b 599 268 550 397 590 360 l 622 0 l 742 0 l 717 283 b 567 460 707 389 661 442 b 733 692 654 489 733 575 b 397 986 733 875 604 986 l 97 986 z m 217 514 l 217 869 l 397 869 b 608 692 533 869 608 806 b 397 514 608 578 533 514 z "},"Ř":{"ha":833,"x_min":0,"x_max":0,"o":"m 203 1265 l 332 1081 l 463 1081 l 592 1265 l 494 1265 l 397 1140 l 300 1265 z m 97 0 l 217 0 l 217 397 l 422 397 b 599 268 550 397 590 360 l 622 0 l 742 0 l 717 283 b 567 460 707 389 661 442 b 733 692 654 489 733 575 b 397 986 733 875 604 986 l 97 986 z m 217 514 l 217 869 l 397 869 b 608 692 533 869 608 806 b 397 514 608 578 533 514 z "},"Ŗ":{"ha":833,"x_min":0,"x_max":0,"o":"m 97 0 l 217 0 l 217 397 l 422 397 b 599 268 550 397 590 360 l 622 0 l 742 0 l 717 283 b 567 460 707 389 661 442 b 733 692 654 489 733 575 b 397 986 733 875 604 986 l 97 986 z m 217 514 l 217 869 l 397 869 b 608 692 533 869 608 806 b 397 514 608 578 533 514 z m 325 -333 l 403 -333 l 492 -194 l 492 -75 l 353 -75 l 353 -200 l 400 -200 z "},"S":{"ha":833,"x_min":0,"x_max":0,"o":"m 432 -22 b 772 243 633 -22 772 86 b 446 556 772 406 688 489 b 210 733 260 607 210 640 b 410 892 210 828 288 892 b 629 686 543 892 613 806 l 754 694 b 413 1008 732 875 615 1008 b 85 728 210 1008 85 893 b 371 453 85 581 165 511 b 647 246 600 388 647 339 b 435 94 647 149 572 94 b 186 324 296 94 206 176 l 61 315 b 432 -22 78 115 224 -22 z "},"Ś":{"ha":833,"x_min":0,"x_max":0,"o":"m 363 1081 l 460 1081 l 585 1258 l 454 1258 z m 432 -22 b 772 243 633 -22 772 86 b 446 556 772 406 688 489 b 210 733 260 607 210 640 b 410 892 210 828 288 892 b 629 686 543 892 613 806 l 754 694 b 413 1008 732 875 615 1008 b 85 728 210 1008 85 893 b 371 453 85 581 165 511 b 647 246 600 388 647 339 b 435 94 647 149 572 94 b 186 324 296 94 206 176 l 61 315 b 432 -22 78 115 224 -22 z "},"Š":{"ha":833,"x_min":0,"x_max":0,"o":"m 221 1265 l 350 1081 l 481 1081 l 610 1265 l 513 1265 l 415 1140 l 318 1265 z m 432 -22 b 772 243 633 -22 772 86 b 446 556 772 406 688 489 b 210 733 260 607 210 640 b 410 892 210 828 288 892 b 629 686 543 892 613 806 l 754 694 b 413 1008 732 875 615 1008 b 85 728 210 1008 85 893 b 371 453 85 581 165 511 b 647 246 600 388 647 339 b 435 94 647 149 572 94 b 186 324 296 94 206 176 l 61 315 b 432 -22 78 115 224 -22 z "},"Ş":{"ha":833,"x_min":0,"x_max":0,"o":"m 403 -306 b 558 -175 493 -306 558 -253 b 425 -50 558 -103 515 -54 l 446 -22 b 772 243 640 -17 772 90 b 446 556 772 406 688 489 b 210 733 260 607 210 640 b 410 892 210 828 288 892 b 629 686 543 892 613 806 l 754 694 b 413 1008 732 875 615 1008 b 85 728 210 1008 85 893 b 371 453 85 581 165 511 b 647 246 600 388 647 339 b 435 94 647 149 572 94 b 186 324 296 94 206 176 l 61 315 b 364 -17 76 138 192 10 l 331 -69 l 369 -111 b 475 -172 458 -111 475 -137 b 400 -228 475 -207 447 -228 b 311 -169 354 -228 328 -211 l 240 -197 b 403 -306 260 -258 314 -306 z "},"Ŝ":{"ha":833,"x_min":0,"x_max":0,"o":"m 219 1081 l 317 1081 l 414 1206 l 511 1081 l 608 1081 l 479 1265 l 349 1265 z m 432 -22 b 772 243 633 -22 772 86 b 446 556 772 406 688 489 b 210 733 260 607 210 640 b 410 892 210 828 288 892 b 629 686 543 892 613 806 l 754 694 b 413 1008 732 875 615 1008 b 85 728 210 1008 85 893 b 371 453 85 581 165 511 b 647 246 600 388 647 339 b 435 94 647 149 572 94 b 186 324 296 94 206 176 l 61 315 b 432 -22 78 115 224 -22 z "},"Ș":{"ha":833,"x_min":0,"x_max":0,"o":"m 432 -22 b 772 243 633 -22 772 86 b 446 556 772 406 688 489 b 210 733 260 607 210 640 b 410 892 210 828 288 892 b 629 686 543 892 613 806 l 754 694 b 413 1008 732 875 615 1008 b 85 728 210 1008 85 893 b 371 453 85 581 165 511 b 647 246 600 388 647 339 b 435 94 647 149 572 94 b 186 324 296 94 206 176 l 61 315 b 432 -22 78 115 224 -22 z m 319 -333 l 397 -333 l 486 -194 l 486 -75 l 347 -75 l 347 -200 l 394 -200 z "},"ẞ":{"ha":833,"x_min":0,"x_max":0,"o":"m 50 0 l 169 0 l 169 693 b 331 869 169 806 229 869 l 581 869 l 299 599 l 299 490 l 418 490 b 675 301 589 490 675 421 b 449 117 675 189 589 117 l 263 117 l 263 0 l 449 0 b 799 307 663 0 799 125 b 426 592 799 479 649 596 l 732 858 l 732 986 l 328 986 b 50 696 157 986 50 875 z "},"T":{"ha":833,"x_min":0,"x_max":0,"o":"m 357 0 l 476 0 l 476 869 l 778 869 l 778 986 l 56 986 l 56 869 l 357 869 z "},"Ŧ":{"ha":833,"x_min":0,"x_max":0,"o":"m 357 0 l 476 0 l 476 429 l 639 429 l 639 538 l 476 538 l 476 869 l 778 869 l 778 986 l 56 986 l 56 869 l 357 869 l 357 538 l 194 538 l 194 429 l 357 429 z "},"Ť":{"ha":833,"x_min":0,"x_max":0,"o":"m 222 1265 l 351 1081 l 482 1081 l 611 1265 l 514 1265 l 417 1140 l 319 1265 z m 357 0 l 476 0 l 476 869 l 778 869 l 778 986 l 56 986 l 56 869 l 357 869 z "},"Ţ":{"ha":833,"x_min":0,"x_max":0,"o":"m 357 0 l 375 0 l 331 -69 l 369 -111 b 475 -172 458 -111 475 -137 b 400 -228 475 -207 447 -228 b 311 -169 354 -228 328 -211 l 240 -197 b 403 -306 260 -258 314 -306 b 558 -175 493 -306 558 -253 b 425 -50 558 -103 515 -54 l 463 0 l 476 0 l 476 869 l 778 869 l 778 986 l 56 986 l 56 869 l 357 869 z "},"Ț":{"ha":833,"x_min":0,"x_max":0,"o":"m 357 0 l 476 0 l 476 869 l 778 869 l 778 986 l 56 986 l 56 869 l 357 869 z m 319 -333 l 397 -333 l 486 -194 l 486 -75 l 347 -75 l 347 -200 l 394 -200 z "},"U":{"ha":833,"x_min":0,"x_max":0,"o":"m 417 -22 b 750 344 624 -22 750 118 l 750 986 l 631 986 l 631 344 b 417 94 631 182 556 94 b 203 344 278 94 203 182 l 203 986 l 83 986 l 83 344 b 417 -22 83 118 210 -22 z "},"Ú":{"ha":833,"x_min":0,"x_max":0,"o":"m 364 1081 l 461 1081 l 586 1258 l 456 1258 z m 417 -22 b 750 344 624 -22 750 118 l 750 986 l 631 986 l 631 344 b 417 94 631 182 556 94 b 203 344 278 94 203 182 l 203 986 l 83 986 l 83 344 b 417 -22 83 118 210 -22 z "},"Ŭ":{"ha":833,"x_min":0,"x_max":0,"o":"m 417 1088 b 611 1265 531 1088 606 1157 l 531 1265 b 417 1174 522 1201 481 1174 b 303 1265 353 1174 311 1201 l 222 1265 b 417 1088 228 1157 303 1088 z m 417 -22 b 750 344 624 -22 750 118 l 750 986 l 631 986 l 631 344 b 417 94 631 182 556 94 b 203 344 278 94 203 182 l 203 986 l 83 986 l 83 344 b 417 -22 83 118 210 -22 z "},"Û":{"ha":833,"x_min":0,"x_max":0,"o":"m 221 1081 l 318 1081 l 415 1206 l 513 1081 l 610 1081 l 481 1265 l 350 1265 z m 417 -22 b 750 344 624 -22 750 118 l 750 986 l 631 986 l 631 344 b 417 94 631 182 556 94 b 203 344 278 94 203 182 l 203 986 l 83 986 l 83 344 b 417 -22 83 118 210 -22 z "},"Ü":{"ha":833,"x_min":0,"x_max":0,"o":"m 235 1101 l 357 1101 l 357 1238 l 235 1238 z m 476 1101 l 599 1101 l 599 1238 l 476 1238 z m 417 -22 b 750 344 624 -22 750 118 l 750 986 l 631 986 l 631 344 b 417 94 631 182 556 94 b 203 344 278 94 203 182 l 203 986 l 83 986 l 83 344 b 417 -22 83 118 210 -22 z "},"Ụ":{"ha":833,"x_min":0,"x_max":0,"o":"m 417 -22 b 750 344 624 -22 750 118 l 750 986 l 631 986 l 631 344 b 417 94 631 182 556 94 b 203 344 278 94 203 182 l 203 986 l 83 986 l 83 344 b 417 -22 83 118 210 -22 z m 356 -208 l 478 -208 l 478 -83 l 356 -83 z "},"Ù":{"ha":833,"x_min":0,"x_max":0,"o":"m 375 1081 l 472 1081 l 381 1258 l 250 1258 z m 417 -22 b 750 344 624 -22 750 118 l 750 986 l 631 986 l 631 344 b 417 94 631 182 556 94 b 203 344 278 94 203 182 l 203 986 l 83 986 l 83 344 b 417 -22 83 118 210 -22 z "},"Ủ":{"ha":833,"x_min":0,"x_max":0,"o":"m 456 1069 b 528 1197 489 1094 528 1133 b 400 1303 528 1267 489 1303 b 311 1292 358 1303 328 1297 l 311 1211 b 389 1222 328 1217 356 1222 b 439 1175 425 1222 439 1203 b 372 1069 439 1142 408 1106 z m 417 -22 b 750 344 624 -22 750 118 l 750 986 l 631 986 l 631 344 b 417 94 631 182 556 94 b 203 344 278 94 203 182 l 203 986 l 83 986 l 83 344 b 417 -22 83 118 210 -22 z "},"Ư":{"ha":833,"x_min":0,"x_max":0,"o":"m 353 -22 b 681 344 554 -22 681 118 l 681 921 b 808 1058 757 931 808 971 b 789 1181 808 1103 797 1156 l 686 1181 b 706 1053 694 1147 706 1094 b 636 986 706 1003 678 986 l 561 986 l 561 344 b 353 94 561 182 486 94 b 144 344 219 94 144 182 l 144 986 l 25 986 l 25 344 b 353 -22 25 118 151 -22 z "},"Ứ":{"ha":833,"x_min":0,"x_max":0,"o":"m 300 1081 l 397 1081 l 522 1258 l 392 1258 z m 353 -22 b 681 344 554 -22 681 118 l 681 921 b 808 1058 757 931 808 971 b 789 1181 808 1103 797 1156 l 686 1181 b 706 1053 694 1147 706 1094 b 636 986 706 1003 678 986 l 561 986 l 561 344 b 353 94 561 182 486 94 b 144 344 219 94 144 182 l 144 986 l 25 986 l 25 344 b 353 -22 25 118 151 -22 z "},"Ự":{"ha":833,"x_min":0,"x_max":0,"o":"m 353 -22 b 681 344 554 -22 681 118 l 681 921 b 808 1058 757 931 808 971 b 789 1181 808 1103 797 1156 l 686 1181 b 706 1053 694 1147 706 1094 b 636 986 706 1003 678 986 l 561 986 l 561 344 b 353 94 561 182 486 94 b 144 344 219 94 144 182 l 144 986 l 25 986 l 25 344 b 353 -22 25 118 151 -22 z m 292 -208 l 414 -208 l 414 -83 l 292 -83 z "},"Ừ":{"ha":833,"x_min":0,"x_max":0,"o":"m 311 1081 l 408 1081 l 317 1258 l 186 1258 z m 353 -22 b 681 344 554 -22 681 118 l 681 921 b 808 1058 757 931 808 971 b 789 1181 808 1103 797 1156 l 686 1181 b 706 1053 694 1147 706 1094 b 636 986 706 1003 678 986 l 561 986 l 561 344 b 353 94 561 182 486 94 b 144 344 219 94 144 182 l 144 986 l 25 986 l 25 344 b 353 -22 25 118 151 -22 z "},"Ử":{"ha":833,"x_min":0,"x_max":0,"o":"m 392 1069 b 464 1197 425 1094 464 1133 b 336 1303 464 1267 425 1303 b 247 1292 294 1303 264 1297 l 247 1211 b 325 1222 264 1217 292 1222 b 375 1175 361 1222 375 1203 b 308 1069 375 1142 344 1106 z m 353 -22 b 681 344 554 -22 681 118 l 681 921 b 808 1058 757 931 808 971 b 789 1181 808 1103 797 1156 l 686 1181 b 706 1053 694 1147 706 1094 b 636 986 706 1003 678 986 l 561 986 l 561 344 b 353 94 561 182 486 94 b 144 344 219 94 144 182 l 144 986 l 25 986 l 25 344 b 353 -22 25 118 151 -22 z "},"Ữ":{"ha":833,"x_min":0,"x_max":0,"o":"m 436 1097 b 572 1264 515 1097 567 1158 l 500 1264 b 442 1172 494 1194 476 1172 b 372 1206 419 1172 401 1182 b 267 1250 340 1232 311 1250 b 133 1088 192 1250 136 1194 l 206 1088 b 267 1175 208 1154 233 1175 b 339 1139 294 1175 307 1165 b 436 1097 369 1114 400 1097 z m 353 -22 b 681 344 554 -22 681 118 l 681 921 b 808 1058 757 931 808 971 b 789 1181 808 1103 797 1156 l 686 1181 b 706 1053 694 1147 706 1094 b 636 986 706 1003 678 986 l 561 986 l 561 344 b 353 94 561 182 486 94 b 144 344 219 94 144 182 l 144 986 l 25 986 l 25 344 b 353 -22 25 118 151 -22 z "},"Ű":{"ha":833,"x_min":0,"x_max":0,"o":"m 264 1078 l 361 1078 l 486 1256 l 356 1256 z m 458 1078 l 556 1078 l 681 1256 l 550 1256 z m 417 -22 b 750 344 624 -22 750 118 l 750 986 l 631 986 l 631 344 b 417 94 631 182 556 94 b 203 344 278 94 203 182 l 203 986 l 83 986 l 83 344 b 417 -22 83 118 210 -22 z "},"Ū":{"ha":833,"x_min":0,"x_max":0,"o":"m 229 1118 l 601 1118 l 601 1218 l 229 1218 z m 417 -22 b 750 344 624 -22 750 118 l 750 986 l 631 986 l 631 344 b 417 94 631 182 556 94 b 203 344 278 94 203 182 l 203 986 l 83 986 l 83 344 b 417 -22 83 118 210 -22 z "},"Ų":{"ha":833,"x_min":0,"x_max":0,"o":"m 417 -22 l 422 -22 l 407 -42 b 350 -181 368 -90 350 -133 b 475 -292 350 -250 397 -292 b 594 -256 528 -292 572 -278 l 561 -178 b 497 -197 544 -192 517 -197 b 456 -156 471 -197 456 -183 b 499 -62 456 -133 463 -110 l 547 0 b 750 344 675 47 750 171 l 750 986 l 631 986 l 631 344 b 417 94 631 182 556 94 b 203 344 278 94 203 182 l 203 986 l 83 986 l 83 344 b 417 -22 83 118 210 -22 z "},"Ů":{"ha":833,"x_min":0,"x_max":0,"o":"m 417 1050 b 544 1178 489 1050 544 1106 b 417 1306 544 1250 489 1306 b 289 1178 344 1306 289 1250 b 417 1050 289 1106 344 1050 z m 417 1119 b 358 1178 383 1119 358 1144 b 417 1236 358 1211 383 1236 b 475 1178 450 1236 475 1211 b 417 1119 475 1144 450 1119 z m 417 -22 b 750 344 624 -22 750 118 l 750 986 l 631 986 l 631 344 b 417 94 631 182 556 94 b 203 344 278 94 203 182 l 203 986 l 83 986 l 83 344 b 417 -22 83 118 210 -22 z "},"Ũ":{"ha":833,"x_min":0,"x_max":0,"o":"m 500 1097 b 636 1264 579 1097 631 1158 l 564 1264 b 506 1172 558 1194 540 1172 b 436 1206 483 1172 465 1182 b 331 1250 404 1232 375 1250 b 197 1088 256 1250 200 1194 l 269 1088 b 331 1175 272 1154 297 1175 b 403 1139 358 1175 371 1165 b 500 1097 433 1114 464 1097 z m 417 -22 b 750 344 624 -22 750 118 l 750 986 l 631 986 l 631 344 b 417 94 631 182 556 94 b 203 344 278 94 203 182 l 203 986 l 83 986 l 83 344 b 417 -22 83 118 210 -22 z "},"V":{"ha":833,"x_min":0,"x_max":0,"o":"m 339 0 l 494 0 l 792 986 l 664 986 l 417 135 l 169 986 l 42 986 z "},"W":{"ha":833,"x_min":0,"x_max":0,"o":"m 150 0 l 331 0 l 417 651 l 503 0 l 683 0 l 792 986 l 667 986 l 581 129 l 481 875 l 353 875 l 253 129 l 167 986 l 42 986 z "},"Ẃ":{"ha":833,"x_min":0,"x_max":0,"o":"m 364 1081 l 461 1081 l 586 1258 l 456 1258 z m 150 0 l 331 0 l 417 651 l 503 0 l 683 0 l 792 986 l 667 986 l 581 129 l 481 875 l 353 875 l 253 129 l 167 986 l 42 986 z "},"Ŵ":{"ha":833,"x_min":0,"x_max":0,"o":"m 221 1081 l 318 1081 l 415 1206 l 513 1081 l 610 1081 l 481 1265 l 350 1265 z m 150 0 l 331 0 l 417 651 l 503 0 l 683 0 l 792 986 l 667 986 l 581 129 l 481 875 l 353 875 l 253 129 l 167 986 l 42 986 z "},"Ẅ":{"ha":833,"x_min":0,"x_max":0,"o":"m 235 1101 l 357 1101 l 357 1238 l 235 1238 z m 476 1101 l 599 1101 l 599 1238 l 476 1238 z m 150 0 l 331 0 l 417 651 l 503 0 l 683 0 l 792 986 l 667 986 l 581 129 l 481 875 l 353 875 l 253 129 l 167 986 l 42 986 z "},"Ẁ":{"ha":833,"x_min":0,"x_max":0,"o":"m 375 1081 l 472 1081 l 381 1258 l 250 1258 z m 150 0 l 331 0 l 417 651 l 503 0 l 683 0 l 792 986 l 667 986 l 581 129 l 481 875 l 353 875 l 253 129 l 167 986 l 42 986 z "},"X":{"ha":833,"x_min":0,"x_max":0,"o":"m 69 0 l 206 0 l 415 401 l 625 0 l 764 0 l 492 494 l 758 986 l 622 986 l 418 590 l 214 986 l 75 986 l 342 496 z "},"Y":{"ha":833,"x_min":0,"x_max":0,"o":"m 358 0 l 478 0 l 478 403 l 778 986 l 642 986 l 417 525 l 192 986 l 56 986 l 358 403 z "},"Ý":{"ha":833,"x_min":0,"x_max":0,"o":"m 364 1081 l 461 1081 l 586 1258 l 456 1258 z m 358 0 l 478 0 l 478 403 l 778 986 l 642 986 l 417 525 l 192 986 l 56 986 l 358 403 z "},"Ŷ":{"ha":833,"x_min":0,"x_max":0,"o":"m 221 1081 l 318 1081 l 415 1206 l 513 1081 l 610 1081 l 481 1265 l 350 1265 z m 358 0 l 478 0 l 478 403 l 778 986 l 642 986 l 417 525 l 192 986 l 56 986 l 358 403 z "},"Ÿ":{"ha":833,"x_min":0,"x_max":0,"o":"m 235 1101 l 357 1101 l 357 1238 l 235 1238 z m 476 1101 l 599 1101 l 599 1238 l 476 1238 z m 358 0 l 478 0 l 478 403 l 778 986 l 642 986 l 417 525 l 192 986 l 56 986 l 358 403 z "},"Ỵ":{"ha":833,"x_min":0,"x_max":0,"o":"m 358 0 l 478 0 l 478 403 l 778 986 l 642 986 l 417 525 l 192 986 l 56 986 l 358 403 z m 356 -208 l 478 -208 l 478 -83 l 356 -83 z "},"Ỳ":{"ha":833,"x_min":0,"x_max":0,"o":"m 375 1081 l 472 1081 l 381 1258 l 250 1258 z m 358 0 l 478 0 l 478 403 l 778 986 l 642 986 l 417 525 l 192 986 l 56 986 l 358 403 z "},"Ỷ":{"ha":833,"x_min":0,"x_max":0,"o":"m 456 1069 b 528 1197 489 1094 528 1133 b 400 1303 528 1267 489 1303 b 311 1292 358 1303 328 1297 l 311 1211 b 389 1222 328 1217 356 1222 b 439 1175 425 1222 439 1203 b 372 1069 439 1142 408 1106 z m 358 0 l 478 0 l 478 403 l 778 986 l 642 986 l 417 525 l 192 986 l 56 986 l 358 403 z "},"Ỹ":{"ha":833,"x_min":0,"x_max":0,"o":"m 500 1097 b 636 1264 579 1097 631 1158 l 564 1264 b 506 1172 558 1194 540 1172 b 436 1206 483 1172 465 1182 b 331 1250 404 1232 375 1250 b 197 1088 256 1250 200 1194 l 269 1088 b 331 1175 272 1154 297 1175 b 403 1139 358 1175 371 1165 b 500 1097 433 1114 464 1097 z m 358 0 l 478 0 l 478 403 l 778 986 l 642 986 l 417 525 l 192 986 l 56 986 l 358 403 z "},"Z":{"ha":833,"x_min":0,"x_max":0,"o":"m 69 0 l 764 0 l 764 117 l 203 117 l 753 867 l 753 986 l 94 986 l 94 869 l 619 869 l 69 119 z "},"Ź":{"ha":833,"x_min":0,"x_max":0,"o":"m 364 1081 l 461 1081 l 586 1258 l 456 1258 z m 69 0 l 764 0 l 764 117 l 203 117 l 753 867 l 753 986 l 94 986 l 94 869 l 619 869 l 69 119 z "},"Ž":{"ha":833,"x_min":0,"x_max":0,"o":"m 222 1265 l 351 1081 l 482 1081 l 611 1265 l 514 1265 l 417 1140 l 319 1265 z m 69 0 l 764 0 l 764 117 l 203 117 l 753 867 l 753 986 l 94 986 l 94 869 l 619 869 l 69 119 z "},"Ż":{"ha":833,"x_min":0,"x_max":0,"o":"m 354 1101 l 476 1101 l 476 1238 l 354 1238 z m 69 0 l 764 0 l 764 117 l 203 117 l 753 867 l 753 986 l 94 986 l 94 869 l 619 869 l 69 119 z "},"Ꞌ":{"ha":833,"x_min":0,"x_max":0,"o":"m 375 525 l 458 525 l 478 797 l 478 986 l 356 986 l 356 797 z "},"a":{"ha":833,"x_min":0,"x_max":0,"o":"m 319 -17 b 560 104 425 -17 519 32 l 561 97 b 703 -3 578 26 625 -3 b 764 0 725 -3 753 -1 l 764 103 l 717 103 b 672 147 686 103 672 114 l 672 453 b 392 753 672 639 569 753 b 89 519 225 753 117 658 l 213 510 b 392 642 235 594 289 642 b 556 456 497 642 556 581 l 308 406 b 75 183 147 374 75 308 b 319 -17 75 64 181 -17 z m 331 86 b 197 194 247 86 197 125 b 331 311 197 256 231 292 l 556 356 l 556 292 b 331 86 556 169 481 86 z "},"á":{"ha":833,"x_min":0,"x_max":0,"o":"m 342 831 l 439 831 l 564 1008 l 433 1008 z m 319 -17 b 560 104 425 -17 519 32 l 561 97 b 703 -3 578 26 625 -3 b 764 0 725 -3 753 -1 l 764 103 l 717 103 b 672 147 686 103 672 114 l 672 453 b 392 753 672 639 569 753 b 89 519 225 753 117 658 l 213 510 b 392 642 235 594 289 642 b 556 456 497 642 556 581 l 308 406 b 75 183 147 374 75 308 b 319 -17 75 64 181 -17 z m 331 86 b 197 194 247 86 197 125 b 331 311 197 256 231 292 l 556 356 l 556 292 b 331 86 556 169 481 86 z "},"ă":{"ha":833,"x_min":0,"x_max":0,"o":"m 394 838 b 589 1015 508 838 583 907 l 508 1015 b 394 924 500 951 458 924 b 281 1015 331 924 289 951 l 200 1015 b 394 838 206 907 281 838 z m 319 -17 b 560 104 425 -17 519 32 l 561 97 b 703 -3 578 26 625 -3 b 764 0 725 -3 753 -1 l 764 103 l 717 103 b 672 147 686 103 672 114 l 672 453 b 392 753 672 639 569 753 b 89 519 225 753 117 658 l 213 510 b 392 642 235 594 289 642 b 556 456 497 642 556 581 l 308 406 b 75 183 147 374 75 308 b 319 -17 75 64 181 -17 z m 331 86 b 197 194 247 86 197 125 b 331 311 197 256 231 292 l 556 356 l 556 292 b 331 86 556 169 481 86 z "},"ắ":{"ha":833,"x_min":0,"x_max":0,"o":"m 350 1015 l 444 1015 l 536 1165 l 417 1165 z m 393 824 b 588 1001 507 824 582 893 l 507 1001 b 393 910 499 938 457 910 b 279 1001 329 910 288 938 l 199 1001 b 393 824 204 893 279 824 z m 319 -17 b 560 104 425 -17 519 32 l 561 97 b 703 -3 578 26 625 -3 b 764 0 725 -3 753 -1 l 764 103 l 717 103 b 672 147 686 103 672 114 l 672 453 b 392 753 672 639 569 753 b 89 519 225 753 117 658 l 213 510 b 392 642 235 594 289 642 b 556 456 497 642 556 581 l 308 406 b 75 183 147 374 75 308 b 319 -17 75 64 181 -17 z m 331 86 b 197 194 247 86 197 125 b 331 311 197 256 231 292 l 556 356 l 556 292 b 331 86 556 169 481 86 z "},"ặ":{"ha":833,"x_min":0,"x_max":0,"o":"m 394 838 b 589 1015 508 838 583 907 l 508 1015 b 394 924 500 951 458 924 b 281 1015 331 924 289 951 l 200 1015 b 394 838 206 907 281 838 z m 319 -17 b 560 104 425 -17 519 32 l 561 97 b 703 -3 578 26 625 -3 b 764 0 725 -3 753 -1 l 764 103 l 717 103 b 672 147 686 103 672 114 l 672 453 b 392 753 672 639 569 753 b 89 519 225 753 117 658 l 213 510 b 392 642 235 594 289 642 b 556 456 497 642 556 581 l 308 406 b 75 183 147 374 75 308 b 319 -17 75 64 181 -17 z m 331 86 b 197 194 247 86 197 125 b 331 311 197 256 231 292 l 556 356 l 556 292 b 331 86 556 169 481 86 z m 326 -208 l 449 -208 l 449 -83 l 326 -83 z "},"ằ":{"ha":833,"x_min":0,"x_max":0,"o":"m 350 1015 l 444 1015 l 378 1165 l 258 1165 z m 394 824 b 589 1001 508 824 583 893 l 508 1001 b 394 910 500 938 458 910 b 281 1001 331 910 289 938 l 200 1001 b 394 824 206 893 281 824 z m 319 -17 b 560 104 425 -17 519 32 l 561 97 b 703 -3 578 26 625 -3 b 764 0 725 -3 753 -1 l 764 103 l 717 103 b 672 147 686 103 672 114 l 672 453 b 392 753 672 639 569 753 b 89 519 225 753 117 658 l 213 510 b 392 642 235 594 289 642 b 556 456 497 642 556 581 l 308 406 b 75 183 147 374 75 308 b 319 -17 75 64 181 -17 z m 331 86 b 197 194 247 86 197 125 b 331 311 197 256 231 292 l 556 356 l 556 292 b 331 86 556 169 481 86 z "},"ẳ":{"ha":833,"x_min":0,"x_max":0,"o":"m 426 1004 b 492 1119 457 1026 492 1061 b 376 1214 492 1182 457 1214 b 297 1204 339 1214 313 1210 l 297 1132 b 367 1142 313 1136 338 1142 b 413 1099 400 1142 413 1124 b 351 1004 413 1069 385 1036 z m 394 838 b 589 1015 508 838 583 907 l 508 1015 b 394 924 500 951 458 924 b 281 1015 331 924 289 951 l 200 1015 b 394 838 206 907 281 838 z m 319 -17 b 560 104 425 -17 519 32 l 561 97 b 703 -3 578 26 625 -3 b 764 0 725 -3 753 -1 l 764 103 l 717 103 b 672 147 686 103 672 114 l 672 453 b 392 753 672 639 569 753 b 89 519 225 753 117 658 l 213 510 b 392 642 235 594 289 642 b 556 456 497 642 556 581 l 308 406 b 75 183 147 374 75 308 b 319 -17 75 64 181 -17 z m 331 86 b 197 194 247 86 197 125 b 331 311 197 256 231 292 l 556 356 l 556 292 b 331 86 556 169 481 86 z "},"ẵ":{"ha":833,"x_min":0,"x_max":0,"o":"m 472 1063 b 601 1219 547 1063 597 1121 l 529 1219 b 478 1139 524 1154 511 1139 b 413 1171 457 1139 440 1149 b 314 1207 382 1194 356 1207 b 186 1054 243 1207 189 1154 l 258 1054 b 314 1131 261 1117 282 1131 b 382 1097 339 1131 351 1122 b 472 1063 410 1074 439 1063 z m 396 824 b 590 1001 510 824 585 893 l 510 1001 b 396 910 501 938 460 910 b 282 1001 332 910 290 938 l 201 1001 b 396 824 207 893 282 824 z m 319 -17 b 560 104 425 -17 519 32 l 561 97 b 703 -3 578 26 625 -3 b 764 0 725 -3 753 -1 l 764 103 l 717 103 b 672 147 686 103 672 114 l 672 453 b 392 753 672 639 569 753 b 89 519 225 753 117 658 l 213 510 b 392 642 235 594 289 642 b 556 456 497 642 556 581 l 308 406 b 75 183 147 374 75 308 b 319 -17 75 64 181 -17 z m 331 86 b 197 194 247 86 197 125 b 331 311 197 256 231 292 l 556 356 l 556 292 b 331 86 556 169 481 86 z "},"ǎ":{"ha":833,"x_min":0,"x_max":0,"o":"m 200 1015 l 329 831 l 460 831 l 589 1015 l 492 1015 l 394 890 l 297 1015 z m 319 -17 b 560 104 425 -17 519 32 l 561 97 b 703 -3 578 26 625 -3 b 764 0 725 -3 753 -1 l 764 103 l 717 103 b 672 147 686 103 672 114 l 672 453 b 392 753 672 639 569 753 b 89 519 225 753 117 658 l 213 510 b 392 642 235 594 289 642 b 556 456 497 642 556 581 l 308 406 b 75 183 147 374 75 308 b 319 -17 75 64 181 -17 z m 331 86 b 197 194 247 86 197 125 b 331 311 197 256 231 292 l 556 356 l 556 292 b 331 86 556 169 481 86 z "},"â":{"ha":833,"x_min":0,"x_max":0,"o":"m 199 831 l 296 831 l 393 956 l 490 831 l 588 831 l 458 1015 l 328 1015 z m 319 -17 b 560 104 425 -17 519 32 l 561 97 b 703 -3 578 26 625 -3 b 764 0 725 -3 753 -1 l 764 103 l 717 103 b 672 147 686 103 672 114 l 672 453 b 392 753 672 639 569 753 b 89 519 225 753 117 658 l 213 510 b 392 642 235 594 289 642 b 556 456 497 642 556 581 l 308 406 b 75 183 147 374 75 308 b 319 -17 75 64 181 -17 z m 331 86 b 197 194 247 86 197 125 b 331 311 197 256 231 292 l 556 356 l 556 292 b 331 86 556 169 481 86 z "},"ấ":{"ha":833,"x_min":0,"x_max":0,"o":"m 513 958 l 610 958 l 715 1136 l 585 1136 z m 204 817 l 301 817 l 394 922 l 488 817 l 585 817 l 460 986 l 329 986 z m 319 -17 b 560 104 425 -17 519 32 l 561 97 b 703 -3 578 26 625 -3 b 764 0 725 -3 753 -1 l 764 103 l 717 103 b 672 147 686 103 672 114 l 672 453 b 392 753 672 639 569 753 b 89 519 225 753 117 658 l 213 510 b 392 642 235 594 289 642 b 556 456 497 642 556 581 l 308 406 b 75 183 147 374 75 308 b 319 -17 75 64 181 -17 z m 331 86 b 197 194 247 86 197 125 b 331 311 197 256 231 292 l 556 356 l 556 292 b 331 86 556 169 481 86 z "},"ậ":{"ha":833,"x_min":0,"x_max":0,"o":"m 199 831 l 296 831 l 393 956 l 490 831 l 588 831 l 458 1015 l 328 1015 z m 319 -17 b 560 104 425 -17 519 32 l 561 97 b 703 -3 578 26 625 -3 b 764 0 725 -3 753 -1 l 764 103 l 717 103 b 672 147 686 103 672 114 l 672 453 b 392 753 672 639 569 753 b 89 519 225 753 117 658 l 213 510 b 392 642 235 594 289 642 b 556 456 497 642 556 581 l 308 406 b 75 183 147 374 75 308 b 319 -17 75 64 181 -17 z m 331 86 b 197 194 247 86 197 125 b 331 311 197 256 231 292 l 556 356 l 556 292 b 331 86 556 169 481 86 z m 326 -208 l 449 -208 l 449 -83 l 326 -83 z "},"ầ":{"ha":833,"x_min":0,"x_max":0,"o":"m 576 958 l 674 958 l 601 1136 l 471 1136 z m 204 817 l 301 817 l 394 922 l 488 817 l 585 817 l 460 986 l 329 986 z m 319 -17 b 560 104 425 -17 519 32 l 561 97 b 703 -3 578 26 625 -3 b 764 0 725 -3 753 -1 l 764 103 l 717 103 b 672 147 686 103 672 114 l 672 453 b 392 753 672 639 569 753 b 89 519 225 753 117 658 l 213 510 b 392 642 235 594 289 642 b 556 456 497 642 556 581 l 308 406 b 75 183 147 374 75 308 b 319 -17 75 64 181 -17 z m 331 86 b 197 194 247 86 197 125 b 331 311 197 256 231 292 l 556 356 l 556 292 b 331 86 556 169 481 86 z "},"ẩ":{"ha":833,"x_min":0,"x_max":0,"o":"m 506 949 l 581 949 b 646 1063 611 971 646 1004 b 531 1158 646 1125 611 1158 b 451 1149 493 1158 465 1154 l 451 1076 b 521 1086 465 1081 490 1086 b 565 1047 553 1086 565 1069 b 506 949 565 1015 539 981 z m 204 817 l 301 817 l 394 922 l 488 817 l 585 817 l 460 986 l 329 986 z m 319 -17 b 560 104 425 -17 519 32 l 561 97 b 703 -3 578 26 625 -3 b 764 0 725 -3 753 -1 l 764 103 l 717 103 b 672 147 686 103 672 114 l 672 453 b 392 753 672 639 569 753 b 89 519 225 753 117 658 l 213 510 b 392 642 235 594 289 642 b 556 456 497 642 556 581 l 308 406 b 75 183 147 374 75 308 b 319 -17 75 64 181 -17 z m 331 86 b 197 194 247 86 197 125 b 331 311 197 256 231 292 l 556 356 l 556 292 b 331 86 556 169 481 86 z "},"ẫ":{"ha":833,"x_min":0,"x_max":0,"o":"m 475 1035 b 603 1192 550 1035 600 1092 l 531 1192 b 481 1111 525 1126 514 1111 b 415 1143 460 1111 443 1121 b 314 1179 385 1167 358 1179 b 189 1026 246 1179 192 1129 l 261 1026 b 314 1103 264 1089 285 1103 b 385 1069 342 1103 354 1094 b 475 1035 413 1046 442 1035 z m 206 815 l 303 815 l 396 921 l 489 815 l 586 815 l 461 986 l 331 986 z m 319 -17 b 560 104 425 -17 519 32 l 561 97 b 703 -3 578 26 625 -3 b 764 0 725 -3 753 -1 l 764 103 l 717 103 b 672 147 686 103 672 114 l 672 453 b 392 753 672 639 569 753 b 89 519 225 753 117 658 l 213 510 b 392 642 235 594 289 642 b 556 456 497 642 556 581 l 308 406 b 75 183 147 374 75 308 b 319 -17 75 64 181 -17 z m 331 86 b 197 194 247 86 197 125 b 331 311 197 256 231 292 l 556 356 l 556 292 b 331 86 556 169 481 86 z "},"ä":{"ha":833,"x_min":0,"x_max":0,"o":"m 213 851 l 335 851 l 335 988 l 213 988 z m 454 851 l 576 851 l 576 988 l 454 988 z m 319 -17 b 560 104 425 -17 519 32 l 561 97 b 703 -3 578 26 625 -3 b 764 0 725 -3 753 -1 l 764 103 l 717 103 b 672 147 686 103 672 114 l 672 453 b 392 753 672 639 569 753 b 89 519 225 753 117 658 l 213 510 b 392 642 235 594 289 642 b 556 456 497 642 556 581 l 308 406 b 75 183 147 374 75 308 b 319 -17 75 64 181 -17 z m 331 86 b 197 194 247 86 197 125 b 331 311 197 256 231 292 l 556 356 l 556 292 b 331 86 556 169 481 86 z "},"ạ":{"ha":833,"x_min":0,"x_max":0,"o":"m 319 -17 b 560 104 425 -17 519 32 l 561 97 b 703 -3 578 26 625 -3 b 764 0 725 -3 753 -1 l 764 103 l 717 103 b 672 147 686 103 672 114 l 672 453 b 392 753 672 639 569 753 b 89 519 225 753 117 658 l 213 510 b 392 642 235 594 289 642 b 556 456 497 642 556 581 l 308 406 b 75 183 147 374 75 308 b 319 -17 75 64 181 -17 z m 331 86 b 197 194 247 86 197 125 b 331 311 197 256 231 292 l 556 356 l 556 292 b 331 86 556 169 481 86 z m 326 -208 l 449 -208 l 449 -83 l 326 -83 z "},"à":{"ha":833,"x_min":0,"x_max":0,"o":"m 353 831 l 450 831 l 358 1008 l 228 1008 z m 319 -17 b 560 104 425 -17 519 32 l 561 97 b 703 -3 578 26 625 -3 b 764 0 725 -3 753 -1 l 764 103 l 717 103 b 672 147 686 103 672 114 l 672 453 b 392 753 672 639 569 753 b 89 519 225 753 117 658 l 213 510 b 392 642 235 594 289 642 b 556 456 497 642 556 581 l 308 406 b 75 183 147 374 75 308 b 319 -17 75 64 181 -17 z m 331 86 b 197 194 247 86 197 125 b 331 311 197 256 231 292 l 556 356 l 556 292 b 331 86 556 169 481 86 z "},"ả":{"ha":833,"x_min":0,"x_max":0,"o":"m 433 819 b 506 947 467 844 506 883 b 378 1053 506 1017 467 1053 b 289 1042 336 1053 306 1047 l 289 961 b 367 972 306 967 333 972 b 417 925 403 972 417 953 b 350 819 417 892 386 856 z m 319 -17 b 560 104 425 -17 519 32 l 561 97 b 703 -3 578 26 625 -3 b 764 0 725 -3 753 -1 l 764 103 l 717 103 b 672 147 686 103 672 114 l 672 453 b 392 753 672 639 569 753 b 89 519 225 753 117 658 l 213 510 b 392 642 235 594 289 642 b 556 456 497 642 556 581 l 308 406 b 75 183 147 374 75 308 b 319 -17 75 64 181 -17 z m 331 86 b 197 194 247 86 197 125 b 331 311 197 256 231 292 l 556 356 l 556 292 b 331 86 556 169 481 86 z "},"ā":{"ha":833,"x_min":0,"x_max":0,"o":"m 207 868 l 579 868 l 579 968 l 207 968 z m 319 -17 b 560 104 425 -17 519 32 l 561 97 b 703 -3 578 26 625 -3 b 764 0 725 -3 753 -1 l 764 103 l 717 103 b 672 147 686 103 672 114 l 672 453 b 392 753 672 639 569 753 b 89 519 225 753 117 658 l 213 510 b 392 642 235 594 289 642 b 556 456 497 642 556 581 l 308 406 b 75 183 147 374 75 308 b 319 -17 75 64 181 -17 z m 331 86 b 197 194 247 86 197 125 b 331 311 197 256 231 292 l 556 356 l 556 292 b 331 86 556 169 481 86 z "},"ą":{"ha":833,"x_min":0,"x_max":0,"o":"m 319 -17 b 560 104 425 -17 519 32 b 658 1 574 42 606 11 l 624 -42 b 567 -181 585 -90 567 -133 b 692 -292 567 -250 614 -292 b 811 -256 744 -292 789 -278 l 778 -178 b 714 -197 761 -192 733 -197 b 672 -156 688 -197 672 -183 b 715 -62 672 -133 679 -110 l 764 0 l 764 103 l 717 103 b 672 147 686 103 672 114 l 672 453 b 392 753 672 639 569 753 b 89 519 225 753 117 658 l 213 510 b 392 642 235 594 289 642 b 556 456 497 642 556 581 l 308 406 b 75 183 147 374 75 308 b 319 -17 75 64 181 -17 z m 331 86 b 197 194 247 86 197 125 b 331 311 197 256 231 292 l 556 356 l 556 292 b 331 86 556 169 481 86 z "},"å":{"ha":833,"x_min":0,"x_max":0,"o":"m 394 800 b 522 928 467 800 522 856 b 394 1056 522 1000 467 1056 b 267 928 322 1056 267 1000 b 394 800 267 856 322 800 z m 394 869 b 336 928 361 869 336 894 b 394 986 336 961 361 986 b 453 928 428 986 453 961 b 394 869 453 894 428 869 z m 319 -17 b 560 104 425 -17 519 32 l 561 97 b 703 -3 578 26 625 -3 b 764 0 725 -3 753 -1 l 764 103 l 717 103 b 672 147 686 103 672 114 l 672 453 b 392 753 672 639 569 753 b 89 519 225 753 117 658 l 213 510 b 392 642 235 594 289 642 b 556 456 497 642 556 581 l 308 406 b 75 183 147 374 75 308 b 319 -17 75 64 181 -17 z m 331 86 b 197 194 247 86 197 125 b 331 311 197 256 231 292 l 556 356 l 556 292 b 331 86 556 169 481 86 z "},"ã":{"ha":833,"x_min":0,"x_max":0,"o":"m 478 847 b 614 1014 557 847 608 908 l 542 1014 b 483 922 536 944 518 922 b 414 956 461 922 443 932 b 308 1000 382 982 353 1000 b 175 838 233 1000 178 944 l 247 838 b 308 925 250 904 275 925 b 381 889 336 925 349 915 b 478 847 411 864 442 847 z m 319 -17 b 560 104 425 -17 519 32 l 561 97 b 703 -3 578 26 625 -3 b 764 0 725 -3 753 -1 l 764 103 l 717 103 b 672 147 686 103 672 114 l 672 453 b 392 753 672 639 569 753 b 89 519 225 753 117 658 l 213 510 b 392 642 235 594 289 642 b 556 456 497 642 556 581 l 308 406 b 75 183 147 374 75 308 b 319 -17 75 64 181 -17 z m 331 86 b 197 194 247 86 197 125 b 331 311 197 256 231 292 l 556 356 l 556 292 b 331 86 556 169 481 86 z "},"æ":{"ha":833,"x_min":0,"x_max":0,"o":"m 203 -17 b 386 125 294 -17 357 35 b 582 -17 424 32 490 -17 b 800 208 706 -17 765 46 l 682 218 b 582 94 664 129 636 94 b 463 332 513 94 469 179 l 808 332 l 808 386 b 582 753 808 632 725 753 b 411 660 508 753 451 721 b 247 753 378 722 322 753 b 36 519 129 753 60 675 l 153 511 b 247 642 164 588 183 642 b 342 433 313 642 342 581 l 222 417 b 25 196 100 400 25 313 b 203 -17 25 47 101 -17 z m 464 435 b 582 642 478 583 513 642 b 688 435 643 642 682 583 z m 224 86 b 142 196 176 86 142 121 b 246 311 142 257 169 299 l 342 326 l 342 304 b 224 86 342 164 310 86 z "},"b":{"ha":833,"x_min":0,"x_max":0,"o":"m 463 -17 b 778 368 657 -17 778 132 b 463 753 778 604 657 753 b 242 633 360 753 278 694 l 242 986 l 125 986 l 125 0 l 231 0 l 235 110 b 463 -17 278 31 361 -17 z m 456 94 b 242 368 322 94 242 200 b 458 642 242 539 322 642 b 656 368 579 642 656 539 b 456 94 656 200 579 94 z "},"c":{"ha":833,"x_min":0,"x_max":0,"o":"m 436 -17 b 750 253 600 -17 719 89 l 628 261 b 436 94 606 150 531 94 b 219 368 300 94 219 197 b 436 642 219 539 300 642 b 622 489 531 642 600 586 l 744 497 b 436 753 714 661 600 753 b 97 368 231 753 97 601 b 436 -17 97 135 231 -17 z "},"ć":{"ha":833,"x_min":0,"x_max":0,"o":"m 382 831 l 479 831 l 604 1008 l 474 1008 z m 436 -17 b 750 253 600 -17 719 89 l 628 261 b 436 94 606 150 531 94 b 219 368 300 94 219 197 b 436 642 219 539 300 642 b 622 489 531 642 600 586 l 744 497 b 436 753 714 661 600 753 b 97 368 231 753 97 601 b 436 -17 97 135 231 -17 z "},"č":{"ha":833,"x_min":0,"x_max":0,"o":"m 240 1015 l 369 831 l 500 831 l 629 1015 l 532 1015 l 435 890 l 338 1015 z m 436 -17 b 750 253 600 -17 719 89 l 628 261 b 436 94 606 150 531 94 b 219 368 300 94 219 197 b 436 642 219 539 300 642 b 622 489 531 642 600 586 l 744 497 b 436 753 714 661 600 753 b 97 368 231 753 97 601 b 436 -17 97 135 231 -17 z "},"ç":{"ha":833,"x_min":0,"x_max":0,"o":"m 421 -306 b 576 -175 511 -306 576 -253 b 443 -50 576 -103 533 -54 l 469 -15 b 750 253 615 -3 721 100 l 628 261 b 436 94 606 150 531 94 b 219 368 300 94 219 197 b 436 642 219 539 300 642 b 622 489 531 642 600 586 l 744 497 b 436 753 714 661 600 753 b 97 368 231 753 97 601 b 385 -14 97 156 208 10 l 349 -69 l 388 -111 b 493 -172 476 -111 493 -137 b 418 -228 493 -207 465 -228 b 329 -169 372 -228 346 -211 l 258 -197 b 421 -306 278 -258 332 -306 z "},"ĉ":{"ha":833,"x_min":0,"x_max":0,"o":"m 239 831 l 336 831 l 433 956 l 531 831 l 628 831 l 499 1015 l 368 1015 z m 436 -17 b 750 253 600 -17 719 89 l 628 261 b 436 94 606 150 531 94 b 219 368 300 94 219 197 b 436 642 219 539 300 642 b 622 489 531 642 600 586 l 744 497 b 436 753 714 661 600 753 b 97 368 231 753 97 601 b 436 -17 97 135 231 -17 z "},"ċ":{"ha":833,"x_min":0,"x_max":0,"o":"m 372 851 l 494 851 l 494 988 l 372 988 z m 436 -17 b 750 253 600 -17 719 89 l 628 261 b 436 94 606 150 531 94 b 219 368 300 94 219 197 b 436 642 219 539 300 642 b 622 489 531 642 600 586 l 744 497 b 436 753 714 661 600 753 b 97 368 231 753 97 601 b 436 -17 97 135 231 -17 z "},"d":{"ha":833,"x_min":0,"x_max":0,"o":"m 371 -17 b 599 110 472 -17 556 31 l 603 0 l 708 0 l 708 986 l 592 986 l 592 633 b 371 753 556 694 474 753 b 56 368 176 753 56 604 b 371 -17 56 132 176 -17 z m 378 94 b 178 368 254 94 178 200 b 375 642 178 539 254 642 b 592 368 511 642 592 539 b 378 94 592 200 511 94 z "},"ď":{"ha":833,"x_min":0,"x_max":0,"o":"m 315 -17 b 515 111 410 -17 474 31 l 519 0 l 625 0 l 625 986 l 508 986 l 508 633 b 315 753 472 694 410 753 b 28 368 135 753 28 604 b 315 -17 28 132 135 -17 z m 661 633 l 744 633 l 819 986 l 703 986 z m 322 94 b 150 368 219 94 150 200 b 319 642 150 539 219 642 b 508 368 433 642 508 539 b 322 94 508 200 433 94 z "},"đ":{"ha":833,"x_min":0,"x_max":0,"o":"m 371 -17 b 599 110 472 -17 556 31 l 603 0 l 708 0 l 708 808 l 806 808 l 806 903 l 708 903 l 708 986 l 592 986 l 592 903 l 389 903 l 389 808 l 592 808 l 592 633 b 371 753 556 694 474 753 b 56 368 176 753 56 604 b 371 -17 56 132 176 -17 z m 378 94 b 178 368 254 94 178 200 b 375 642 178 539 254 642 b 592 368 511 642 592 539 b 378 94 592 200 511 94 z "},"ð":{"ha":833,"x_min":0,"x_max":0,"o":"m 419 -17 b 756 354 622 -17 756 119 b 626 828 756 546 718 711 l 778 881 l 744 969 l 551 901 b 278 1003 482 956 392 992 l 250 900 b 425 857 317 894 375 881 l 319 819 l 353 731 l 519 789 b 610 631 558 749 589 696 b 419 697 557 671 493 697 b 83 340 215 697 83 561 b 419 -17 83 119 215 -17 z m 419 94 b 206 340 283 94 206 183 b 419 586 206 497 283 586 b 633 354 554 586 633 497 b 419 94 633 179 554 94 z "},"e":{"ha":833,"x_min":0,"x_max":0,"o":"m 425 -17 b 733 208 581 -17 694 76 l 608 218 b 425 94 583 143 521 94 b 210 332 297 94 218 174 l 746 332 l 746 367 b 419 753 746 614 611 753 b 88 368 217 753 88 601 b 425 -17 88 135 217 -17 z m 210 435 b 419 642 229 571 306 642 b 618 435 528 642 607 576 z "},"é":{"ha":833,"x_min":0,"x_max":0,"o":"m 368 828 l 465 828 l 590 1006 l 460 1006 z m 425 -17 b 733 208 581 -17 694 76 l 608 218 b 425 94 583 143 521 94 b 210 332 297 94 218 174 l 746 332 l 746 367 b 419 753 746 614 611 753 b 88 368 217 753 88 601 b 425 -17 88 135 217 -17 z m 210 435 b 419 642 229 571 306 642 b 618 435 528 642 607 576 z "},"ě":{"ha":833,"x_min":0,"x_max":0,"o":"m 226 1013 l 356 828 l 486 828 l 615 1013 l 518 1013 l 421 888 l 324 1013 z m 425 -17 b 733 208 581 -17 694 76 l 608 218 b 425 94 583 143 521 94 b 210 332 297 94 218 174 l 746 332 l 746 367 b 419 753 746 614 611 753 b 88 368 217 753 88 601 b 425 -17 88 135 217 -17 z m 210 435 b 419 642 229 571 306 642 b 618 435 528 642 607 576 z "},"ê":{"ha":833,"x_min":0,"x_max":0,"o":"m 225 828 l 322 828 l 419 953 l 517 828 l 614 828 l 485 1013 l 354 1013 z m 425 -17 b 733 208 581 -17 694 76 l 608 218 b 425 94 583 143 521 94 b 210 332 297 94 218 174 l 746 332 l 746 367 b 419 753 746 614 611 753 b 88 368 217 753 88 601 b 425 -17 88 135 217 -17 z m 210 435 b 419 642 229 571 306 642 b 618 435 528 642 607 576 z "},"ế":{"ha":833,"x_min":0,"x_max":0,"o":"m 539 956 l 636 956 l 742 1133 l 611 1133 z m 231 814 l 328 814 l 421 919 l 514 814 l 611 814 l 486 983 l 356 983 z m 425 -17 b 733 208 581 -17 694 76 l 608 218 b 425 94 583 143 521 94 b 210 332 297 94 218 174 l 746 332 l 746 367 b 419 753 746 614 611 753 b 88 368 217 753 88 601 b 425 -17 88 135 217 -17 z m 210 435 b 419 642 229 571 306 642 b 618 435 528 642 607 576 z "},"ệ":{"ha":833,"x_min":0,"x_max":0,"o":"m 225 828 l 322 828 l 419 953 l 517 828 l 614 828 l 485 1013 l 354 1013 z m 425 -17 b 733 208 581 -17 694 76 l 608 218 b 425 94 583 143 521 94 b 210 332 297 94 218 174 l 746 332 l 746 367 b 419 753 746 614 611 753 b 88 368 217 753 88 601 b 425 -17 88 135 217 -17 z m 210 435 b 419 642 229 571 306 642 b 618 435 528 642 607 576 z m 364 -208 l 486 -208 l 486 -83 l 364 -83 z "},"ề":{"ha":833,"x_min":0,"x_max":0,"o":"m 603 956 l 700 956 l 628 1133 l 497 1133 z m 231 814 l 328 814 l 421 919 l 514 814 l 611 814 l 486 983 l 356 983 z m 425 -17 b 733 208 581 -17 694 76 l 608 218 b 425 94 583 143 521 94 b 210 332 297 94 218 174 l 746 332 l 746 367 b 419 753 746 614 611 753 b 88 368 217 753 88 601 b 425 -17 88 135 217 -17 z m 210 435 b 419 642 229 571 306 642 b 618 435 528 642 607 576 z "},"ể":{"ha":833,"x_min":0,"x_max":0,"o":"m 532 946 l 607 946 b 672 1060 638 968 672 1001 b 557 1156 672 1122 638 1156 b 478 1146 519 1156 492 1151 l 478 1074 b 547 1083 492 1078 517 1083 b 592 1044 579 1083 592 1067 b 532 946 592 1013 565 978 z m 231 814 l 328 814 l 421 919 l 514 814 l 611 814 l 486 983 l 356 983 z m 425 -17 b 733 208 581 -17 694 76 l 608 218 b 425 94 583 143 521 94 b 210 332 297 94 218 174 l 746 332 l 746 367 b 419 753 746 614 611 753 b 88 368 217 753 88 601 b 425 -17 88 135 217 -17 z m 210 435 b 419 642 229 571 306 642 b 618 435 528 642 607 576 z "},"ễ":{"ha":833,"x_min":0,"x_max":0,"o":"m 501 1032 b 629 1189 576 1032 626 1089 l 557 1189 b 507 1108 551 1124 540 1108 b 442 1140 486 1108 469 1118 b 340 1176 411 1164 385 1176 b 215 1024 272 1176 218 1126 l 288 1024 b 340 1100 290 1086 311 1100 b 411 1067 368 1100 381 1092 b 501 1032 439 1043 468 1032 z m 232 813 l 329 813 l 422 918 l 515 813 l 613 813 l 488 983 l 357 983 z m 425 -17 b 733 208 581 -17 694 76 l 608 218 b 425 94 583 143 521 94 b 210 332 297 94 218 174 l 746 332 l 746 367 b 419 753 746 614 611 753 b 88 368 217 753 88 601 b 425 -17 88 135 217 -17 z m 210 435 b 419 642 229 571 306 642 b 618 435 528 642 607 576 z "},"ë":{"ha":833,"x_min":0,"x_max":0,"o":"m 239 849 l 361 849 l 361 985 l 239 985 z m 481 849 l 603 849 l 603 985 l 481 985 z m 425 -17 b 733 208 581 -17 694 76 l 608 218 b 425 94 583 143 521 94 b 210 332 297 94 218 174 l 746 332 l 746 367 b 419 753 746 614 611 753 b 88 368 217 753 88 601 b 425 -17 88 135 217 -17 z m 210 435 b 419 642 229 571 306 642 b 618 435 528 642 607 576 z "},"ė":{"ha":833,"x_min":0,"x_max":0,"o":"m 358 849 l 481 849 l 481 985 l 358 985 z m 425 -17 b 733 208 581 -17 694 76 l 608 218 b 425 94 583 143 521 94 b 210 332 297 94 218 174 l 746 332 l 746 367 b 419 753 746 614 611 753 b 88 368 217 753 88 601 b 425 -17 88 135 217 -17 z m 210 435 b 419 642 229 571 306 642 b 618 435 528 642 607 576 z "},"ẹ":{"ha":833,"x_min":0,"x_max":0,"o":"m 425 -17 b 733 208 581 -17 694 76 l 608 218 b 425 94 583 143 521 94 b 210 332 297 94 218 174 l 746 332 l 746 367 b 419 753 746 614 611 753 b 88 368 217 753 88 601 b 425 -17 88 135 217 -17 z m 210 435 b 419 642 229 571 306 642 b 618 435 528 642 607 576 z m 364 -208 l 486 -208 l 486 -83 l 364 -83 z "},"è":{"ha":833,"x_min":0,"x_max":0,"o":"m 379 828 l 476 828 l 385 1006 l 254 1006 z m 425 -17 b 733 208 581 -17 694 76 l 608 218 b 425 94 583 143 521 94 b 210 332 297 94 218 174 l 746 332 l 746 367 b 419 753 746 614 611 753 b 88 368 217 753 88 601 b 425 -17 88 135 217 -17 z m 210 435 b 419 642 229 571 306 642 b 618 435 528 642 607 576 z "},"ẻ":{"ha":833,"x_min":0,"x_max":0,"o":"m 460 817 b 532 944 493 842 532 881 b 404 1050 532 1014 493 1050 b 315 1039 363 1050 332 1044 l 315 958 b 393 969 332 964 360 969 b 443 922 429 969 443 950 b 376 817 443 889 413 853 z m 425 -17 b 733 208 581 -17 694 76 l 608 218 b 425 94 583 143 521 94 b 210 332 297 94 218 174 l 746 332 l 746 367 b 419 753 746 614 611 753 b 88 368 217 753 88 601 b 425 -17 88 135 217 -17 z m 210 435 b 419 642 229 571 306 642 b 618 435 528 642 607 576 z "},"ē":{"ha":833,"x_min":0,"x_max":0,"o":"m 233 865 l 606 865 l 606 965 l 233 965 z m 425 -17 b 733 208 581 -17 694 76 l 608 218 b 425 94 583 143 521 94 b 210 332 297 94 218 174 l 746 332 l 746 367 b 419 753 746 614 611 753 b 88 368 217 753 88 601 b 425 -17 88 135 217 -17 z m 210 435 b 419 642 229 571 306 642 b 618 435 528 642 607 576 z "},"ę":{"ha":833,"x_min":0,"x_max":0,"o":"m 425 -17 b 458 -15 436 -17 447 -17 b 407 -147 425 -57 407 -100 b 532 -258 407 -217 454 -258 b 651 -222 585 -258 629 -244 l 618 -144 b 554 -164 601 -158 574 -164 b 513 -122 528 -164 513 -150 b 556 -29 513 -100 519 -76 l 604 33 b 733 208 667 74 711 135 l 608 218 b 425 94 583 143 521 94 b 210 332 297 94 218 174 l 746 332 l 746 367 b 419 753 746 614 611 753 b 88 368 217 753 88 601 b 425 -17 88 135 217 -17 z m 210 435 b 419 642 229 571 306 642 b 618 435 528 642 607 576 z "},"ẽ":{"ha":833,"x_min":0,"x_max":0,"o":"m 504 844 b 640 1011 583 844 635 906 l 568 1011 b 510 919 563 942 544 919 b 440 953 488 919 469 929 b 335 997 408 979 379 997 b 201 835 260 997 204 942 l 274 835 b 335 922 276 901 301 922 b 407 886 363 922 375 913 b 504 844 438 861 468 844 z m 425 -17 b 733 208 581 -17 694 76 l 608 218 b 425 94 583 143 521 94 b 210 332 297 94 218 174 l 746 332 l 746 367 b 419 753 746 614 611 753 b 88 368 217 753 88 601 b 425 -17 88 135 217 -17 z m 210 435 b 419 642 229 571 306 642 b 618 435 528 642 607 576 z "},"ə":{"ha":833,"x_min":0,"x_max":0,"o":"m 408 753 b 100 528 253 753 139 660 l 225 518 b 408 642 250 593 313 642 b 624 404 536 642 615 563 l 88 404 l 88 369 b 414 -17 88 122 222 -17 b 746 368 617 -17 746 135 b 408 753 746 601 617 753 z m 624 301 b 414 94 604 165 528 94 b 215 301 306 94 226 160 z "},"f":{"ha":833,"x_min":0,"x_max":0,"o":"m 294 0 l 411 0 l 411 633 l 722 633 l 722 736 l 411 736 l 411 783 b 500 883 411 844 442 883 l 736 883 l 736 986 l 500 986 b 294 783 361 986 294 914 l 294 736 l 97 736 l 97 633 l 294 633 z "},"g":{"ha":833,"x_min":0,"x_max":0,"o":"m 413 -225 b 736 50 615 -225 736 -122 l 736 736 l 625 736 l 625 619 b 399 753 592 701 501 753 b 83 396 214 753 83 606 b 404 39 83 186 217 39 b 619 167 500 39 583 89 l 619 47 b 413 -114 619 -61 546 -114 b 226 -3 299 -114 249 -72 l 104 -11 b 413 -225 135 -140 254 -225 z m 410 150 b 206 396 283 150 206 244 b 410 642 206 547 281 642 b 619 396 538 642 622 547 b 410 150 618 244 536 150 z "},"ğ":{"ha":833,"x_min":0,"x_max":0,"o":"m 414 838 b 608 1015 528 838 603 907 l 528 1015 b 414 924 519 951 478 924 b 300 1015 350 924 308 951 l 219 1015 b 414 838 225 907 300 838 z m 413 -225 b 736 50 615 -225 736 -122 l 736 736 l 625 736 l 625 619 b 399 753 592 701 501 753 b 83 396 214 753 83 606 b 404 39 83 186 217 39 b 619 167 500 39 583 89 l 619 47 b 413 -114 619 -61 546 -114 b 226 -3 299 -114 249 -72 l 104 -11 b 413 -225 135 -140 254 -225 z m 410 150 b 206 396 283 150 206 244 b 410 642 206 547 281 642 b 619 396 538 642 622 547 b 410 150 618 244 536 150 z "},"ǧ":{"ha":833,"x_min":0,"x_max":0,"o":"m 219 1015 l 349 831 l 479 831 l 608 1015 l 511 1015 l 414 890 l 317 1015 z m 413 -225 b 736 50 615 -225 736 -122 l 736 736 l 625 736 l 625 619 b 399 753 592 701 501 753 b 83 396 214 753 83 606 b 404 39 83 186 217 39 b 619 167 500 39 583 89 l 619 47 b 413 -114 619 -61 546 -114 b 226 -3 299 -114 249 -72 l 104 -11 b 413 -225 135 -140 254 -225 z m 410 150 b 206 396 283 150 206 244 b 410 642 206 547 281 642 b 619 396 538 642 622 547 b 410 150 618 244 536 150 z "},"ĝ":{"ha":833,"x_min":0,"x_max":0,"o":"m 218 831 l 315 831 l 413 956 l 510 831 l 607 831 l 478 1015 l 347 1015 z m 413 -225 b 736 50 615 -225 736 -122 l 736 736 l 625 736 l 625 619 b 399 753 592 701 501 753 b 83 396 214 753 83 606 b 404 39 83 186 217 39 b 619 167 500 39 583 89 l 619 47 b 413 -114 619 -61 546 -114 b 226 -3 299 -114 249 -72 l 104 -11 b 413 -225 135 -140 254 -225 z m 410 150 b 206 396 283 150 206 244 b 410 642 206 547 281 642 b 619 396 538 642 622 547 b 410 150 618 244 536 150 z "},"ģ":{"ha":833,"x_min":0,"x_max":0,"o":"m 515 1096 l 438 1096 l 349 957 l 349 838 l 488 838 l 488 963 l 440 963 z m 413 -225 b 736 50 615 -225 736 -122 l 736 736 l 625 736 l 625 619 b 399 753 592 701 501 753 b 83 396 214 753 83 606 b 404 39 83 186 217 39 b 619 167 500 39 583 89 l 619 47 b 413 -114 619 -61 546 -114 b 226 -3 299 -114 249 -72 l 104 -11 b 413 -225 135 -140 254 -225 z m 410 150 b 206 396 283 150 206 244 b 410 642 206 547 281 642 b 619 396 538 642 622 547 b 410 150 618 244 536 150 z "},"ġ":{"ha":833,"x_min":0,"x_max":0,"o":"m 351 851 l 474 851 l 474 988 l 351 988 z m 413 -225 b 736 50 615 -225 736 -122 l 736 736 l 625 736 l 625 619 b 399 753 592 701 501 753 b 83 396 214 753 83 606 b 404 39 83 186 217 39 b 619 167 500 39 583 89 l 619 47 b 413 -114 619 -61 546 -114 b 226 -3 299 -114 249 -72 l 104 -11 b 413 -225 135 -140 254 -225 z m 410 150 b 206 396 283 150 206 244 b 410 642 206 547 281 642 b 619 396 538 642 622 547 b 410 150 618 244 536 150 z "},"ḡ":{"ha":833,"x_min":0,"x_max":0,"o":"m 226 868 l 599 868 l 599 968 l 226 968 z m 413 -225 b 736 50 615 -225 736 -122 l 736 736 l 625 736 l 625 619 b 399 753 592 701 501 753 b 83 396 214 753 83 606 b 404 39 83 186 217 39 b 619 167 500 39 583 89 l 619 47 b 413 -114 619 -61 546 -114 b 226 -3 299 -114 249 -72 l 104 -11 b 413 -225 135 -140 254 -225 z m 410 150 b 206 396 283 150 206 244 b 410 642 206 547 281 642 b 619 396 538 642 622 547 b 410 150 618 244 536 150 z "},"ǥ":{"ha":833,"x_min":0,"x_max":0,"o":"m 413 -225 b 736 50 615 -225 736 -122 l 736 342 l 806 342 l 806 439 l 736 439 l 736 736 l 625 736 l 625 619 b 399 753 592 701 501 753 b 83 396 214 753 83 606 b 404 39 83 186 217 39 b 619 167 500 39 583 89 l 619 47 b 413 -114 619 -61 546 -114 b 226 -3 299 -114 249 -72 l 104 -11 b 413 -225 135 -140 254 -225 z m 410 150 b 206 396 283 150 206 244 b 410 642 206 547 281 642 b 618 439 525 642 606 565 l 410 439 l 410 342 l 615 342 l 614 335 b 410 150 594 219 518 150 z "},"h":{"ha":833,"x_min":0,"x_max":0,"o":"m 139 0 l 256 0 l 256 439 b 451 650 256 575 333 650 b 606 440 554 650 606 582 l 606 0 l 722 0 l 722 474 b 476 753 722 638 635 753 b 256 621 376 753 293 711 l 256 986 l 139 986 z "},"ħ":{"ha":833,"x_min":0,"x_max":0,"o":"m 139 0 l 256 0 l 256 439 b 451 650 256 575 333 650 b 606 440 554 650 606 582 l 606 0 l 722 0 l 722 474 b 476 753 722 638 635 753 b 256 621 376 753 293 711 l 256 808 l 467 808 l 467 903 l 256 903 l 256 986 l 139 986 l 139 903 l 50 903 l 50 808 l 139 808 z "},"ĥ":{"ha":833,"x_min":0,"x_max":0,"o":"m 3 1081 l 100 1081 l 197 1206 l 294 1081 l 392 1081 l 263 1265 l 132 1265 z m 139 0 l 256 0 l 256 439 b 451 650 256 575 333 650 b 606 440 554 650 606 582 l 606 0 l 722 0 l 722 474 b 476 753 722 638 635 753 b 256 621 376 753 293 711 l 256 986 l 139 986 z "},"i":{"ha":833,"x_min":0,"x_max":0,"o":"m 396 851 l 518 851 l 518 988 l 396 988 z m 111 0 l 778 0 l 778 103 l 524 103 l 524 736 l 125 736 l 125 633 l 407 633 l 407 103 l 111 103 z "},"ı":{"ha":833,"x_min":0,"x_max":0,"o":"m 111 0 l 778 0 l 778 103 l 524 103 l 524 736 l 125 736 l 125 633 l 407 633 l 407 103 l 111 103 z "},"í":{"ha":833,"x_min":0,"x_max":0,"o":"m 406 831 l 503 831 l 628 1008 l 497 1008 z m 111 0 l 778 0 l 778 103 l 524 103 l 524 736 l 125 736 l 125 633 l 407 633 l 407 103 l 111 103 z "},"î":{"ha":833,"x_min":0,"x_max":0,"o":"m 263 831 l 360 831 l 457 956 l 554 831 l 651 831 l 522 1015 l 392 1015 z m 111 0 l 778 0 l 778 103 l 524 103 l 524 736 l 125 736 l 125 633 l 407 633 l 407 103 l 111 103 z "},"ï":{"ha":833,"x_min":0,"x_max":0,"o":"m 276 851 l 399 851 l 399 988 l 276 988 z m 518 851 l 640 851 l 640 988 l 518 988 z m 111 0 l 778 0 l 778 103 l 524 103 l 524 736 l 125 736 l 125 633 l 407 633 l 407 103 l 111 103 z "},"ị":{"ha":833,"x_min":0,"x_max":0,"o":"m 396 851 l 518 851 l 518 988 l 396 988 z m 111 0 l 778 0 l 778 103 l 524 103 l 524 736 l 125 736 l 125 633 l 407 633 l 407 103 l 111 103 z m 356 -208 l 478 -208 l 478 -83 l 356 -83 z "},"ì":{"ha":833,"x_min":0,"x_max":0,"o":"m 417 831 l 514 831 l 422 1008 l 292 1008 z m 111 0 l 778 0 l 778 103 l 524 103 l 524 736 l 125 736 l 125 633 l 407 633 l 407 103 l 111 103 z "},"ỉ":{"ha":833,"x_min":0,"x_max":0,"o":"m 497 819 b 569 947 531 844 569 883 b 442 1053 569 1017 531 1053 b 353 1042 400 1053 369 1047 l 353 961 b 431 972 369 967 397 972 b 481 925 467 972 481 953 b 414 819 481 892 450 856 z m 111 0 l 778 0 l 778 103 l 524 103 l 524 736 l 125 736 l 125 633 l 407 633 l 407 103 l 111 103 z "},"ī":{"ha":833,"x_min":0,"x_max":0,"o":"m 271 868 l 643 868 l 643 968 l 271 968 z m 111 0 l 778 0 l 778 103 l 524 103 l 524 736 l 125 736 l 125 633 l 407 633 l 407 103 l 111 103 z "},"į":{"ha":833,"x_min":0,"x_max":0,"o":"m 396 851 l 518 851 l 518 988 l 396 988 z m 111 0 l 671 0 l 638 -42 b 581 -181 599 -90 581 -133 b 706 -292 581 -250 628 -292 b 825 -256 758 -292 803 -278 l 792 -178 b 728 -197 775 -192 747 -197 b 686 -156 701 -197 686 -183 b 729 -62 686 -133 693 -110 l 778 0 l 778 103 l 524 103 l 524 736 l 125 736 l 125 633 l 407 633 l 407 103 l 111 103 z "},"ĩ":{"ha":833,"x_min":0,"x_max":0,"o":"m 542 847 b 678 1014 621 847 672 908 l 606 1014 b 547 922 600 944 582 922 b 478 956 525 922 507 932 b 372 1000 446 982 417 1000 b 239 838 297 1000 242 944 l 311 838 b 372 925 314 904 339 925 b 444 889 400 925 413 915 b 542 847 475 864 506 847 z m 111 0 l 778 0 l 778 103 l 524 103 l 524 736 l 125 736 l 125 633 l 407 633 l 407 103 l 111 103 z "},"j":{"ha":833,"x_min":0,"x_max":0,"o":"m 488 851 l 610 851 l 610 988 l 488 988 z m 153 -208 l 400 -208 b 611 0 547 -208 611 -135 l 611 736 l 167 736 l 167 633 l 494 633 l 494 8 b 386 -106 494 -81 458 -106 l 153 -106 z "},"ȷ":{"ha":833,"x_min":0,"x_max":0,"o":"m 153 -208 l 400 -208 b 611 0 547 -208 611 -135 l 611 736 l 167 736 l 167 633 l 494 633 l 494 8 b 386 -106 494 -81 458 -106 l 153 -106 z "},"ĵ":{"ha":833,"x_min":0,"x_max":0,"o":"m 354 831 l 451 831 l 549 956 l 646 831 l 743 831 l 614 1015 l 483 1015 z m 153 -208 l 400 -208 b 611 0 547 -208 611 -135 l 611 736 l 167 736 l 167 633 l 494 633 l 494 8 b 386 -106 494 -81 458 -106 l 153 -106 z "},"k":{"ha":833,"x_min":0,"x_max":0,"o":"m 125 0 l 242 0 l 242 192 l 386 344 l 628 0 l 769 0 l 465 424 l 756 736 l 600 736 l 242 340 l 242 986 l 125 986 z "},"ǩ":{"ha":833,"x_min":0,"x_max":0,"o":"m -10 1265 l 119 1081 l 250 1081 l 379 1265 l 282 1265 l 185 1140 l 88 1265 z m 125 0 l 242 0 l 242 192 l 386 344 l 628 0 l 769 0 l 465 424 l 756 736 l 600 736 l 242 340 l 242 986 l 125 986 z "},"ķ":{"ha":833,"x_min":0,"x_max":0,"o":"m 125 0 l 242 0 l 242 192 l 386 344 l 628 0 l 769 0 l 465 424 l 756 736 l 600 736 l 242 340 l 242 986 l 125 986 z m 332 -333 l 410 -333 l 499 -194 l 499 -75 l 360 -75 l 360 -200 l 407 -200 z "},"l":{"ha":833,"x_min":0,"x_max":0,"o":"m 83 0 l 750 0 l 750 103 l 496 103 l 496 781 b 290 986 496 915 425 986 l 111 986 l 111 883 l 285 883 b 379 789 344 883 379 849 l 379 103 l 83 103 z "},"ĺ":{"ha":833,"x_min":0,"x_max":0,"o":"m 336 1081 l 433 1081 l 558 1258 l 428 1258 z m 83 0 l 750 0 l 750 103 l 496 103 l 496 781 b 290 986 496 915 425 986 l 111 986 l 111 883 l 285 883 b 379 789 344 883 379 849 l 379 103 l 83 103 z "},"ľ":{"ha":833,"x_min":0,"x_max":0,"o":"m 83 0 l 750 0 l 750 103 l 496 103 l 496 781 b 290 986 496 915 425 986 l 111 986 l 111 883 l 285 883 b 379 789 344 883 379 849 l 379 103 l 83 103 z m 583 633 l 667 633 l 742 986 l 625 986 z "},"ļ":{"ha":833,"x_min":0,"x_max":0,"o":"m 83 0 l 750 0 l 750 103 l 496 103 l 496 781 b 290 986 496 915 425 986 l 111 986 l 111 883 l 285 883 b 379 789 344 883 379 849 l 379 103 l 83 103 z m 339 -333 l 417 -333 l 506 -194 l 506 -75 l 367 -75 l 367 -200 l 414 -200 z "},"ł":{"ha":833,"x_min":0,"x_max":0,"o":"m 83 0 l 750 0 l 750 103 l 496 103 l 496 526 l 653 589 l 653 681 l 496 618 l 496 781 b 290 986 496 915 425 986 l 111 986 l 111 883 l 285 883 b 379 789 344 883 379 849 l 379 571 l 236 514 l 236 422 l 379 479 l 379 103 l 83 103 z "},"m":{"ha":833,"x_min":0,"x_max":0,"o":"m 56 0 l 172 0 l 172 469 b 272 650 172 594 214 650 b 358 472 333 650 358 597 l 358 0 l 475 0 l 475 469 b 575 650 475 594 517 650 b 661 472 633 650 661 603 l 661 0 l 778 0 l 778 489 b 608 753 778 678 726 753 b 450 607 531 753 474 697 l 449 615 b 311 753 431 706 385 753 b 165 628 242 753 190 706 l 163 736 l 56 736 z "},"n":{"ha":833,"x_min":0,"x_max":0,"o":"m 117 0 l 233 0 l 233 440 b 436 650 233 576 322 650 b 600 440 547 650 600 576 l 600 0 l 717 0 l 717 474 b 461 753 717 629 629 753 b 226 604 360 753 267 706 l 224 736 l 117 736 z "},"ń":{"ha":833,"x_min":0,"x_max":0,"o":"m 364 831 l 461 831 l 586 1008 l 456 1008 z m 117 0 l 233 0 l 233 440 b 436 650 233 576 322 650 b 600 440 547 650 600 576 l 600 0 l 717 0 l 717 474 b 461 753 717 629 629 753 b 226 604 360 753 267 706 l 224 736 l 117 736 z "},"ň":{"ha":833,"x_min":0,"x_max":0,"o":"m 222 1015 l 351 831 l 482 831 l 611 1015 l 514 1015 l 417 890 l 319 1015 z m 117 0 l 233 0 l 233 440 b 436 650 233 576 322 650 b 600 440 547 650 600 576 l 600 0 l 717 0 l 717 474 b 461 753 717 629 629 753 b 226 604 360 753 267 706 l 224 736 l 117 736 z "},"ņ":{"ha":833,"x_min":0,"x_max":0,"o":"m 117 0 l 233 0 l 233 440 b 436 650 233 576 322 650 b 600 440 547 650 600 576 l 600 0 l 717 0 l 717 474 b 461 753 717 629 629 753 b 226 604 360 753 267 706 l 224 736 l 117 736 z m 319 -333 l 397 -333 l 486 -194 l 486 -75 l 347 -75 l 347 -200 l 394 -200 z "},"ñ":{"ha":833,"x_min":0,"x_max":0,"o":"m 500 847 b 636 1014 579 847 631 908 l 564 1014 b 506 922 558 944 540 922 b 436 956 483 922 465 932 b 331 1000 404 982 375 1000 b 197 838 256 1000 200 944 l 269 838 b 331 925 272 904 297 925 b 403 889 358 925 371 915 b 500 847 433 864 464 847 z m 117 0 l 233 0 l 233 440 b 436 650 233 576 322 650 b 600 440 547 650 600 576 l 600 0 l 717 0 l 717 474 b 461 753 717 629 629 753 b 226 604 360 753 267 706 l 224 736 l 117 736 z "},"ŋ":{"ha":833,"x_min":0,"x_max":0,"o":"m 117 0 l 233 0 l 233 440 b 436 650 233 576 322 650 b 600 440 547 650 600 576 l 600 -11 b 511 -106 600 -68 567 -106 l 396 -106 l 396 -208 l 508 -208 b 717 -10 638 -208 717 -131 l 717 474 b 461 753 717 629 629 753 b 226 604 360 753 267 706 l 224 736 l 117 736 z "},"o":{"ha":833,"x_min":0,"x_max":0,"o":"m 417 -17 b 753 368 619 -17 753 133 b 417 753 753 603 619 753 b 81 368 213 753 81 603 b 417 -17 81 133 213 -17 z m 417 94 b 203 368 281 94 203 197 b 417 642 203 539 281 642 b 631 368 551 642 631 539 b 417 94 631 197 551 94 z "},"ó":{"ha":833,"x_min":0,"x_max":0,"o":"m 364 831 l 461 831 l 586 1008 l 456 1008 z m 417 -17 b 753 368 619 -17 753 133 b 417 753 753 603 619 753 b 81 368 213 753 81 603 b 417 -17 81 133 213 -17 z m 417 94 b 203 368 281 94 203 197 b 417 642 203 539 281 642 b 631 368 551 642 631 539 b 417 94 631 197 551 94 z "},"ô":{"ha":833,"x_min":0,"x_max":0,"o":"m 221 831 l 318 831 l 415 956 l 513 831 l 610 831 l 481 1015 l 350 1015 z m 417 -17 b 753 368 619 -17 753 133 b 417 753 753 603 619 753 b 81 368 213 753 81 603 b 417 -17 81 133 213 -17 z m 417 94 b 203 368 281 94 203 197 b 417 642 203 539 281 642 b 631 368 551 642 631 539 b 417 94 631 197 551 94 z "},"ố":{"ha":833,"x_min":0,"x_max":0,"o":"m 535 958 l 632 958 l 738 1136 l 607 1136 z m 226 817 l 324 817 l 417 922 l 510 817 l 607 817 l 482 986 l 351 986 z m 417 -17 b 753 368 619 -17 753 133 b 417 753 753 603 619 753 b 81 368 213 753 81 603 b 417 -17 81 133 213 -17 z m 417 94 b 203 368 281 94 203 197 b 417 642 203 539 281 642 b 631 368 551 642 631 539 b 417 94 631 197 551 94 z "},"ộ":{"ha":833,"x_min":0,"x_max":0,"o":"m 221 831 l 318 831 l 415 956 l 513 831 l 610 831 l 481 1015 l 350 1015 z m 417 -17 b 753 368 619 -17 753 133 b 417 753 753 603 619 753 b 81 368 213 753 81 603 b 417 -17 81 133 213 -17 z m 417 94 b 203 368 281 94 203 197 b 417 642 203 539 281 642 b 631 368 551 642 631 539 b 417 94 631 197 551 94 z m 356 -208 l 478 -208 l 478 -83 l 356 -83 z "},"ồ":{"ha":833,"x_min":0,"x_max":0,"o":"m 599 958 l 696 958 l 624 1136 l 493 1136 z m 226 817 l 324 817 l 417 922 l 510 817 l 607 817 l 482 986 l 351 986 z m 417 -17 b 753 368 619 -17 753 133 b 417 753 753 603 619 753 b 81 368 213 753 81 603 b 417 -17 81 133 213 -17 z m 417 94 b 203 368 281 94 203 197 b 417 642 203 539 281 642 b 631 368 551 642 631 539 b 417 94 631 197 551 94 z "},"ổ":{"ha":833,"x_min":0,"x_max":0,"o":"m 528 949 l 603 949 b 668 1063 633 971 668 1004 b 553 1158 668 1125 633 1158 b 474 1149 515 1158 488 1154 l 474 1076 b 543 1086 488 1081 513 1086 b 588 1047 575 1086 588 1069 b 528 949 588 1015 561 981 z m 226 817 l 324 817 l 417 922 l 510 817 l 607 817 l 482 986 l 351 986 z m 417 -17 b 753 368 619 -17 753 133 b 417 753 753 603 619 753 b 81 368 213 753 81 603 b 417 -17 81 133 213 -17 z m 417 94 b 203 368 281 94 203 197 b 417 642 203 539 281 642 b 631 368 551 642 631 539 b 417 94 631 197 551 94 z "},"ỗ":{"ha":833,"x_min":0,"x_max":0,"o":"m 497 1035 b 625 1192 572 1035 622 1092 l 553 1192 b 503 1111 547 1126 536 1111 b 438 1143 482 1111 465 1121 b 336 1179 407 1167 381 1179 b 211 1026 268 1179 214 1129 l 283 1026 b 336 1103 286 1089 307 1103 b 407 1069 364 1103 376 1094 b 497 1035 435 1046 464 1035 z m 228 815 l 325 815 l 418 921 l 511 815 l 608 815 l 483 986 l 353 986 z m 417 -17 b 753 368 619 -17 753 133 b 417 753 753 603 619 753 b 81 368 213 753 81 603 b 417 -17 81 133 213 -17 z m 417 94 b 203 368 281 94 203 197 b 417 642 203 539 281 642 b 631 368 551 642 631 539 b 417 94 631 197 551 94 z "},"ö":{"ha":833,"x_min":0,"x_max":0,"o":"m 235 851 l 357 851 l 357 988 l 235 988 z m 476 851 l 599 851 l 599 988 l 476 988 z m 417 -17 b 753 368 619 -17 753 133 b 417 753 753 603 619 753 b 81 368 213 753 81 603 b 417 -17 81 133 213 -17 z m 417 94 b 203 368 281 94 203 197 b 417 642 203 539 281 642 b 631 368 551 642 631 539 b 417 94 631 197 551 94 z "},"ọ":{"ha":833,"x_min":0,"x_max":0,"o":"m 417 -17 b 753 368 619 -17 753 133 b 417 753 753 603 619 753 b 81 368 213 753 81 603 b 417 -17 81 133 213 -17 z m 417 94 b 203 368 281 94 203 197 b 417 642 203 539 281 642 b 631 368 551 642 631 539 b 417 94 631 197 551 94 z m 356 -208 l 478 -208 l 478 -83 l 356 -83 z "},"ò":{"ha":833,"x_min":0,"x_max":0,"o":"m 375 831 l 472 831 l 381 1008 l 250 1008 z m 417 -17 b 753 368 619 -17 753 133 b 417 753 753 603 619 753 b 81 368 213 753 81 603 b 417 -17 81 133 213 -17 z m 417 94 b 203 368 281 94 203 197 b 417 642 203 539 281 642 b 631 368 551 642 631 539 b 417 94 631 197 551 94 z "},"ỏ":{"ha":833,"x_min":0,"x_max":0,"o":"m 456 819 b 528 947 489 844 528 883 b 400 1053 528 1017 489 1053 b 311 1042 358 1053 328 1047 l 311 961 b 389 972 328 967 356 972 b 439 925 425 972 439 953 b 372 819 439 892 408 856 z m 417 -17 b 753 368 619 -17 753 133 b 417 753 753 603 619 753 b 81 368 213 753 81 603 b 417 -17 81 133 213 -17 z m 417 94 b 203 368 281 94 203 197 b 417 642 203 539 281 642 b 631 368 551 642 631 539 b 417 94 631 197 551 94 z "},"ơ":{"ha":833,"x_min":0,"x_max":0,"o":"m 417 -17 b 753 368 619 -17 753 133 b 638 672 753 500 711 606 b 756 808 708 683 756 724 b 736 931 756 853 744 906 l 633 931 b 653 803 642 897 653 844 b 583 736 653 753 625 736 l 526 736 b 417 753 493 747 456 753 b 81 368 213 753 81 603 b 417 -17 81 133 213 -17 z m 417 94 b 203 368 281 94 203 197 b 417 642 203 539 281 642 b 631 368 551 642 631 539 b 417 94 631 197 551 94 z "},"ớ":{"ha":833,"x_min":0,"x_max":0,"o":"m 347 831 l 444 831 l 569 1008 l 439 1008 z m 417 -17 b 753 368 619 -17 753 133 b 638 672 753 500 711 606 b 756 808 708 683 756 724 b 736 931 756 853 744 906 l 633 931 b 653 803 642 897 653 844 b 583 736 653 753 625 736 l 526 736 b 417 753 493 747 456 753 b 81 368 213 753 81 603 b 417 -17 81 133 213 -17 z m 417 94 b 203 368 281 94 203 197 b 417 642 203 539 281 642 b 631 368 551 642 631 539 b 417 94 631 197 551 94 z "},"ợ":{"ha":833,"x_min":0,"x_max":0,"o":"m 417 -17 b 753 368 619 -17 753 133 b 638 672 753 500 711 606 b 756 808 708 683 756 724 b 736 931 756 853 744 906 l 633 931 b 653 803 642 897 653 844 b 583 736 653 753 625 736 l 526 736 b 417 753 493 747 456 753 b 81 368 213 753 81 603 b 417 -17 81 133 213 -17 z m 417 94 b 203 368 281 94 203 197 b 417 642 203 539 281 642 b 631 368 551 642 631 539 b 417 94 631 197 551 94 z m 356 -208 l 478 -208 l 478 -83 l 356 -83 z "},"ờ":{"ha":833,"x_min":0,"x_max":0,"o":"m 358 831 l 456 831 l 364 1008 l 233 1008 z m 417 -17 b 753 368 619 -17 753 133 b 638 672 753 500 711 606 b 756 808 708 683 756 724 b 736 931 756 853 744 906 l 633 931 b 653 803 642 897 653 844 b 583 736 653 753 625 736 l 526 736 b 417 753 493 747 456 753 b 81 368 213 753 81 603 b 417 -17 81 133 213 -17 z m 417 94 b 203 368 281 94 203 197 b 417 642 203 539 281 642 b 631 368 551 642 631 539 b 417 94 631 197 551 94 z "},"ở":{"ha":833,"x_min":0,"x_max":0,"o":"m 439 819 b 511 947 472 844 511 883 b 383 1053 511 1017 472 1053 b 294 1042 342 1053 311 1047 l 294 961 b 372 972 311 967 339 972 b 422 925 408 972 422 953 b 356 819 422 892 392 856 z m 417 -17 b 753 368 619 -17 753 133 b 638 672 753 500 711 606 b 756 808 708 683 756 724 b 736 931 756 853 744 906 l 633 931 b 653 803 642 897 653 844 b 583 736 653 753 625 736 l 526 736 b 417 753 493 747 456 753 b 81 368 213 753 81 603 b 417 -17 81 133 213 -17 z m 417 94 b 203 368 281 94 203 197 b 417 642 203 539 281 642 b 631 368 551 642 631 539 b 417 94 631 197 551 94 z "},"ỡ":{"ha":833,"x_min":0,"x_max":0,"o":"m 483 847 b 619 1014 563 847 614 908 l 547 1014 b 489 922 542 944 524 922 b 419 956 467 922 449 932 b 314 1000 388 982 358 1000 b 181 838 239 1000 183 944 l 253 838 b 314 925 256 904 281 925 b 386 889 342 925 354 915 b 483 847 417 864 447 847 z m 417 -17 b 753 368 619 -17 753 133 b 638 672 753 500 711 606 b 756 808 708 683 756 724 b 736 931 756 853 744 906 l 633 931 b 653 803 642 897 653 844 b 583 736 653 753 625 736 l 526 736 b 417 753 493 747 456 753 b 81 368 213 753 81 603 b 417 -17 81 133 213 -17 z m 417 94 b 203 368 281 94 203 197 b 417 642 203 539 281 642 b 631 368 551 642 631 539 b 417 94 631 197 551 94 z "},"ő":{"ha":833,"x_min":0,"x_max":0,"o":"m 264 828 l 361 828 l 486 1006 l 356 1006 z m 458 828 l 556 828 l 681 1006 l 550 1006 z m 417 -17 b 753 368 619 -17 753 133 b 417 753 753 603 619 753 b 81 368 213 753 81 603 b 417 -17 81 133 213 -17 z m 417 94 b 203 368 281 94 203 197 b 417 642 203 539 281 642 b 631 368 551 642 631 539 b 417 94 631 197 551 94 z "},"ō":{"ha":833,"x_min":0,"x_max":0,"o":"m 229 868 l 601 868 l 601 968 l 229 968 z m 417 -17 b 753 368 619 -17 753 133 b 417 753 753 603 619 753 b 81 368 213 753 81 603 b 417 -17 81 133 213 -17 z m 417 94 b 203 368 281 94 203 197 b 417 642 203 539 281 642 b 631 368 551 642 631 539 b 417 94 631 197 551 94 z "},"ø":{"ha":833,"x_min":0,"x_max":0,"o":"m 111 -19 l 211 -19 l 243 29 b 417 -17 292 -1 350 -17 b 753 368 619 -17 753 133 b 656 654 753 489 718 588 l 722 756 l 622 756 l 590 707 b 417 753 542 738 483 753 b 81 368 213 753 81 603 b 178 82 81 247 115 149 z m 203 368 b 417 642 203 539 281 642 b 528 611 460 642 497 632 l 246 185 b 203 368 218 231 203 293 z m 417 94 b 306 124 374 94 336 104 l 588 550 b 631 368 615 504 631 443 b 417 94 631 197 551 94 z "},"õ":{"ha":833,"x_min":0,"x_max":0,"o":"m 500 847 b 636 1014 579 847 631 908 l 564 1014 b 506 922 558 944 540 922 b 436 956 483 922 465 932 b 331 1000 404 982 375 1000 b 197 838 256 1000 200 944 l 269 838 b 331 925 272 904 297 925 b 403 889 358 925 371 915 b 500 847 433 864 464 847 z m 417 -17 b 753 368 619 -17 753 133 b 417 753 753 603 619 753 b 81 368 213 753 81 603 b 417 -17 81 133 213 -17 z m 417 94 b 203 368 281 94 203 197 b 417 642 203 539 281 642 b 631 368 551 642 631 539 b 417 94 631 197 551 94 z "},"œ":{"ha":833,"x_min":0,"x_max":0,"o":"m 243 -17 b 414 97 315 -17 374 25 b 594 -17 454 25 515 -17 b 813 208 718 -17 778 46 l 694 218 b 594 94 676 129 649 94 b 475 332 525 94 482 179 l 821 332 l 821 385 b 594 753 821 624 742 753 b 414 643 515 753 454 714 b 243 753 375 714 317 753 b 14 368 103 753 14 604 b 243 -17 14 132 103 -17 z m 243 94 b 133 368 175 94 133 199 b 243 642 133 538 175 642 b 354 368 313 642 354 539 b 243 94 354 197 313 94 z m 476 435 b 588 642 488 574 524 642 b 700 435 653 642 690 574 z "},"p":{"ha":833,"x_min":0,"x_max":0,"o":"m 111 -208 l 228 -208 l 228 97 b 447 -17 267 26 351 -17 b 764 368 667 -17 764 165 b 447 753 764 571 667 753 b 221 618 347 753 265 706 l 219 736 l 111 736 z m 436 94 b 228 368 307 94 228 188 b 436 642 228 549 308 642 b 642 368 564 642 642 540 b 436 94 642 196 564 94 z "},"þ":{"ha":833,"x_min":0,"x_max":0,"o":"m 111 -208 l 231 -208 l 231 96 b 454 -17 275 25 349 -17 b 764 368 667 -17 764 165 b 454 753 764 571 667 753 b 231 636 349 753 272 708 l 231 986 l 111 986 z m 431 94 b 218 368 279 94 218 231 b 431 647 218 511 279 647 b 642 368 583 647 642 514 b 431 94 642 228 583 94 z "},"q":{"ha":833,"x_min":0,"x_max":0,"o":"m 722 -208 l 722 736 l 614 736 l 613 618 b 386 753 568 706 486 753 b 69 368 167 753 69 571 b 386 -17 69 165 167 -17 b 606 97 482 -17 567 26 l 606 -208 z m 397 94 b 192 368 269 94 192 196 b 397 642 192 540 269 642 b 606 368 525 642 606 549 b 397 94 606 188 526 94 z "},"r":{"ha":833,"x_min":0,"x_max":0,"o":"m 125 0 l 667 0 l 667 103 l 433 103 l 433 444 b 600 631 433 565 492 631 l 750 631 l 750 736 l 599 736 b 422 593 507 736 446 689 l 414 736 l 125 736 l 125 633 l 317 633 l 317 103 l 125 103 z "},"ŕ":{"ha":833,"x_min":0,"x_max":0,"o":"m 418 831 l 515 831 l 640 1008 l 510 1008 z m 125 0 l 667 0 l 667 103 l 433 103 l 433 444 b 600 631 433 565 492 631 l 750 631 l 750 736 l 599 736 b 422 593 507 736 446 689 l 414 736 l 125 736 l 125 633 l 317 633 l 317 103 l 125 103 z "},"ř":{"ha":833,"x_min":0,"x_max":0,"o":"m 276 1015 l 406 831 l 536 831 l 665 1015 l 568 1015 l 471 890 l 374 1015 z m 125 0 l 667 0 l 667 103 l 433 103 l 433 444 b 600 631 433 565 492 631 l 750 631 l 750 736 l 599 736 b 422 593 507 736 446 689 l 414 736 l 125 736 l 125 633 l 317 633 l 317 103 l 125 103 z "},"ŗ":{"ha":833,"x_min":0,"x_max":0,"o":"m 125 0 l 667 0 l 667 103 l 433 103 l 433 444 b 600 631 433 565 492 631 l 750 631 l 750 736 l 599 736 b 422 593 507 736 446 689 l 414 736 l 125 736 l 125 633 l 317 633 l 317 103 l 125 103 z m 276 -333 l 354 -333 l 443 -194 l 443 -75 l 304 -75 l 304 -200 l 351 -200 z "},"s":{"ha":833,"x_min":0,"x_max":0,"o":"m 431 -17 b 722 192 597 -17 722 61 b 433 411 722 314 661 374 b 250 531 300 433 250 456 b 408 642 250 593 300 642 b 586 508 508 642 569 586 l 708 517 b 410 753 686 644 592 753 b 131 531 229 753 131 658 b 408 308 131 411 194 346 b 603 192 569 281 603 256 b 431 94 603 125 539 94 b 233 240 314 94 247 149 l 111 232 b 431 -17 122 93 239 -17 z "},"ś":{"ha":833,"x_min":0,"x_max":0,"o":"m 367 831 l 464 831 l 589 1008 l 458 1008 z m 431 -17 b 722 192 597 -17 722 61 b 433 411 722 314 661 374 b 250 531 300 433 250 456 b 408 642 250 593 300 642 b 586 508 508 642 569 586 l 708 517 b 410 753 686 644 592 753 b 131 531 229 753 131 658 b 408 308 131 411 194 346 b 603 192 569 281 603 256 b 431 94 603 125 539 94 b 233 240 314 94 247 149 l 111 232 b 431 -17 122 93 239 -17 z "},"š":{"ha":833,"x_min":0,"x_max":0,"o":"m 225 1015 l 354 831 l 485 831 l 614 1015 l 517 1015 l 419 890 l 322 1015 z m 431 -17 b 722 192 597 -17 722 61 b 433 411 722 314 661 374 b 250 531 300 433 250 456 b 408 642 250 593 300 642 b 586 508 508 642 569 586 l 708 517 b 410 753 686 644 592 753 b 131 531 229 753 131 658 b 408 308 131 411 194 346 b 603 192 569 281 603 256 b 431 94 603 125 539 94 b 233 240 314 94 247 149 l 111 232 b 431 -17 122 93 239 -17 z "},"ş":{"ha":833,"x_min":0,"x_max":0,"o":"m 406 -306 b 561 -175 496 -306 561 -253 b 428 -50 561 -103 518 -54 l 453 -17 b 722 192 608 -10 722 67 b 433 411 722 314 661 374 b 250 531 300 433 250 456 b 408 642 250 593 300 642 b 586 508 508 642 569 586 l 708 517 b 410 753 686 644 592 753 b 131 531 229 753 131 658 b 408 308 131 411 194 346 b 603 192 569 281 603 256 b 431 94 603 125 539 94 b 233 240 314 94 247 149 l 111 232 b 369 -12 121 108 214 8 l 333 -69 l 372 -111 b 478 -172 461 -111 478 -137 b 403 -228 478 -207 450 -228 b 314 -169 357 -228 331 -211 l 243 -197 b 406 -306 263 -258 317 -306 z "},"ŝ":{"ha":833,"x_min":0,"x_max":0,"o":"m 224 831 l 321 831 l 418 956 l 515 831 l 613 831 l 483 1015 l 353 1015 z m 431 -17 b 722 192 597 -17 722 61 b 433 411 722 314 661 374 b 250 531 300 433 250 456 b 408 642 250 593 300 642 b 586 508 508 642 569 586 l 708 517 b 410 753 686 644 592 753 b 131 531 229 753 131 658 b 408 308 131 411 194 346 b 603 192 569 281 603 256 b 431 94 603 125 539 94 b 233 240 314 94 247 149 l 111 232 b 431 -17 122 93 239 -17 z "},"ș":{"ha":833,"x_min":0,"x_max":0,"o":"m 431 -17 b 722 192 597 -17 722 61 b 433 411 722 314 661 374 b 250 531 300 433 250 456 b 408 642 250 593 300 642 b 586 508 508 642 569 586 l 708 517 b 410 753 686 644 592 753 b 131 531 229 753 131 658 b 408 308 131 411 194 346 b 603 192 569 281 603 256 b 431 94 603 125 539 94 b 233 240 314 94 247 149 l 111 232 b 431 -17 122 93 239 -17 z m 322 -333 l 400 -333 l 489 -194 l 489 -75 l 350 -75 l 350 -200 l 397 -200 z "},"ß":{"ha":833,"x_min":0,"x_max":0,"o":"m 111 0 l 228 0 l 228 697 b 411 889 228 817 300 889 b 581 742 525 889 581 828 b 397 579 581 643 513 579 l 336 579 l 336 469 l 397 469 b 639 286 557 469 639 401 b 411 111 639 168 557 111 l 322 111 l 322 0 l 411 0 b 761 281 633 0 761 106 b 551 535 761 408 679 504 b 700 744 643 565 700 642 b 411 1000 700 896 592 1000 b 111 697 231 1000 111 883 z "},"t":{"ha":833,"x_min":0,"x_max":0,"o":"m 525 0 l 722 0 l 722 103 l 525 103 b 429 203 460 103 429 135 l 429 633 l 722 633 l 722 736 l 429 736 l 429 908 l 313 908 l 313 736 l 69 736 l 69 633 l 313 633 l 313 203 b 525 0 313 65 382 0 z "},"ŧ":{"ha":833,"x_min":0,"x_max":0,"o":"m 150 356 l 313 356 l 313 203 b 525 0 313 65 382 0 l 722 0 l 722 103 l 525 103 b 429 203 460 103 429 135 l 429 356 l 650 356 l 650 450 l 429 450 l 429 633 l 722 633 l 722 736 l 429 736 l 429 908 l 313 908 l 313 736 l 69 736 l 69 633 l 313 633 l 313 450 l 150 450 z "},"ť":{"ha":833,"x_min":0,"x_max":0,"o":"m 526 796 l 610 796 l 685 1149 l 568 1149 z m 525 0 l 722 0 l 722 103 l 525 103 b 429 203 460 103 429 135 l 429 633 l 722 633 l 722 736 l 429 736 l 429 908 l 313 908 l 313 736 l 69 736 l 69 633 l 313 633 l 313 203 b 525 0 313 65 382 0 z "},"ţ":{"ha":833,"x_min":0,"x_max":0,"o":"m 486 -306 b 642 -175 576 -306 642 -253 b 508 -50 642 -103 599 -54 l 546 0 l 722 0 l 722 103 l 525 103 b 429 203 460 103 429 135 l 429 633 l 722 633 l 722 736 l 429 736 l 429 908 l 313 908 l 313 736 l 69 736 l 69 633 l 313 633 l 313 203 b 461 6 313 88 361 24 l 414 -69 l 453 -111 b 558 -172 542 -111 558 -137 b 483 -228 558 -207 531 -228 b 394 -169 438 -228 411 -211 l 324 -197 b 486 -306 343 -258 397 -306 z "},"ț":{"ha":833,"x_min":0,"x_max":0,"o":"m 525 0 l 722 0 l 722 103 l 525 103 b 429 203 460 103 429 135 l 429 633 l 722 633 l 722 736 l 429 736 l 429 908 l 313 908 l 313 736 l 69 736 l 69 633 l 313 633 l 313 203 b 525 0 313 65 382 0 z m 403 -333 l 481 -333 l 569 -194 l 569 -75 l 431 -75 l 431 -200 l 478 -200 z "},"u":{"ha":833,"x_min":0,"x_max":0,"o":"m 365 -17 b 589 119 471 -17 549 32 l 589 0 l 700 0 l 700 736 l 583 736 l 583 297 b 397 86 583 165 513 86 b 242 294 292 86 242 151 l 242 736 l 125 736 l 125 263 b 365 -17 125 88 219 -17 z "},"ú":{"ha":833,"x_min":0,"x_max":0,"o":"m 354 831 l 451 831 l 576 1008 l 446 1008 z m 365 -17 b 589 119 471 -17 549 32 l 589 0 l 700 0 l 700 736 l 583 736 l 583 297 b 397 86 583 165 513 86 b 242 294 292 86 242 151 l 242 736 l 125 736 l 125 263 b 365 -17 125 88 219 -17 z "},"ŭ":{"ha":833,"x_min":0,"x_max":0,"o":"m 407 838 b 601 1015 521 838 596 907 l 521 1015 b 407 924 513 951 471 924 b 293 1015 343 924 301 951 l 213 1015 b 407 838 218 907 293 838 z m 365 -17 b 589 119 471 -17 549 32 l 589 0 l 700 0 l 700 736 l 583 736 l 583 297 b 397 86 583 165 513 86 b 242 294 292 86 242 151 l 242 736 l 125 736 l 125 263 b 365 -17 125 88 219 -17 z "},"û":{"ha":833,"x_min":0,"x_max":0,"o":"m 211 831 l 308 831 l 406 956 l 503 831 l 600 831 l 471 1015 l 340 1015 z m 365 -17 b 589 119 471 -17 549 32 l 589 0 l 700 0 l 700 736 l 583 736 l 583 297 b 397 86 583 165 513 86 b 242 294 292 86 242 151 l 242 736 l 125 736 l 125 263 b 365 -17 125 88 219 -17 z "},"ü":{"ha":833,"x_min":0,"x_max":0,"o":"m 225 851 l 347 851 l 347 988 l 225 988 z m 467 851 l 589 851 l 589 988 l 467 988 z m 365 -17 b 589 119 471 -17 549 32 l 589 0 l 700 0 l 700 736 l 583 736 l 583 297 b 397 86 583 165 513 86 b 242 294 292 86 242 151 l 242 736 l 125 736 l 125 263 b 365 -17 125 88 219 -17 z "},"ụ":{"ha":833,"x_min":0,"x_max":0,"o":"m 365 -17 b 589 119 471 -17 549 32 l 589 0 l 700 0 l 700 736 l 583 736 l 583 297 b 397 86 583 165 513 86 b 242 294 292 86 242 151 l 242 736 l 125 736 l 125 263 b 365 -17 125 88 219 -17 z m 346 -208 l 468 -208 l 468 -83 l 346 -83 z "},"ù":{"ha":833,"x_min":0,"x_max":0,"o":"m 365 831 l 463 831 l 371 1008 l 240 1008 z m 365 -17 b 589 119 471 -17 549 32 l 589 0 l 700 0 l 700 736 l 583 736 l 583 297 b 397 86 583 165 513 86 b 242 294 292 86 242 151 l 242 736 l 125 736 l 125 263 b 365 -17 125 88 219 -17 z "},"ủ":{"ha":833,"x_min":0,"x_max":0,"o":"m 446 819 b 518 947 479 844 518 883 b 390 1053 518 1017 479 1053 b 301 1042 349 1053 318 1047 l 301 961 b 379 972 318 967 346 972 b 429 925 415 972 429 953 b 363 819 429 892 399 856 z m 365 -17 b 589 119 471 -17 549 32 l 589 0 l 700 0 l 700 736 l 583 736 l 583 297 b 397 86 583 165 513 86 b 242 294 292 86 242 151 l 242 736 l 125 736 l 125 263 b 365 -17 125 88 219 -17 z "},"ư":{"ha":833,"x_min":0,"x_max":0,"o":"m 304 -17 b 528 119 410 -17 488 32 l 528 0 l 639 0 l 639 671 b 769 808 717 679 769 719 b 750 931 769 853 758 906 l 647 931 b 667 803 656 897 667 844 b 597 736 667 753 639 736 l 522 736 l 522 297 b 336 86 522 165 451 86 b 181 294 231 86 181 151 l 181 736 l 64 736 l 64 263 b 304 -17 64 88 158 -17 z "},"ứ":{"ha":833,"x_min":0,"x_max":0,"o":"m 293 831 l 390 831 l 515 1008 l 385 1008 z m 304 -17 b 528 119 410 -17 488 32 l 528 0 l 639 0 l 639 671 b 769 808 717 679 769 719 b 750 931 769 853 758 906 l 647 931 b 667 803 656 897 667 844 b 597 736 667 753 639 736 l 522 736 l 522 297 b 336 86 522 165 451 86 b 181 294 231 86 181 151 l 181 736 l 64 736 l 64 263 b 304 -17 64 88 158 -17 z "},"ự":{"ha":833,"x_min":0,"x_max":0,"o":"m 304 -17 b 528 119 410 -17 488 32 l 528 0 l 639 0 l 639 671 b 769 808 717 679 769 719 b 750 931 769 853 758 906 l 647 931 b 667 803 656 897 667 844 b 597 736 667 753 639 736 l 522 736 l 522 297 b 336 86 522 165 451 86 b 181 294 231 86 181 151 l 181 736 l 64 736 l 64 263 b 304 -17 64 88 158 -17 z m 285 -208 l 407 -208 l 407 -83 l 285 -83 z "},"ừ":{"ha":833,"x_min":0,"x_max":0,"o":"m 304 831 l 401 831 l 310 1008 l 179 1008 z m 304 -17 b 528 119 410 -17 488 32 l 528 0 l 639 0 l 639 671 b 769 808 717 679 769 719 b 750 931 769 853 758 906 l 647 931 b 667 803 656 897 667 844 b 597 736 667 753 639 736 l 522 736 l 522 297 b 336 86 522 165 451 86 b 181 294 231 86 181 151 l 181 736 l 64 736 l 64 263 b 304 -17 64 88 158 -17 z "},"ử":{"ha":833,"x_min":0,"x_max":0,"o":"m 385 819 b 457 947 418 844 457 883 b 329 1053 457 1017 418 1053 b 240 1042 288 1053 257 1047 l 240 961 b 318 972 257 967 285 972 b 368 925 354 972 368 953 b 301 819 368 892 338 856 z m 304 -17 b 528 119 410 -17 488 32 l 528 0 l 639 0 l 639 671 b 769 808 717 679 769 719 b 750 931 769 853 758 906 l 647 931 b 667 803 656 897 667 844 b 597 736 667 753 639 736 l 522 736 l 522 297 b 336 86 522 165 451 86 b 181 294 231 86 181 151 l 181 736 l 64 736 l 64 263 b 304 -17 64 88 158 -17 z "},"ữ":{"ha":833,"x_min":0,"x_max":0,"o":"m 429 847 b 565 1014 508 847 560 908 l 493 1014 b 435 922 488 944 469 922 b 365 956 413 922 394 932 b 260 1000 333 982 304 1000 b 126 838 185 1000 129 944 l 199 838 b 260 925 201 904 226 925 b 332 889 288 925 300 915 b 429 847 363 864 393 847 z m 304 -17 b 528 119 410 -17 488 32 l 528 0 l 639 0 l 639 671 b 769 808 717 679 769 719 b 750 931 769 853 758 906 l 647 931 b 667 803 656 897 667 844 b 597 736 667 753 639 736 l 522 736 l 522 297 b 336 86 522 165 451 86 b 181 294 231 86 181 151 l 181 736 l 64 736 l 64 263 b 304 -17 64 88 158 -17 z "},"ű":{"ha":833,"x_min":0,"x_max":0,"o":"m 254 828 l 351 828 l 476 1006 l 346 1006 z m 449 828 l 546 828 l 671 1006 l 540 1006 z m 365 -17 b 589 119 471 -17 549 32 l 589 0 l 700 0 l 700 736 l 583 736 l 583 297 b 397 86 583 165 513 86 b 242 294 292 86 242 151 l 242 736 l 125 736 l 125 263 b 365 -17 125 88 219 -17 z "},"ū":{"ha":833,"x_min":0,"x_max":0,"o":"m 219 868 l 592 868 l 592 968 l 219 968 z m 365 -17 b 589 119 471 -17 549 32 l 589 0 l 700 0 l 700 736 l 583 736 l 583 297 b 397 86 583 165 513 86 b 242 294 292 86 242 151 l 242 736 l 125 736 l 125 263 b 365 -17 125 88 219 -17 z "},"ų":{"ha":833,"x_min":0,"x_max":0,"o":"m 365 -17 b 589 119 471 -17 549 32 l 589 0 l 593 0 l 560 -42 b 503 -181 521 -90 503 -133 b 628 -292 503 -250 550 -292 b 747 -256 681 -292 725 -278 l 714 -178 b 650 -197 697 -192 669 -197 b 608 -156 624 -197 608 -183 b 651 -62 608 -133 615 -110 l 700 0 l 700 736 l 583 736 l 583 297 b 397 86 583 165 513 86 b 242 294 292 86 242 151 l 242 736 l 125 736 l 125 263 b 365 -17 125 88 219 -17 z "},"ů":{"ha":833,"x_min":0,"x_max":0,"o":"m 407 800 b 535 928 479 800 535 856 b 407 1056 535 1000 479 1056 b 279 928 335 1056 279 1000 b 407 800 279 856 335 800 z m 407 869 b 349 928 374 869 349 894 b 407 986 349 961 374 986 b 465 928 440 986 465 961 b 407 869 465 894 440 869 z m 365 -17 b 589 119 471 -17 549 32 l 589 0 l 700 0 l 700 736 l 583 736 l 583 297 b 397 86 583 165 513 86 b 242 294 292 86 242 151 l 242 736 l 125 736 l 125 263 b 365 -17 125 88 219 -17 z "},"ũ":{"ha":833,"x_min":0,"x_max":0,"o":"m 490 847 b 626 1014 569 847 621 908 l 554 1014 b 496 922 549 944 531 922 b 426 956 474 922 456 932 b 321 1000 394 982 365 1000 b 188 838 246 1000 190 944 l 260 838 b 321 925 263 904 288 925 b 393 889 349 925 361 915 b 490 847 424 864 454 847 z m 365 -17 b 589 119 471 -17 549 32 l 589 0 l 700 0 l 700 736 l 583 736 l 583 297 b 397 86 583 165 513 86 b 242 294 292 86 242 151 l 242 736 l 125 736 l 125 263 b 365 -17 125 88 219 -17 z "},"v":{"ha":833,"x_min":0,"x_max":0,"o":"m 343 0 l 490 0 l 764 736 l 636 736 l 417 119 l 197 736 l 69 736 z "},"w":{"ha":833,"x_min":0,"x_max":0,"o":"m 174 0 l 319 0 l 417 464 l 514 0 l 661 0 l 806 736 l 678 736 l 582 122 l 474 633 l 360 633 l 251 122 l 156 736 l 28 736 z "},"ẃ":{"ha":833,"x_min":0,"x_max":0,"o":"m 364 831 l 461 831 l 586 1008 l 456 1008 z m 174 0 l 319 0 l 417 464 l 514 0 l 661 0 l 806 736 l 678 736 l 582 122 l 474 633 l 360 633 l 251 122 l 156 736 l 28 736 z "},"ŵ":{"ha":833,"x_min":0,"x_max":0,"o":"m 221 831 l 318 831 l 415 956 l 513 831 l 610 831 l 481 1015 l 350 1015 z m 174 0 l 319 0 l 417 464 l 514 0 l 661 0 l 806 736 l 678 736 l 582 122 l 474 633 l 360 633 l 251 122 l 156 736 l 28 736 z "},"ẅ":{"ha":833,"x_min":0,"x_max":0,"o":"m 235 851 l 357 851 l 357 988 l 235 988 z m 476 851 l 599 851 l 599 988 l 476 988 z m 174 0 l 319 0 l 417 464 l 514 0 l 661 0 l 806 736 l 678 736 l 582 122 l 474 633 l 360 633 l 251 122 l 156 736 l 28 736 z "},"ẁ":{"ha":833,"x_min":0,"x_max":0,"o":"m 375 831 l 472 831 l 381 1008 l 250 1008 z m 174 0 l 319 0 l 417 464 l 514 0 l 661 0 l 806 736 l 678 736 l 582 122 l 474 633 l 360 633 l 251 122 l 156 736 l 28 736 z "},"x":{"ha":833,"x_min":0,"x_max":0,"o":"m 75 0 l 214 0 l 418 297 l 622 0 l 758 0 l 490 375 l 746 736 l 607 736 l 418 458 l 225 736 l 89 736 l 346 378 z "},"y":{"ha":833,"x_min":0,"x_max":0,"o":"m 189 -208 l 285 -208 b 463 -93 383 -208 435 -172 l 761 736 l 633 736 l 424 122 l 200 736 l 72 736 l 346 14 l 386 14 l 360 -56 b 274 -106 346 -90 325 -106 l 189 -106 z "},"ý":{"ha":833,"x_min":0,"x_max":0,"o":"m 365 831 l 463 831 l 588 1008 l 457 1008 z m 189 -208 l 285 -208 b 463 -93 383 -208 435 -172 l 761 736 l 633 736 l 424 122 l 200 736 l 72 736 l 346 14 l 386 14 l 360 -56 b 274 -106 346 -90 325 -106 l 189 -106 z "},"ŷ":{"ha":833,"x_min":0,"x_max":0,"o":"m 222 831 l 319 831 l 417 956 l 514 831 l 611 831 l 482 1015 l 351 1015 z m 189 -208 l 285 -208 b 463 -93 383 -208 435 -172 l 761 736 l 633 736 l 424 122 l 200 736 l 72 736 l 346 14 l 386 14 l 360 -56 b 274 -106 346 -90 325 -106 l 189 -106 z "},"ÿ":{"ha":833,"x_min":0,"x_max":0,"o":"m 236 851 l 358 851 l 358 988 l 236 988 z m 478 851 l 600 851 l 600 988 l 478 988 z m 189 -208 l 285 -208 b 463 -93 383 -208 435 -172 l 761 736 l 633 736 l 424 122 l 200 736 l 72 736 l 346 14 l 386 14 l 360 -56 b 274 -106 346 -90 325 -106 l 189 -106 z "},"ỵ":{"ha":833,"x_min":0,"x_max":0,"o":"m 189 -208 l 285 -208 b 463 -93 383 -208 435 -172 l 761 736 l 633 736 l 424 122 l 200 736 l 72 736 l 346 14 l 386 14 l 360 -56 b 274 -106 346 -90 325 -106 l 189 -106 z m 561 -208 l 683 -208 l 683 -83 l 561 -83 z "},"ỳ":{"ha":833,"x_min":0,"x_max":0,"o":"m 376 831 l 474 831 l 382 1008 l 251 1008 z m 189 -208 l 285 -208 b 463 -93 383 -208 435 -172 l 761 736 l 633 736 l 424 122 l 200 736 l 72 736 l 346 14 l 386 14 l 360 -56 b 274 -106 346 -90 325 -106 l 189 -106 z "},"ỷ":{"ha":833,"x_min":0,"x_max":0,"o":"m 457 819 b 529 947 490 844 529 883 b 401 1053 529 1017 490 1053 b 313 1042 360 1053 329 1047 l 313 961 b 390 972 329 967 357 972 b 440 925 426 972 440 953 b 374 819 440 892 410 856 z m 189 -208 l 285 -208 b 463 -93 383 -208 435 -172 l 761 736 l 633 736 l 424 122 l 200 736 l 72 736 l 346 14 l 386 14 l 360 -56 b 274 -106 346 -90 325 -106 l 189 -106 z "},"ỹ":{"ha":833,"x_min":0,"x_max":0,"o":"m 501 847 b 638 1014 581 847 632 908 l 565 1014 b 507 922 560 944 542 922 b 438 956 485 922 467 932 b 332 1000 406 982 376 1000 b 199 838 257 1000 201 944 l 271 838 b 332 925 274 904 299 925 b 404 889 360 925 372 915 b 501 847 435 864 465 847 z m 189 -208 l 285 -208 b 463 -93 383 -208 435 -172 l 761 736 l 633 736 l 424 122 l 200 736 l 72 736 l 346 14 l 386 14 l 360 -56 b 274 -106 346 -90 325 -106 l 189 -106 z "},"z":{"ha":833,"x_min":0,"x_max":0,"o":"m 114 0 l 719 0 l 719 103 l 242 103 l 708 619 l 708 736 l 128 736 l 128 633 l 581 633 l 114 117 z "},"ź":{"ha":833,"x_min":0,"x_max":0,"o":"m 365 831 l 463 831 l 588 1008 l 457 1008 z m 114 0 l 719 0 l 719 103 l 242 103 l 708 619 l 708 736 l 128 736 l 128 633 l 581 633 l 114 117 z "},"ž":{"ha":833,"x_min":0,"x_max":0,"o":"m 224 1015 l 353 831 l 483 831 l 613 1015 l 515 1015 l 418 890 l 321 1015 z m 114 0 l 719 0 l 719 103 l 242 103 l 708 619 l 708 736 l 128 736 l 128 633 l 581 633 l 114 117 z "},"ż":{"ha":833,"x_min":0,"x_max":0,"o":"m 356 851 l 478 851 l 478 988 l 356 988 z m 114 0 l 719 0 l 719 103 l 242 103 l 708 619 l 708 736 l 128 736 l 128 633 l 581 633 l 114 117 z "},"ꞌ":{"ha":833,"x_min":0,"x_max":0,"o":"m 375 525 l 458 525 l 478 797 l 478 986 l 356 986 l 356 797 z "},"ª":{"ha":833,"x_min":0,"x_max":0,"o":"m 342 522 b 499 606 421 522 476 558 l 500 601 b 599 522 508 540 549 522 b 642 526 619 522 636 525 l 642 610 l 626 610 b 601 643 610 610 601 618 l 601 817 b 399 1008 601 940 532 1008 b 189 856 282 1008 206 954 l 308 850 b 399 919 318 894 346 919 b 485 825 453 919 485 888 l 331 794 b 181 647 235 775 181 731 b 342 522 181 568 244 522 z m 361 604 b 300 657 321 604 300 624 b 369 722 300 688 321 711 l 485 747 l 485 715 b 361 604 485 647 433 604 z "},"º":{"ha":833,"x_min":0,"x_max":0,"o":"m 417 522 b 653 765 560 522 653 617 b 417 1008 653 911 560 1008 b 181 765 272 1008 181 913 b 417 522 181 617 272 522 z m 417 613 b 297 765 339 613 297 671 b 417 918 297 857 339 918 b 536 765 492 918 536 860 b 417 613 536 669 492 613 z "},"А":{"ha":833,"x_min":0,"x_max":0,"o":"m 36 0 l 164 0 l 244 281 l 589 281 l 669 0 l 797 0 l 497 986 l 336 986 z m 417 878 l 556 397 l 278 397 z "},"Б":{"ha":833,"x_min":0,"x_max":0,"o":"m 111 0 l 429 0 b 778 299 649 0 778 111 b 429 603 778 489 649 603 l 231 603 l 231 869 l 681 869 l 681 986 l 111 986 z m 231 117 l 231 486 l 429 486 b 653 299 578 486 653 422 b 429 117 653 178 578 117 z "},"В":{"ha":833,"x_min":0,"x_max":0,"o":"m 125 0 l 438 0 b 772 275 646 0 772 104 b 551 508 772 403 690 490 b 731 717 660 528 731 610 b 403 986 731 883 619 986 l 125 986 z m 244 560 l 244 869 l 408 869 b 606 714 544 869 606 814 b 408 560 606 615 544 560 z m 244 117 l 244 443 l 439 443 b 647 275 575 443 647 381 b 439 117 647 175 581 117 z "},"Г":{"ha":833,"x_min":0,"x_max":0,"o":"m 139 0 l 258 0 l 258 869 l 764 869 l 764 986 l 139 986 z "},"Ѓ":{"ha":833,"x_min":0,"x_max":0,"o":"m 400 1081 l 497 1081 l 622 1258 l 492 1258 z m 139 0 l 258 0 l 258 869 l 764 869 l 764 986 l 139 986 z "},"Ґ":{"ha":833,"x_min":0,"x_max":0,"o":"m 139 0 l 258 0 l 258 869 l 764 869 l 764 1201 l 644 1201 l 644 986 l 139 986 z "},"Ғ":{"ha":833,"x_min":0,"x_max":0,"o":"m 139 0 l 258 0 l 258 417 l 592 417 l 592 528 l 258 528 l 258 869 l 764 869 l 764 986 l 139 986 l 139 528 l 28 528 l 28 417 l 139 417 z "},"Д":{"ha":833,"x_min":0,"x_max":0,"o":"m 28 -208 l 147 -208 l 147 0 l 686 0 l 686 -208 l 806 -208 l 806 117 l 700 117 l 700 986 l 269 986 l 200 297 b 133 117 192 208 175 167 l 28 117 z m 261 117 b 319 286 289 150 311 203 l 381 869 l 581 869 l 581 117 z "},"Е":{"ha":833,"x_min":0,"x_max":0,"o":"m 125 0 l 736 0 l 736 117 l 244 117 l 244 438 l 708 438 l 708 551 l 244 551 l 244 869 l 725 869 l 725 986 l 125 986 z "},"Ѐ":{"ha":833,"x_min":0,"x_max":0,"o":"m 400 1082 l 497 1082 l 406 1260 l 275 1260 z m 125 0 l 736 0 l 736 117 l 244 117 l 244 438 l 708 438 l 708 551 l 244 551 l 244 869 l 725 869 l 725 986 l 125 986 z "},"Ё":{"ha":833,"x_min":0,"x_max":0,"o":"m 260 1103 l 382 1103 l 382 1239 l 260 1239 z m 501 1103 l 624 1103 l 624 1239 l 501 1239 z m 125 0 l 736 0 l 736 117 l 244 117 l 244 438 l 708 438 l 708 551 l 244 551 l 244 869 l 725 869 l 725 986 l 125 986 z "},"Ж":{"ha":833,"x_min":0,"x_max":0,"o":"m 144 0 l 357 475 l 357 0 l 476 0 l 476 475 l 689 0 l 822 0 l 593 493 l 811 986 l 678 986 l 476 513 l 476 986 l 357 986 l 357 513 l 156 986 l 22 986 l 240 493 l 11 0 z "},"З":{"ha":833,"x_min":0,"x_max":0,"o":"m 422 -22 b 764 264 651 -22 764 107 b 583 497 764 385 707 460 b 761 722 708 528 761 601 b 422 1008 761 882 628 1008 b 69 729 197 1008 85 881 l 194 721 b 422 892 207 828 267 892 b 636 718 564 892 636 818 b 450 558 636 593 567 558 l 278 558 l 278 442 l 450 442 b 639 269 564 442 639 385 b 422 94 639 153 554 94 b 194 263 271 94 204 160 l 69 254 b 422 -22 78 96 204 -22 z "},"И":{"ha":833,"x_min":0,"x_max":0,"o":"m 97 0 l 267 0 l 617 851 l 617 0 l 736 0 l 736 986 l 567 986 l 217 135 l 217 986 l 97 986 z "},"Й":{"ha":833,"x_min":0,"x_max":0,"o":"m 417 1088 b 617 1265 531 1088 606 1154 l 517 1265 b 417 1160 511 1199 481 1160 b 317 1265 353 1160 322 1199 l 217 1265 b 417 1088 228 1154 303 1088 z m 97 0 l 267 0 l 617 851 l 617 0 l 736 0 l 736 986 l 567 986 l 217 135 l 217 986 l 97 986 z "},"Ѝ":{"ha":833,"x_min":0,"x_max":0,"o":"m 375 1081 l 472 1081 l 381 1258 l 250 1258 z m 97 0 l 267 0 l 617 851 l 617 0 l 736 0 l 736 986 l 567 986 l 217 135 l 217 986 l 97 986 z "},"К":{"ha":833,"x_min":0,"x_max":0,"o":"m 83 0 l 203 0 l 203 478 l 631 0 l 778 0 l 322 493 l 764 986 l 617 986 l 203 510 l 203 986 l 83 986 z "},"Ќ":{"ha":833,"x_min":0,"x_max":0,"o":"m 356 1081 l 453 1081 l 578 1258 l 447 1258 z m 83 0 l 203 0 l 203 478 l 631 0 l 778 0 l 322 493 l 764 986 l 617 986 l 203 510 l 203 986 l 83 986 z "},"Л":{"ha":833,"x_min":0,"x_max":0,"o":"m 42 0 l 93 0 b 278 204 215 0 261 51 l 349 869 l 631 869 l 631 0 l 750 0 l 750 986 l 240 986 l 160 211 b 75 117 151 138 125 117 l 42 117 z "},"М":{"ha":833,"x_min":0,"x_max":0,"o":"m 364 111 l 469 111 l 644 829 l 644 0 l 764 0 l 764 986 l 583 986 l 417 290 l 250 986 l 69 986 l 69 0 l 189 0 l 189 829 z "},"Н":{"ha":833,"x_min":0,"x_max":0,"o":"m 83 0 l 203 0 l 203 438 l 631 438 l 631 0 l 750 0 l 750 986 l 631 986 l 631 554 l 203 554 l 203 986 l 83 986 z "},"О":{"ha":833,"x_min":0,"x_max":0,"o":"m 417 -22 b 781 492 650 -22 781 163 b 417 1008 781 824 650 1008 b 53 492 183 1008 53 824 b 417 -22 53 163 183 -22 z m 417 94 b 178 492 264 94 178 233 b 417 892 178 750 264 892 b 656 492 569 892 656 750 b 417 94 656 233 569 94 z "},"П":{"ha":833,"x_min":0,"x_max":0,"o":"m 83 0 l 203 0 l 203 869 l 631 869 l 631 0 l 750 0 l 750 986 l 83 986 z "},"Р":{"ha":833,"x_min":0,"x_max":0,"o":"m 125 0 l 244 0 l 244 383 l 425 383 b 764 685 631 383 764 496 b 425 986 764 874 631 986 l 125 986 z m 244 500 l 244 869 l 411 869 b 639 685 567 869 639 804 b 411 500 639 565 567 500 z "},"С":{"ha":833,"x_min":0,"x_max":0,"o":"m 419 -22 b 772 325 606 -22 736 108 l 646 332 b 419 94 618 175 533 94 b 178 492 263 94 178 238 b 419 892 178 747 263 892 b 636 676 522 892 604 818 l 764 685 b 419 1008 722 889 593 1008 b 53 492 183 1008 53 810 b 419 -22 53 176 183 -22 z "},"Т":{"ha":833,"x_min":0,"x_max":0,"o":"m 357 0 l 476 0 l 476 869 l 778 869 l 778 986 l 56 986 l 56 869 l 357 869 z "},"У":{"ha":833,"x_min":0,"x_max":0,"o":"m 131 0 l 281 0 b 450 115 369 0 419 33 l 778 986 l 649 986 l 418 375 l 185 986 l 56 986 l 339 264 l 378 264 l 342 169 b 271 117 325 125 306 117 l 131 117 z "},"Ў":{"ha":833,"x_min":0,"x_max":0,"o":"m 417 1088 b 617 1265 531 1088 606 1154 l 517 1265 b 417 1160 511 1199 481 1160 b 317 1265 353 1160 322 1199 l 217 1265 b 417 1088 228 1154 303 1088 z m 131 0 l 281 0 b 450 115 369 0 419 33 l 778 986 l 649 986 l 418 375 l 185 986 l 56 986 l 339 264 l 378 264 l 342 169 b 271 117 325 125 306 117 l 131 117 z "},"Ф":{"ha":833,"x_min":0,"x_max":0,"o":"m 358 -22 l 475 -22 l 475 101 b 817 493 692 101 817 257 b 475 885 817 729 692 885 l 475 1008 l 358 1008 l 358 885 b 17 493 142 885 17 729 b 358 101 17 257 142 101 z m 142 493 b 358 768 142 674 210 768 l 358 218 b 142 493 211 218 142 313 z m 475 218 l 475 768 b 692 493 622 768 692 674 b 475 218 692 313 622 218 z "},"Х":{"ha":833,"x_min":0,"x_max":0,"o":"m 69 0 l 206 0 l 415 401 l 625 0 l 764 0 l 492 494 l 758 986 l 622 986 l 418 590 l 214 986 l 75 986 l 342 496 z "},"Ц":{"ha":833,"x_min":0,"x_max":0,"o":"m 50 0 l 689 0 l 689 -208 l 808 -208 l 808 117 l 703 117 l 703 986 l 583 986 l 583 117 l 169 117 l 169 986 l 50 986 z "},"Ч":{"ha":833,"x_min":0,"x_max":0,"o":"m 617 0 l 736 0 l 736 986 l 617 986 l 617 544 b 361 444 561 494 472 444 b 189 628 254 444 189 489 l 189 986 l 69 986 l 69 619 b 356 328 69 424 181 328 b 617 414 465 328 557 368 z "},"Ш":{"ha":833,"x_min":0,"x_max":0,"o":"m 56 0 l 778 0 l 778 986 l 658 986 l 658 117 l 476 117 l 476 986 l 357 986 l 357 117 l 175 117 l 175 986 l 56 986 z "},"Щ":{"ha":833,"x_min":0,"x_max":0,"o":"m 25 0 l 700 0 l 700 -208 l 819 -208 l 819 117 l 719 117 l 719 986 l 600 986 l 600 117 l 432 117 l 432 986 l 313 986 l 313 117 l 144 117 l 144 986 l 25 986 z "},"Џ":{"ha":833,"x_min":0,"x_max":0,"o":"m 83 0 l 361 0 l 361 -208 l 472 -208 l 472 0 l 750 0 l 750 986 l 631 986 l 631 117 l 203 117 l 203 986 l 83 986 z "},"Ь":{"ha":833,"x_min":0,"x_max":0,"o":"m 111 0 l 429 0 b 778 313 649 0 778 111 b 429 631 778 517 649 631 l 231 631 l 231 986 l 111 986 z m 231 117 l 231 514 l 429 514 b 653 313 578 514 653 450 b 429 117 653 178 578 117 z "},"Ы":{"ha":833,"x_min":0,"x_max":0,"o":"m 42 0 l 244 0 b 593 313 464 0 593 111 b 244 631 593 517 464 631 l 161 631 l 161 986 l 42 986 z m 672 0 l 792 0 l 792 986 l 672 986 z m 161 117 l 161 514 l 244 514 b 468 313 393 514 468 450 b 244 117 468 178 393 117 z "},"Ъ":{"ha":833,"x_min":0,"x_max":0,"o":"m 171 0 l 443 0 b 792 313 663 0 792 111 b 443 631 792 517 663 631 l 290 631 l 290 986 l 28 986 l 28 869 l 171 869 z m 290 117 l 290 514 l 443 514 b 667 313 592 514 667 450 b 443 117 667 178 592 117 z "},"Љ":{"ha":833,"x_min":0,"x_max":0,"o":"m 14 0 l 51 0 b 231 204 174 0 222 51 l 264 869 l 393 869 l 393 0 l 540 0 b 819 313 704 0 819 111 b 540 631 819 517 704 631 l 513 631 l 513 986 l 156 986 l 113 211 b 33 117 108 138 83 117 l 14 117 z m 513 117 l 513 514 l 540 514 b 694 313 624 514 694 450 b 540 117 694 178 624 117 z "},"Њ":{"ha":833,"x_min":0,"x_max":0,"o":"m 42 0 l 161 0 l 161 438 l 379 438 l 379 0 l 540 0 b 819 296 704 0 819 97 b 540 594 819 510 704 594 l 499 594 l 499 986 l 379 986 l 379 554 l 161 554 l 161 986 l 42 986 z m 499 117 l 499 478 l 540 478 b 694 296 626 478 694 443 b 540 117 694 164 626 117 z "},"Ѕ":{"ha":833,"x_min":0,"x_max":0,"o":"m 432 -22 b 772 243 633 -22 772 86 b 446 556 772 406 688 489 b 210 733 260 607 210 640 b 410 892 210 828 288 892 b 629 686 543 892 613 806 l 754 694 b 413 1008 732 875 615 1008 b 85 728 210 1008 85 893 b 371 453 85 581 165 511 b 647 246 600 388 647 339 b 435 94 647 149 572 94 b 186 324 296 94 206 176 l 61 315 b 432 -22 78 115 224 -22 z "},"Є":{"ha":833,"x_min":0,"x_max":0,"o":"m 424 -22 b 776 325 610 -22 740 108 l 650 332 b 424 94 622 175 538 94 b 183 433 279 94 196 215 l 613 433 l 613 550 l 183 550 l 183 554 b 424 892 197 771 281 892 b 640 676 526 892 608 818 l 768 685 b 424 1008 726 889 597 1008 b 57 492 188 1008 57 810 b 424 -22 57 176 188 -22 z "},"Э":{"ha":833,"x_min":0,"x_max":0,"o":"m 410 -22 b 776 492 646 -22 776 176 b 410 1008 776 810 646 1008 b 65 685 236 1008 107 889 l 193 676 b 410 892 225 818 307 892 b 650 550 554 892 638 769 l 221 550 l 221 433 l 650 433 l 650 429 b 410 94 636 214 553 94 b 183 332 296 94 211 175 l 57 325 b 410 -22 93 108 224 -22 z "},"І":{"ha":833,"x_min":0,"x_max":0,"o":"m 111 0 l 722 0 l 722 117 l 476 117 l 476 869 l 722 869 l 722 986 l 111 986 l 111 869 l 357 869 l 357 117 l 111 117 z "},"Ї":{"ha":833,"x_min":0,"x_max":0,"o":"m 235 1101 l 357 1101 l 357 1238 l 235 1238 z m 476 1101 l 599 1101 l 599 1238 l 476 1238 z m 111 0 l 722 0 l 722 117 l 476 117 l 476 869 l 722 869 l 722 986 l 111 986 l 111 869 l 357 869 l 357 117 l 111 117 z "},"Ј":{"ha":833,"x_min":0,"x_max":0,"o":"m 382 -22 b 708 331 583 -22 708 113 l 708 986 l 589 986 l 589 331 b 382 94 589 174 519 94 b 172 331 244 94 178 171 l 56 319 b 382 -22 61 111 188 -22 z "},"Ћ":{"ha":833,"x_min":0,"x_max":0,"o":"m 208 0 l 328 0 l 328 453 b 542 542 383 494 458 542 b 686 386 621 542 686 497 l 686 0 l 806 0 l 806 394 b 547 658 806 563 694 658 b 328 579 460 658 383 621 l 328 869 l 722 869 l 722 986 l 0 986 l 0 869 l 208 869 z "},"Ю":{"ha":833,"x_min":0,"x_max":0,"o":"m 28 0 l 147 0 l 147 438 l 268 438 l 268 433 b 536 -22 276 118 365 -22 b 806 492 717 -22 806 135 b 536 1008 806 851 717 1008 b 268 554 367 1008 278 869 l 147 554 l 147 986 l 28 986 z m 536 94 b 392 492 439 94 392 190 b 536 892 392 794 439 892 b 681 492 633 892 681 794 b 536 94 681 190 633 94 z "},"Я":{"ha":833,"x_min":0,"x_max":0,"o":"m 83 0 l 215 0 l 460 392 l 631 392 l 631 0 l 750 0 l 750 986 l 438 986 b 89 686 218 986 89 892 b 332 400 89 517 176 426 z m 438 508 b 214 689 293 508 214 561 b 438 869 214 817 293 869 l 631 869 l 631 508 z "},"Ђ":{"ha":833,"x_min":0,"x_max":0,"o":"m 514 -22 b 819 319 703 -22 819 97 b 517 658 819 542 703 658 b 339 601 449 658 383 631 l 339 869 l 653 869 l 653 986 l 14 986 l 14 869 l 219 869 l 219 0 l 339 0 l 339 472 b 517 542 375 506 444 542 b 694 317 621 542 694 475 b 514 94 694 158 621 94 b 425 100 483 94 447 97 l 425 -17 b 514 -22 447 -19 488 -22 z "},"Ѣ":{"ha":833,"x_min":0,"x_max":0,"o":"m 172 0 l 463 0 b 811 313 682 0 811 111 b 463 631 811 517 682 631 l 292 631 l 292 756 l 561 756 l 561 869 l 292 869 l 292 1008 l 172 1008 l 172 869 l 14 869 l 14 756 l 172 756 z m 292 117 l 292 514 l 463 514 b 686 313 611 514 686 450 b 463 117 686 178 611 117 z "},"Ѫ":{"ha":833,"x_min":0,"x_max":0,"o":"m 11 0 l 132 0 l 214 358 b 303 438 229 424 247 438 l 357 438 l 357 0 l 478 0 l 478 438 l 531 438 b 619 358 586 438 606 421 l 701 0 l 822 0 l 715 417 b 563 554 690 515 643 554 l 549 554 l 789 869 l 789 986 l 46 986 l 46 869 l 286 554 l 269 554 b 117 417 189 554 142 517 z m 418 554 l 188 869 l 647 869 z "},"Ѳ":{"ha":833,"x_min":0,"x_max":0,"o":"m 417 -22 b 781 492 650 -22 781 163 b 417 1008 781 824 650 1008 b 53 492 183 1008 53 824 b 417 -22 53 163 183 -22 z m 272 600 b 182 579 242 600 213 593 l 182 585 b 417 892 201 783 283 892 b 656 517 564 892 650 760 b 572 497 626 503 600 497 b 272 600 496 497 374 600 z m 417 94 b 178 463 269 94 185 222 b 269 489 210 478 242 489 b 578 386 361 489 489 386 b 651 399 603 386 628 392 b 417 94 632 200 550 94 z "},"Ѵ":{"ha":833,"x_min":0,"x_max":0,"o":"m 301 0 l 458 0 l 686 817 b 774 892 701 872 728 892 l 806 892 l 806 1008 l 753 1008 b 564 844 669 1008 600 981 l 381 154 l 158 986 l 28 986 z "},"Җ":{"ha":833,"x_min":0,"x_max":0,"o":"m 133 0 l 346 475 l 346 0 l 465 0 l 465 475 l 678 0 l 714 0 l 714 -208 l 833 -208 l 833 117 l 757 117 l 582 493 l 800 986 l 667 986 l 465 513 l 465 986 l 346 986 l 346 513 l 144 986 l 11 986 l 229 493 l 0 0 z "},"Қ":{"ha":833,"x_min":0,"x_max":0,"o":"m 42 0 l 161 0 l 161 478 l 589 0 l 672 0 l 672 -208 l 792 -208 l 792 117 l 628 117 l 281 493 l 722 986 l 575 986 l 161 510 l 161 986 l 42 986 z "},"Ң":{"ha":833,"x_min":0,"x_max":0,"o":"m 42 0 l 161 0 l 161 438 l 589 438 l 589 0 l 672 0 l 672 -208 l 792 -208 l 792 117 l 708 117 l 708 986 l 589 986 l 589 554 l 161 554 l 161 986 l 42 986 z "},"Ү":{"ha":833,"x_min":0,"x_max":0,"o":"m 358 0 l 478 0 l 478 403 l 778 986 l 642 986 l 417 525 l 192 986 l 56 986 l 358 403 z "},"Ұ":{"ha":833,"x_min":0,"x_max":0,"o":"m 122 332 l 358 332 l 358 0 l 478 0 l 478 332 l 714 332 l 714 435 l 494 435 l 778 986 l 642 986 l 417 525 l 192 986 l 56 986 l 342 435 l 122 435 z "},"Ҳ":{"ha":833,"x_min":0,"x_max":0,"o":"m 42 0 l 178 0 l 388 401 l 597 0 l 672 0 l 672 -208 l 792 -208 l 792 117 l 672 117 l 464 494 l 731 986 l 594 986 l 390 590 l 186 986 l 47 986 l 314 496 z "},"Ҷ":{"ha":833,"x_min":0,"x_max":0,"o":"m 575 0 l 672 0 l 672 -208 l 792 -208 l 792 117 l 694 117 l 694 986 l 575 986 l 575 544 b 319 444 519 494 431 444 b 147 628 213 444 147 489 l 147 986 l 28 986 l 28 619 b 314 328 28 424 139 328 b 575 414 424 328 515 368 z "},"Һ":{"ha":833,"x_min":0,"x_max":0,"o":"m 97 0 l 217 0 l 217 442 b 472 542 272 492 361 542 b 644 358 579 542 644 497 l 644 0 l 764 0 l 764 367 b 478 658 764 563 653 658 b 217 572 368 658 276 618 l 217 986 l 97 986 z "},"Ӏ":{"ha":833,"x_min":0,"x_max":0,"o":"m 111 0 l 722 0 l 722 117 l 476 117 l 476 869 l 722 869 l 722 986 l 111 986 l 111 869 l 357 869 l 357 117 l 111 117 z "},"Ә":{"ha":833,"x_min":0,"x_max":0,"o":"m 428 -22 b 794 493 643 -22 794 176 b 414 1008 794 824 654 1008 b 72 692 249 1008 128 890 l 203 681 b 419 892 233 808 306 892 b 668 542 574 892 668 751 l 53 542 l 53 476 b 428 -22 53 181 192 -22 z m 428 94 b 182 425 275 94 182 219 l 667 425 b 428 94 667 219 574 94 z "},"Ӣ":{"ha":833,"x_min":0,"x_max":0,"o":"m 229 1118 l 601 1118 l 601 1218 l 229 1218 z m 97 0 l 267 0 l 617 851 l 617 0 l 736 0 l 736 986 l 567 986 l 217 135 l 217 986 l 97 986 z "},"Ө":{"ha":833,"x_min":0,"x_max":0,"o":"m 417 -22 b 781 492 650 -22 781 163 b 417 1008 781 824 650 1008 b 53 492 183 1008 53 824 b 417 -22 53 163 183 -22 z m 179 554 b 417 892 193 774 276 892 b 654 549 558 892 642 771 l 179 549 z m 417 94 b 179 438 275 94 190 214 l 654 438 l 654 428 b 417 94 640 211 557 94 z "},"Ӯ":{"ha":833,"x_min":0,"x_max":0,"o":"m 229 1118 l 601 1118 l 601 1218 l 229 1218 z m 131 0 l 281 0 b 450 115 369 0 419 33 l 778 986 l 649 986 l 418 375 l 185 986 l 56 986 l 339 264 l 378 264 l 342 169 b 271 117 325 125 306 117 l 131 117 z "},"а":{"ha":833,"x_min":0,"x_max":0,"o":"m 319 -17 b 560 104 425 -17 519 32 l 561 97 b 703 -3 578 26 625 -3 b 764 0 725 -3 753 -1 l 764 103 l 717 103 b 672 147 686 103 672 114 l 672 453 b 392 753 672 639 569 753 b 89 519 225 753 117 658 l 213 510 b 392 642 235 594 289 642 b 556 456 497 642 556 581 l 308 406 b 75 183 147 374 75 308 b 319 -17 75 64 181 -17 z m 331 86 b 197 194 247 86 197 125 b 331 311 197 256 231 292 l 556 356 l 556 292 b 331 86 556 169 481 86 z "},"б":{"ha":833,"x_min":0,"x_max":0,"o":"m 418 -17 b 742 328 628 -17 742 128 b 438 678 742 556 625 678 b 208 535 332 678 242 624 b 478 819 217 715 296 792 b 667 986 608 839 653 867 l 553 986 b 472 919 547 944 533 932 b 92 397 182 860 92 764 b 418 -17 92 128 208 -17 z m 418 94 b 217 328 294 94 217 164 b 418 567 217 475 300 567 b 619 328 542 567 619 489 b 418 94 619 164 542 94 z "},"в":{"ha":833,"x_min":0,"x_max":0,"o":"m 125 0 l 485 0 b 736 200 649 0 736 65 b 586 379 736 292 678 358 b 706 533 660 401 706 460 b 461 736 706 658 617 736 l 125 736 z m 242 425 l 242 633 l 461 633 b 583 533 540 633 583 596 b 444 425 583 468 543 425 z m 242 103 l 242 322 l 471 322 b 614 208 568 322 614 279 b 485 103 614 133 572 103 z "},"г":{"ha":833,"x_min":0,"x_max":0,"o":"m 181 0 l 297 0 l 297 633 l 722 633 l 722 736 l 181 736 z "},"ѓ":{"ha":833,"x_min":0,"x_max":0,"o":"m 413 831 l 510 831 l 635 1008 l 504 1008 z m 181 0 l 297 0 l 297 633 l 722 633 l 722 736 l 181 736 z "},"ґ":{"ha":833,"x_min":0,"x_max":0,"o":"m 181 0 l 297 0 l 297 633 l 722 633 l 722 889 l 606 889 l 606 736 l 181 736 z "},"ғ":{"ha":833,"x_min":0,"x_max":0,"o":"m 236 0 l 353 0 l 353 322 l 556 322 l 556 425 l 353 425 l 353 633 l 778 633 l 778 736 l 236 736 l 236 425 l 56 425 l 56 322 l 236 322 z "},"д":{"ha":833,"x_min":0,"x_max":0,"o":"m 42 -153 l 158 -153 l 158 0 l 675 0 l 675 -153 l 792 -153 l 792 103 l 689 103 l 689 736 l 272 736 l 228 333 b 131 103 213 193 172 133 l 42 103 z m 333 322 l 369 633 l 572 633 l 572 103 l 258 103 b 333 322 289 142 319 206 z "},"е":{"ha":833,"x_min":0,"x_max":0,"o":"m 425 -17 b 733 208 581 -17 694 76 l 608 218 b 425 94 583 143 521 94 b 210 332 297 94 218 174 l 746 332 l 746 367 b 419 753 746 614 611 753 b 88 368 217 753 88 601 b 425 -17 88 135 217 -17 z m 210 435 b 419 642 229 571 306 642 b 618 435 528 642 607 576 z "},"ѐ":{"ha":833,"x_min":0,"x_max":0,"o":"m 379 828 l 476 828 l 385 1006 l 254 1006 z m 425 -17 b 733 208 581 -17 694 76 l 608 218 b 425 94 583 143 521 94 b 210 332 297 94 218 174 l 746 332 l 746 367 b 419 753 746 614 611 753 b 88 368 217 753 88 601 b 425 -17 88 135 217 -17 z m 210 435 b 419 642 229 571 306 642 b 618 435 528 642 607 576 z "},"ё":{"ha":833,"x_min":0,"x_max":0,"o":"m 239 849 l 361 849 l 361 985 l 239 985 z m 481 849 l 603 849 l 603 985 l 481 985 z m 425 -17 b 733 208 581 -17 694 76 l 608 218 b 425 94 583 143 521 94 b 210 332 297 94 218 174 l 746 332 l 746 367 b 419 753 746 614 611 753 b 88 368 217 753 88 601 b 425 -17 88 135 217 -17 z m 210 435 b 419 642 229 571 306 642 b 618 435 528 642 607 576 z "},"ж":{"ha":833,"x_min":0,"x_max":0,"o":"m 156 0 l 358 344 l 358 0 l 475 0 l 475 344 l 678 0 l 806 0 l 575 368 l 789 736 l 661 736 l 475 393 l 475 736 l 358 736 l 358 393 l 172 736 l 44 736 l 258 368 l 28 0 z "},"з":{"ha":833,"x_min":0,"x_max":0,"o":"m 417 -17 b 719 206 608 -17 719 76 b 579 378 719 294 665 354 b 708 532 665 401 708 447 b 419 753 708 656 603 753 b 117 553 242 753 136 675 l 239 544 b 417 644 251 603 294 644 b 586 528 542 644 586 599 b 456 428 586 463 549 428 l 319 428 l 319 325 l 453 325 b 597 211 553 325 597 281 b 417 92 597 131 542 92 b 236 219 289 92 247 139 l 114 214 b 417 -17 133 75 236 -17 z "},"и":{"ha":833,"x_min":0,"x_max":0,"o":"m 111 0 l 236 0 l 606 560 l 606 0 l 722 0 l 722 736 l 597 736 l 228 176 l 228 736 l 111 736 z "},"й":{"ha":833,"x_min":0,"x_max":0,"o":"m 418 838 b 618 1015 532 838 607 904 l 518 1015 b 418 910 513 949 482 910 b 318 1015 354 910 324 949 l 218 1015 b 418 838 229 904 304 838 z m 111 0 l 236 0 l 606 560 l 606 0 l 722 0 l 722 736 l 597 736 l 228 176 l 228 736 l 111 736 z "},"ѝ":{"ha":833,"x_min":0,"x_max":0,"o":"m 376 831 l 474 831 l 382 1008 l 251 1008 z m 111 0 l 236 0 l 606 560 l 606 0 l 722 0 l 722 736 l 597 736 l 228 176 l 228 736 l 111 736 z "},"к":{"ha":833,"x_min":0,"x_max":0,"o":"m 111 0 l 228 0 l 228 351 l 575 0 l 722 0 l 347 371 l 706 736 l 558 736 l 228 386 l 228 736 l 111 736 z "},"ќ":{"ha":833,"x_min":0,"x_max":0,"o":"m 336 831 l 433 831 l 558 1008 l 428 1008 z m 111 0 l 228 0 l 228 351 l 575 0 l 722 0 l 347 371 l 706 736 l 558 736 l 228 386 l 228 736 l 111 736 z "},"л":{"ha":833,"x_min":0,"x_max":0,"o":"m 83 -6 l 125 -6 b 289 161 243 -6 276 53 l 342 633 l 633 633 l 633 0 l 750 0 l 750 736 l 242 736 l 181 175 b 117 97 174 114 153 97 l 83 97 z "},"м":{"ha":833,"x_min":0,"x_max":0,"o":"m 42 0 l 158 0 l 158 528 l 353 0 l 481 0 l 675 528 l 675 0 l 792 0 l 792 736 l 642 736 l 417 122 l 192 736 l 42 736 z "},"н":{"ha":833,"x_min":0,"x_max":0,"o":"m 125 0 l 242 0 l 242 333 l 592 333 l 592 0 l 708 0 l 708 736 l 592 736 l 592 436 l 242 436 l 242 736 l 125 736 z "},"о":{"ha":833,"x_min":0,"x_max":0,"o":"m 417 -17 b 753 368 619 -17 753 133 b 417 753 753 603 619 753 b 81 368 213 753 81 603 b 417 -17 81 133 213 -17 z m 417 94 b 203 368 281 94 203 197 b 417 642 203 539 281 642 b 631 368 551 642 631 539 b 417 94 631 197 551 94 z "},"п":{"ha":833,"x_min":0,"x_max":0,"o":"m 125 0 l 242 0 l 242 633 l 592 633 l 592 0 l 708 0 l 708 736 l 125 736 z "},"р":{"ha":833,"x_min":0,"x_max":0,"o":"m 111 -208 l 228 -208 l 228 97 b 447 -17 267 26 351 -17 b 764 368 667 -17 764 165 b 447 753 764 571 667 753 b 221 618 347 753 265 706 l 219 736 l 111 736 z m 436 94 b 228 368 307 94 228 188 b 436 642 228 549 308 642 b 642 368 564 642 642 540 b 436 94 642 196 564 94 z "},"с":{"ha":833,"x_min":0,"x_max":0,"o":"m 436 -17 b 750 253 600 -17 719 89 l 628 261 b 436 94 606 150 531 94 b 219 368 300 94 219 197 b 436 642 219 539 300 642 b 622 489 531 642 600 586 l 744 497 b 436 753 714 661 600 753 b 97 368 231 753 97 601 b 436 -17 97 135 231 -17 z "},"т":{"ha":833,"x_min":0,"x_max":0,"o":"m 358 0 l 475 0 l 475 633 l 742 633 l 742 736 l 92 736 l 92 633 l 358 633 z "},"у":{"ha":833,"x_min":0,"x_max":0,"o":"m 189 -208 l 285 -208 b 463 -93 383 -208 435 -172 l 761 736 l 633 736 l 424 122 l 200 736 l 72 736 l 346 14 l 386 14 l 360 -56 b 274 -106 346 -90 325 -106 l 189 -106 z "},"ў":{"ha":833,"x_min":0,"x_max":0,"o":"m 418 838 b 618 1015 532 838 607 904 l 518 1015 b 418 910 513 949 482 910 b 318 1015 354 910 324 949 l 218 1015 b 418 838 229 904 304 838 z m 189 -208 l 285 -208 b 463 -93 383 -208 435 -172 l 761 736 l 633 736 l 424 122 l 200 736 l 72 736 l 346 14 l 386 14 l 360 -56 b 274 -106 346 -90 325 -106 l 189 -106 z "},"ф":{"ha":833,"x_min":0,"x_max":0,"o":"m 358 -208 l 475 -208 l 475 0 b 806 368 661 0 806 126 b 475 736 806 610 661 736 l 475 986 l 358 986 l 358 736 b 28 368 172 736 28 610 b 358 0 28 126 172 0 z m 358 117 b 153 368 239 117 153 190 b 358 619 153 546 239 619 z m 475 117 l 475 619 b 681 368 594 619 681 546 b 475 117 681 190 594 117 z "},"х":{"ha":833,"x_min":0,"x_max":0,"o":"m 75 0 l 214 0 l 418 297 l 622 0 l 758 0 l 490 375 l 746 736 l 607 736 l 418 458 l 225 736 l 89 736 l 346 378 z "},"ц":{"ha":833,"x_min":0,"x_max":0,"o":"m 69 0 l 647 0 l 647 -153 l 764 -153 l 764 103 l 653 103 l 653 736 l 536 736 l 536 103 l 186 103 l 186 736 l 69 736 z "},"ч":{"ha":833,"x_min":0,"x_max":0,"o":"m 578 0 l 694 0 l 694 736 l 578 736 l 578 403 b 372 325 547 367 467 325 b 228 467 283 325 228 363 l 228 736 l 111 736 l 111 467 b 364 219 111 286 207 219 b 578 285 458 219 526 249 z "},"ш":{"ha":833,"x_min":0,"x_max":0,"o":"m 69 0 l 764 0 l 764 736 l 647 736 l 647 103 l 475 103 l 475 736 l 358 736 l 358 103 l 186 103 l 186 736 l 69 736 z "},"щ":{"ha":833,"x_min":0,"x_max":0,"o":"m 42 0 l 675 0 l 675 -153 l 792 -153 l 792 103 l 736 103 l 736 736 l 619 736 l 619 103 l 447 103 l 447 736 l 331 736 l 331 103 l 158 103 l 158 736 l 42 736 z "},"џ":{"ha":833,"x_min":0,"x_max":0,"o":"m 125 0 l 358 0 l 358 -153 l 475 -153 l 475 0 l 708 0 l 708 736 l 592 736 l 592 103 l 242 103 l 242 736 l 125 736 z "},"ь":{"ha":833,"x_min":0,"x_max":0,"o":"m 111 0 l 442 0 b 722 231 622 0 722 90 b 442 461 722 371 622 461 l 228 461 l 228 736 l 111 736 z m 228 103 l 228 358 l 442 358 b 600 231 561 358 600 310 b 442 103 600 150 561 103 z "},"ы":{"ha":833,"x_min":0,"x_max":0,"o":"m 661 0 l 778 0 l 778 736 l 661 736 z m 56 0 l 325 0 b 606 231 506 0 606 90 b 325 461 606 371 506 461 l 172 461 l 172 736 l 56 736 z m 172 103 l 172 358 l 325 358 b 483 231 444 358 483 310 b 325 103 483 150 444 103 z "},"ъ":{"ha":833,"x_min":0,"x_max":0,"o":"m 28 633 l 208 633 l 208 0 l 525 0 b 806 231 706 0 806 90 b 525 461 806 371 706 461 l 325 461 l 325 736 l 28 736 z m 325 103 l 325 358 l 525 358 b 683 231 644 358 683 310 b 525 103 683 150 644 103 z "},"љ":{"ha":833,"x_min":0,"x_max":0,"o":"m 21 -6 l 63 -6 b 226 161 181 -6 218 53 l 260 633 l 388 633 l 388 0 l 560 0 b 813 231 713 0 813 90 b 560 461 813 371 713 461 l 504 461 l 504 736 l 160 736 l 118 175 b 54 97 114 114 90 97 l 21 97 z m 504 103 l 504 358 l 560 358 b 690 231 651 358 690 310 b 560 103 690 150 651 103 z "},"њ":{"ha":833,"x_min":0,"x_max":0,"o":"m 28 0 l 144 0 l 144 333 l 353 333 l 353 0 l 525 0 b 806 231 706 0 806 90 b 525 461 806 371 706 461 l 469 461 l 469 736 l 353 736 l 353 436 l 144 436 l 144 736 l 28 736 z m 469 103 l 469 358 l 525 358 b 683 231 644 358 683 310 b 525 103 683 150 644 103 z "},"ѕ":{"ha":833,"x_min":0,"x_max":0,"o":"m 431 -17 b 722 192 597 -17 722 61 b 433 411 722 314 661 374 b 250 531 300 433 250 456 b 408 642 250 593 300 642 b 586 508 508 642 569 586 l 708 517 b 410 753 686 644 592 753 b 131 531 229 753 131 658 b 408 308 131 411 194 346 b 603 192 569 281 603 256 b 431 94 603 125 539 94 b 233 240 314 94 247 149 l 111 232 b 431 -17 122 93 239 -17 z "},"є":{"ha":833,"x_min":0,"x_max":0,"o":"m 429 -17 b 742 239 599 -17 717 89 l 619 247 b 429 94 603 150 529 94 b 217 317 307 94 231 176 l 525 317 l 525 419 l 217 419 l 217 424 b 429 642 232 561 308 642 b 619 503 529 642 603 586 l 742 511 b 429 753 717 661 599 753 b 92 368 224 753 92 601 b 429 -17 92 135 224 -17 z "},"э":{"ha":833,"x_min":0,"x_max":0,"o":"m 404 -17 b 742 368 610 -17 742 135 b 404 753 742 601 610 753 b 92 511 235 753 117 661 l 214 503 b 404 642 231 586 304 642 b 617 419 526 642 603 560 l 308 419 l 308 317 l 617 317 l 617 313 b 404 94 601 175 525 94 b 214 247 304 94 231 150 l 92 239 b 404 -17 117 89 235 -17 z "},"і":{"ha":833,"x_min":0,"x_max":0,"o":"m 396 851 l 518 851 l 518 988 l 396 988 z m 111 0 l 778 0 l 778 103 l 524 103 l 524 736 l 125 736 l 125 633 l 407 633 l 407 103 l 111 103 z "},"ї":{"ha":833,"x_min":0,"x_max":0,"o":"m 276 851 l 399 851 l 399 988 l 276 988 z m 518 851 l 640 851 l 640 988 l 518 988 z m 111 0 l 778 0 l 778 103 l 524 103 l 524 736 l 125 736 l 125 633 l 407 633 l 407 103 l 111 103 z "},"ј":{"ha":833,"x_min":0,"x_max":0,"o":"m 488 851 l 610 851 l 610 988 l 488 988 z m 153 -208 l 400 -208 b 611 0 547 -208 611 -135 l 611 736 l 167 736 l 167 633 l 494 633 l 494 8 b 386 -106 494 -81 458 -106 l 153 -106 z "},"ћ":{"ha":833,"x_min":0,"x_max":0,"o":"m 139 0 l 256 0 l 256 439 b 451 650 256 575 333 650 b 606 440 554 650 606 582 l 606 0 l 722 0 l 722 474 b 476 753 722 638 635 753 b 256 621 376 753 293 711 l 256 808 l 467 808 l 467 903 l 256 903 l 256 986 l 139 986 l 139 903 l 50 903 l 50 808 l 139 808 z "},"ю":{"ha":833,"x_min":0,"x_max":0,"o":"m 42 0 l 158 0 l 158 315 l 260 315 l 261 311 b 525 -17 276 110 376 -17 b 792 368 686 -17 792 133 b 525 753 792 603 686 753 b 260 418 375 753 274 624 l 158 418 l 158 736 l 42 736 z m 525 94 b 381 368 431 94 381 197 b 525 642 381 539 431 642 b 669 368 618 642 669 539 b 525 94 669 197 618 94 z "},"я":{"ha":833,"x_min":0,"x_max":0,"o":"m 122 0 l 253 0 l 421 263 l 594 263 l 594 0 l 711 0 l 711 736 l 406 736 b 128 503 222 736 128 650 b 303 274 128 386 188 304 z m 403 367 b 250 500 297 367 250 415 b 403 633 250 585 297 633 l 594 633 l 594 367 z "},"ђ":{"ha":833,"x_min":0,"x_max":0,"o":"m 485 -208 l 538 -208 b 722 -31 669 -208 722 -161 l 722 474 b 476 753 722 638 635 753 b 256 619 376 753 293 711 l 256 808 l 467 808 l 467 903 l 256 903 l 256 986 l 139 986 l 139 903 l 50 903 l 50 808 l 139 808 l 139 0 l 256 0 l 256 439 b 451 650 256 575 333 650 b 606 440 554 650 606 582 l 606 -25 b 526 -106 606 -86 574 -106 l 485 -106 z "},"ѣ":{"ha":833,"x_min":0,"x_max":0,"o":"m 200 0 l 483 0 b 764 219 664 0 764 90 b 483 439 764 349 664 439 l 317 439 l 317 633 l 532 633 l 532 736 l 317 736 l 317 903 l 200 903 l 200 736 l 69 736 l 69 633 l 200 633 z m 317 103 l 317 336 l 483 336 b 642 219 597 336 642 294 b 483 103 642 144 597 103 z "},"ѫ":{"ha":833,"x_min":0,"x_max":0,"o":"m 28 0 l 161 0 l 260 260 b 326 317 276 306 288 317 l 358 317 l 358 0 l 475 0 l 475 317 l 506 317 b 574 260 544 317 557 306 l 672 0 l 806 0 l 676 313 b 563 417 647 383 615 417 l 549 417 l 761 633 l 761 736 l 72 736 l 72 633 l 286 417 l 271 417 b 157 313 218 417 186 383 z m 214 633 l 619 633 l 417 418 z "},"ѳ":{"ha":833,"x_min":0,"x_max":0,"o":"m 417 -17 b 753 368 619 -17 753 133 b 417 753 753 603 619 753 b 81 368 213 753 81 603 b 417 -17 81 133 213 -17 z m 263 458 b 210 450 244 458 226 456 l 211 457 b 417 642 233 574 306 642 b 631 368 551 642 631 539 l 631 367 b 597 364 619 365 608 364 b 263 458 483 364 388 458 z m 417 94 b 203 344 288 94 210 188 b 263 356 222 351 243 356 b 599 261 408 356 486 261 b 618 263 606 261 613 261 b 417 94 592 156 521 94 z "},"ѵ":{"ha":833,"x_min":0,"x_max":0,"o":"m 339 0 l 486 0 l 717 592 b 764 633 728 621 739 633 l 778 633 l 778 736 l 750 736 b 611 639 675 736 642 718 l 413 118 l 183 736 l 56 736 z "},"җ":{"ha":833,"x_min":0,"x_max":0,"o":"m 142 0 l 344 344 l 344 0 l 461 0 l 461 344 l 664 0 l 703 0 l 703 -153 l 819 -153 l 819 103 l 728 103 l 561 368 l 775 736 l 647 736 l 461 393 l 461 736 l 344 736 l 344 393 l 158 736 l 31 736 l 244 368 l 14 0 z "},"қ":{"ha":833,"x_min":0,"x_max":0,"o":"m 111 0 l 228 0 l 228 351 l 575 0 l 661 0 l 661 -153 l 778 -153 l 778 103 l 618 103 l 347 371 l 706 736 l 558 736 l 228 386 l 228 736 l 111 736 z "},"ң":{"ha":833,"x_min":0,"x_max":0,"o":"m 69 0 l 186 0 l 186 333 l 536 333 l 536 0 l 647 0 l 647 -153 l 764 -153 l 764 103 l 653 103 l 653 736 l 536 736 l 536 436 l 186 436 l 186 736 l 69 736 z "},"ү":{"ha":833,"x_min":0,"x_max":0,"o":"m 358 0 l 358 -208 l 475 -208 l 475 0 l 764 736 l 639 736 l 417 149 l 194 736 l 69 736 z "},"ұ":{"ha":833,"x_min":0,"x_max":0,"o":"m 139 0 l 358 0 l 358 -208 l 475 -208 l 475 0 l 694 0 l 694 103 l 515 103 l 764 736 l 639 736 l 417 149 l 194 736 l 69 736 l 318 103 l 139 103 z "},"ҳ":{"ha":833,"x_min":0,"x_max":0,"o":"m 56 0 l 194 0 l 399 297 l 603 0 l 661 0 l 661 -153 l 778 -153 l 778 103 l 665 103 l 471 375 l 726 736 l 588 736 l 399 458 l 206 736 l 69 736 l 326 378 z "},"ҷ":{"ha":833,"x_min":0,"x_max":0,"o":"m 536 0 l 647 0 l 647 -153 l 764 -153 l 764 103 l 653 103 l 653 736 l 536 736 l 536 403 b 331 325 506 367 425 325 b 186 467 242 325 186 363 l 186 736 l 69 736 l 69 467 b 322 219 69 286 165 219 b 536 285 417 219 485 249 z "},"һ":{"ha":833,"x_min":0,"x_max":0,"o":"m 139 0 l 256 0 l 256 439 b 451 650 256 575 333 650 b 606 440 554 650 606 582 l 606 0 l 722 0 l 722 474 b 476 753 722 638 635 753 b 256 621 376 753 293 711 l 256 986 l 139 986 z "},"ӏ":{"ha":833,"x_min":0,"x_max":0,"o":"m 111 0 l 722 0 l 722 117 l 476 117 l 476 869 l 722 869 l 722 986 l 111 986 l 111 869 l 357 869 l 357 117 l 111 117 z "},"ә":{"ha":833,"x_min":0,"x_max":0,"o":"m 408 753 b 100 528 253 753 139 660 l 225 518 b 408 642 250 593 313 642 b 624 404 536 642 615 563 l 88 404 l 88 369 b 414 -17 88 122 222 -17 b 746 368 617 -17 746 135 b 408 753 746 601 617 753 z m 624 301 b 414 94 604 165 528 94 b 215 301 306 94 226 160 z "},"ӣ":{"ha":833,"x_min":0,"x_max":0,"o":"m 231 868 l 603 868 l 603 968 l 231 968 z m 111 0 l 236 0 l 606 560 l 606 0 l 722 0 l 722 736 l 597 736 l 228 176 l 228 736 l 111 736 z "},"ө":{"ha":833,"x_min":0,"x_max":0,"o":"m 417 -17 b 753 368 619 -17 753 133 b 417 753 753 603 619 753 b 81 368 213 753 81 603 b 417 -17 81 133 213 -17 z m 206 424 b 417 642 221 561 296 642 b 628 419 538 642 614 560 l 206 419 z m 417 94 b 206 317 294 94 219 176 l 628 317 l 628 313 b 417 94 613 175 536 94 z "},"ӯ":{"ha":833,"x_min":0,"x_max":0,"o":"m 231 868 l 603 868 l 603 968 l 231 968 z m 189 -208 l 285 -208 b 463 -93 383 -208 435 -172 l 761 736 l 633 736 l 424 122 l 200 736 l 72 736 l 346 14 l 386 14 l 360 -56 b 274 -106 346 -90 325 -106 l 189 -106 z "},"Λ":{"ha":833,"x_min":0,"x_max":0,"o":"m 36 0 l 158 0 l 417 882 l 675 0 l 797 0 l 497 986 l 336 986 z "},"Ω":{"ha":833,"x_min":0,"x_max":0,"o":"m 15 0 l 361 0 l 361 117 b 138 506 236 118 138 289 b 417 892 138 732 253 892 b 696 506 581 892 696 732 b 472 117 696 289 597 118 l 472 0 l 818 0 l 818 117 l 635 117 b 821 506 744 190 821 353 b 417 1008 821 801 654 1008 b 13 506 179 1008 13 801 b 199 117 13 353 89 190 l 15 117 z "},"λ":{"ha":833,"x_min":0,"x_max":0,"o":"m 82 0 l 204 0 l 406 525 l 510 186 b 717 0 553 47 603 0 l 764 0 l 764 103 l 715 103 b 631 181 665 103 646 132 l 440 800 b 224 986 399 935 340 986 l 146 986 l 146 883 l 233 883 b 319 806 283 883 304 856 l 354 693 z "},"π":{"ha":833,"x_min":0,"x_max":0,"o":"m 171 0 l 288 0 l 288 633 l 550 633 l 550 203 b 763 0 550 81 613 0 l 806 0 l 806 103 l 761 103 b 667 203 700 103 667 140 l 667 633 l 808 633 l 808 736 l 22 736 l 22 633 l 171 633 z "},"ℇ":{"ha":833,"x_min":0,"x_max":0,"o":"m 426 -22 b 781 122 564 -22 708 38 l 706 221 b 426 89 639 142 521 89 b 193 281 285 89 193 167 b 426 471 193 397 285 474 l 501 469 l 501 579 l 426 578 b 226 751 333 576 226 624 b 426 897 226 840 303 897 b 671 779 511 897 613 847 l 749 875 b 426 1008 681 953 549 1008 b 104 751 236 1008 104 903 b 279 533 104 640 163 568 b 71 271 142 493 71 399 b 426 -22 71 99 214 -22 z "},"⓿":{"ha":833,"x_min":0,"x_max":0,"o":"m 417 -22 b 814 493 660 -22 814 176 b 417 1008 814 810 660 1008 b 19 493 172 1008 19 810 b 417 -22 19 176 172 -22 z m 418 211 b 201 492 288 211 201 318 b 418 771 201 665 286 771 b 635 492 550 771 635 665 b 418 211 635 318 549 211 z m 310 386 l 482 668 b 418 688 464 681 443 688 b 293 492 336 688 293 622 b 310 386 293 451 299 415 z m 418 294 b 543 492 499 294 543 363 b 528 601 543 536 538 572 l 354 318 b 418 294 372 303 394 294 z "},"❶":{"ha":833,"x_min":0,"x_max":0,"o":"m 417 -22 b 814 493 660 -22 814 176 b 417 1008 814 810 660 1008 b 19 493 172 1008 19 810 b 417 -22 19 176 172 -22 z m 397 222 l 397 575 l 264 574 l 264 643 l 297 643 b 421 761 378 643 421 688 l 489 761 l 489 222 z "},"❷":{"ha":833,"x_min":0,"x_max":0,"o":"m 417 -22 b 814 493 660 -22 814 176 b 417 1008 814 810 660 1008 b 19 493 172 1008 19 810 b 417 -22 19 176 172 -22 z m 232 222 b 369 472 232 338 247 404 l 442 513 b 513 615 494 542 513 563 b 429 690 513 663 474 690 b 322 592 363 690 331 658 l 233 596 b 429 771 244 701 310 771 b 604 615 536 771 604 707 b 471 440 604 526 551 483 l 414 410 b 335 303 358 379 335 339 l 599 303 l 599 222 z "},"❸":{"ha":833,"x_min":0,"x_max":0,"o":"m 417 -22 b 814 493 660 -22 814 176 b 417 1008 814 810 660 1008 b 19 493 172 1008 19 810 b 417 -22 19 176 172 -22 z m 418 211 b 222 363 274 211 228 275 l 311 367 b 418 292 315 322 344 292 b 524 376 486 292 524 325 b 411 465 524 429 490 465 l 376 465 l 376 544 l 411 544 b 497 615 463 544 497 568 b 411 689 497 658 469 689 b 319 621 354 689 324 658 l 231 626 b 411 771 242 707 303 771 b 588 624 528 771 588 711 b 494 510 588 560 554 528 b 614 375 586 488 614 436 b 418 211 614 272 529 211 z "},"❹":{"ha":833,"x_min":0,"x_max":0,"o":"m 417 -22 b 814 493 660 -22 814 176 b 417 1008 814 810 660 1008 b 19 493 172 1008 19 810 b 417 -22 19 176 172 -22 z m 460 222 l 460 347 l 210 347 l 210 418 l 465 760 l 551 760 l 551 428 l 626 428 l 626 347 l 551 347 l 551 222 z m 307 428 l 460 428 l 460 626 z "},"❺":{"ha":833,"x_min":0,"x_max":0,"o":"m 417 -22 b 814 493 660 -22 814 176 b 417 1008 814 810 660 1008 b 19 493 172 1008 19 810 b 417 -22 19 176 172 -22 z m 411 211 b 226 353 306 211 235 263 l 315 357 b 414 292 326 313 358 292 b 519 396 478 292 519 328 b 425 501 519 456 489 501 b 321 447 372 501 343 481 l 236 447 l 269 760 l 572 760 l 572 679 l 350 679 l 332 540 b 439 579 354 565 394 579 b 608 396 553 579 608 500 b 411 211 608 279 531 211 z "},"❻":{"ha":833,"x_min":0,"x_max":0,"o":"m 417 -22 b 814 493 660 -22 814 176 b 417 1008 814 810 660 1008 b 19 493 172 1008 19 810 b 417 -22 19 176 172 -22 z m 417 211 b 217 461 297 211 217 299 b 433 771 217 631 278 771 b 613 638 544 771 592 726 l 526 629 b 433 690 515 671 489 690 b 308 532 361 690 314 632 b 431 590 328 565 372 590 b 619 401 538 590 619 529 b 417 211 619 281 533 211 z m 418 292 b 531 404 490 292 531 336 b 419 510 531 471 493 510 b 308 404 354 510 310 471 b 418 292 307 336 349 292 z "},"❼":{"ha":833,"x_min":0,"x_max":0,"o":"m 417 -22 b 814 493 660 -22 814 176 b 417 1008 814 810 660 1008 b 19 493 172 1008 19 810 b 417 -22 19 176 172 -22 z m 335 222 b 494 681 335 390 392 547 l 238 681 l 238 761 l 599 761 l 599 700 b 424 222 490 561 424 414 z "},"❽":{"ha":833,"x_min":0,"x_max":0,"o":"m 417 -22 b 814 493 660 -22 814 176 b 417 1008 814 810 660 1008 b 19 493 172 1008 19 810 b 417 -22 19 176 172 -22 z m 418 211 b 217 367 288 211 217 268 b 325 513 217 432 258 486 b 243 631 275 531 243 564 b 418 771 243 718 304 771 b 593 631 533 771 593 718 b 511 513 593 564 561 531 b 619 367 576 485 619 432 b 418 211 619 268 549 211 z m 418 550 b 501 625 472 550 501 575 b 418 690 501 665 472 690 b 335 625 364 690 335 665 b 418 550 335 575 364 550 z m 418 292 b 528 372 488 292 528 318 b 418 467 528 425 488 467 b 308 372 349 467 308 425 b 418 292 308 318 349 292 z "},"❾":{"ha":833,"x_min":0,"x_max":0,"o":"m 417 -22 b 814 493 660 -22 814 176 b 417 1008 814 810 660 1008 b 19 493 172 1008 19 810 b 417 -22 19 176 172 -22 z m 403 211 b 224 344 292 211 244 256 l 310 353 b 403 292 321 311 347 292 b 528 450 475 292 522 350 b 406 392 508 417 464 392 b 217 581 299 392 217 453 b 419 771 217 701 303 771 b 619 521 539 771 619 683 b 403 211 619 351 558 211 z m 417 472 b 528 578 482 472 526 511 b 418 690 529 646 488 690 b 306 578 346 690 306 646 b 417 472 306 511 343 472 z "},"⓪":{"ha":833,"x_min":0,"x_max":0,"o":"m 417 -22 b 817 493 663 -22 817 163 b 417 1008 817 824 663 1008 b 17 493 169 1008 17 824 b 417 -22 17 163 169 -22 z m 417 72 b 111 493 229 72 111 222 b 417 914 111 764 229 914 b 722 493 603 914 722 764 b 417 72 722 222 603 72 z m 418 211 b 635 492 549 211 635 318 b 418 771 635 665 550 771 b 201 492 286 771 201 665 b 418 211 201 318 288 211 z m 307 392 b 293 492 299 419 293 454 b 418 688 293 622 336 688 b 482 668 443 688 464 681 l 310 386 z m 418 294 b 354 318 394 294 372 303 l 526 601 b 543 492 538 572 543 536 b 418 294 543 363 499 294 z "},"①":{"ha":833,"x_min":0,"x_max":0,"o":"m 417 -22 b 817 493 663 -22 817 163 b 417 1008 817 824 663 1008 b 17 493 169 1008 17 824 b 417 -22 17 163 169 -22 z m 417 72 b 111 493 229 72 111 222 b 417 914 111 764 229 914 b 722 493 603 914 722 764 b 417 72 722 222 603 72 z m 326 222 l 418 222 l 418 761 l 350 761 b 226 643 350 688 307 643 l 193 643 l 193 574 l 326 575 z "},"②":{"ha":833,"x_min":0,"x_max":0,"o":"m 417 -22 b 817 493 663 -22 817 163 b 417 1008 817 824 663 1008 b 17 493 169 1008 17 824 b 417 -22 17 163 169 -22 z m 417 72 b 111 493 229 72 111 222 b 417 914 111 764 229 914 b 722 493 603 914 722 764 b 417 72 722 222 603 72 z m 232 222 l 599 222 l 599 303 l 335 303 b 414 410 335 339 358 379 l 471 440 b 604 615 551 483 604 526 b 429 771 604 707 536 771 b 233 596 310 771 244 701 l 322 592 b 429 690 331 658 363 690 b 513 615 474 690 513 663 b 442 513 513 563 494 542 l 369 472 b 232 222 247 404 232 338 z "},"③":{"ha":833,"x_min":0,"x_max":0,"o":"m 417 -22 b 817 493 663 -22 817 163 b 417 1008 817 824 663 1008 b 17 493 169 1008 17 824 b 417 -22 17 163 169 -22 z m 417 72 b 111 493 229 72 111 222 b 417 914 111 764 229 914 b 722 493 603 914 722 764 b 417 72 722 222 603 72 z m 418 211 b 614 375 529 211 614 272 b 494 510 614 436 586 488 b 588 624 554 528 588 560 b 411 771 588 711 528 771 b 231 626 303 771 242 707 l 319 621 b 411 689 324 658 354 689 b 497 615 469 689 497 658 b 411 544 497 568 463 544 l 376 544 l 376 465 l 411 465 b 524 376 490 465 524 429 b 418 292 524 325 486 292 b 311 367 344 292 315 322 l 222 363 b 418 211 228 275 274 211 z "},"④":{"ha":833,"x_min":0,"x_max":0,"o":"m 417 -22 b 817 493 663 -22 817 163 b 417 1008 817 824 663 1008 b 17 493 169 1008 17 824 b 417 -22 17 163 169 -22 z m 417 72 b 111 493 229 72 111 222 b 417 914 111 764 229 914 b 722 493 603 914 722 764 b 417 72 722 222 603 72 z m 432 222 l 524 222 l 524 347 l 599 347 l 599 428 l 524 428 l 524 760 l 438 760 l 182 418 l 182 347 l 432 347 z m 279 428 l 432 626 l 432 428 z "},"⑤":{"ha":833,"x_min":0,"x_max":0,"o":"m 417 -22 b 817 493 663 -22 817 163 b 417 1008 817 824 663 1008 b 17 493 169 1008 17 824 b 417 -22 17 163 169 -22 z m 417 72 b 111 493 229 72 111 222 b 417 914 111 764 229 914 b 722 493 603 914 722 764 b 417 72 722 222 603 72 z m 411 211 b 608 396 531 211 608 279 b 439 579 608 500 553 579 b 332 540 394 579 354 565 l 350 679 l 572 679 l 572 760 l 269 760 l 236 447 l 321 447 b 425 501 343 481 372 501 b 519 396 489 501 519 456 b 414 292 519 328 478 292 b 315 357 358 292 326 313 l 226 353 b 411 211 235 263 306 211 z "},"⑥":{"ha":833,"x_min":0,"x_max":0,"o":"m 417 -22 b 817 493 663 -22 817 163 b 417 1008 817 824 663 1008 b 17 493 169 1008 17 824 b 417 -22 17 163 169 -22 z m 417 72 b 111 493 229 72 111 222 b 417 914 111 764 229 914 b 722 493 603 914 722 764 b 417 72 722 222 603 72 z m 417 211 b 619 401 533 211 619 281 b 431 590 619 529 538 590 b 308 532 372 590 328 565 b 433 690 314 632 361 690 b 526 629 489 690 515 671 l 613 638 b 433 771 592 726 544 771 b 217 461 278 771 217 631 b 417 211 217 299 297 211 z m 418 292 b 308 404 349 292 307 336 b 419 510 310 471 354 510 b 531 404 493 510 531 471 b 418 292 531 336 490 292 z "},"⑦":{"ha":833,"x_min":0,"x_max":0,"o":"m 417 -22 b 817 493 663 -22 817 163 b 417 1008 817 824 663 1008 b 17 493 169 1008 17 824 b 417 -22 17 163 169 -22 z m 417 72 b 111 493 229 72 111 222 b 417 914 111 764 229 914 b 722 493 603 914 722 764 b 417 72 722 222 603 72 z m 335 222 l 424 222 b 599 700 424 414 490 561 l 599 761 l 238 761 l 238 681 l 494 681 b 335 222 392 547 335 390 z "},"⑧":{"ha":833,"x_min":0,"x_max":0,"o":"m 417 -22 b 817 493 663 -22 817 163 b 417 1008 817 824 663 1008 b 17 493 169 1008 17 824 b 417 -22 17 163 169 -22 z m 417 72 b 111 493 229 72 111 222 b 417 914 111 764 229 914 b 722 493 603 914 722 764 b 417 72 722 222 603 72 z m 418 211 b 619 367 549 211 619 268 b 511 513 619 432 576 485 b 593 631 561 531 593 564 b 418 771 593 718 533 771 b 243 631 304 771 243 718 b 325 513 243 564 275 531 b 217 367 258 486 217 432 b 418 211 217 268 288 211 z m 418 550 b 335 625 364 550 335 575 b 418 690 335 665 364 690 b 501 625 472 690 501 665 b 418 550 501 575 472 550 z m 418 292 b 308 372 349 292 308 318 b 418 467 308 425 349 467 b 528 372 488 467 528 425 b 418 292 528 318 488 292 z "},"⑨":{"ha":833,"x_min":0,"x_max":0,"o":"m 417 -22 b 817 493 663 -22 817 163 b 417 1008 817 824 663 1008 b 17 493 169 1008 17 824 b 417 -22 17 163 169 -22 z m 417 72 b 111 493 229 72 111 222 b 417 914 111 764 229 914 b 722 493 603 914 722 764 b 417 72 722 222 603 72 z m 419 771 b 217 581 303 771 217 701 b 406 392 217 453 299 392 b 528 450 464 392 508 417 b 403 292 522 350 475 292 b 310 353 347 292 321 311 l 224 344 b 403 211 244 256 292 211 b 619 521 558 211 619 351 b 419 771 619 683 539 771 z m 418 690 b 528 578 488 690 529 646 b 417 472 526 511 482 472 b 306 578 343 472 306 511 b 418 690 306 646 346 690 z "},"⁄":{"ha":833,"x_min":0,"x_max":0,"o":"m 476 631 l 585 631 l 778 986 l 669 986 z m 56 0 l 164 0 l 357 354 l 249 354 z "},"½":{"ha":833,"x_min":0,"x_max":0,"o":"m 150 449 l 242 449 l 242 988 l 174 988 b 50 869 174 914 131 869 l 17 869 l 17 800 l 150 801 z m 476 631 l 585 631 l 778 986 l 669 986 z m 394 0 l 761 0 l 761 81 l 497 81 b 576 188 497 117 521 157 l 633 218 b 767 393 714 261 767 304 b 592 549 767 485 699 549 b 396 374 472 549 407 479 l 485 369 b 592 468 493 436 525 468 b 675 393 636 468 675 440 b 604 290 675 340 657 319 l 532 250 b 394 0 410 182 394 115 z m 56 0 l 164 0 l 357 354 l 249 354 z "},"⅓":{"ha":833,"x_min":0,"x_max":0,"o":"m 150 449 l 242 449 l 242 988 l 174 988 b 50 869 174 914 131 869 l 17 869 l 17 800 l 150 801 z m 476 631 l 585 631 l 778 986 l 669 986 z m 571 -11 b 767 153 682 -11 767 50 b 647 288 767 214 739 265 b 740 401 707 306 740 338 b 564 549 740 489 681 549 b 383 404 456 549 394 485 l 472 399 b 564 467 476 436 507 467 b 650 393 622 467 650 436 b 564 322 650 346 615 322 l 529 322 l 529 243 l 564 243 b 676 154 643 243 676 207 b 571 69 676 103 639 69 b 464 144 497 69 468 100 l 375 140 b 571 -11 381 53 426 -11 z m 56 0 l 164 0 l 357 354 l 249 354 z "},"⅔":{"ha":833,"x_min":0,"x_max":0,"o":"m 25 449 l 392 449 l 392 529 l 128 529 b 207 636 128 565 151 606 l 264 667 b 397 842 344 710 397 753 b 222 997 397 933 329 997 b 26 822 103 997 38 928 l 115 818 b 222 917 124 885 156 917 b 306 842 267 917 306 889 b 235 739 306 789 288 768 l 163 699 b 25 449 40 631 25 564 z m 471 631 l 579 631 l 772 986 l 664 986 z m 613 -11 b 808 153 724 -11 808 50 b 689 288 808 214 781 265 b 782 401 749 306 782 338 b 606 549 782 489 722 549 b 425 404 497 549 436 485 l 514 399 b 606 467 518 436 549 467 b 692 393 664 467 692 436 b 606 322 692 346 657 322 l 571 322 l 571 243 l 606 243 b 718 154 685 243 718 207 b 613 69 718 103 681 69 b 506 144 539 69 510 100 l 417 140 b 613 -11 422 53 468 -11 z m 50 0 l 158 0 l 351 354 l 243 354 z "},"¼":{"ha":833,"x_min":0,"x_max":0,"o":"m 150 449 l 242 449 l 242 988 l 174 988 b 50 869 174 914 131 869 l 17 869 l 17 800 l 150 801 z m 476 631 l 585 631 l 778 986 l 669 986 z m 569 0 l 661 0 l 661 125 l 736 125 l 736 206 l 661 206 l 661 538 l 575 538 l 319 196 l 319 125 l 569 125 z m 417 206 l 569 404 l 569 206 z m 56 0 l 164 0 l 357 354 l 249 354 z "},"¾":{"ha":833,"x_min":0,"x_max":0,"o":"m 229 438 b 425 601 340 438 425 499 b 306 736 425 663 397 714 b 399 850 365 754 399 786 b 222 997 399 938 339 997 b 42 853 114 997 53 933 l 131 847 b 222 915 135 885 165 915 b 308 842 281 915 308 885 b 222 771 308 794 274 771 l 188 771 l 188 692 l 222 692 b 335 603 301 692 335 656 b 229 518 335 551 297 518 b 122 593 156 518 126 549 l 33 589 b 229 438 39 501 85 438 z m 496 631 l 604 631 l 797 986 l 689 986 z m 606 0 l 697 0 l 697 125 l 772 125 l 772 206 l 697 206 l 697 538 l 611 538 l 356 196 l 356 125 l 606 125 z m 453 206 l 606 404 l 606 206 z m 75 0 l 183 0 l 376 354 l 268 354 z "},"⅕":{"ha":833,"x_min":0,"x_max":0,"o":"m 136 449 l 228 449 l 228 988 l 160 988 b 36 869 160 914 117 869 l 3 869 l 3 800 l 136 801 z m 476 631 l 585 631 l 778 986 l 669 986 z m 578 -11 b 775 174 697 -11 775 57 b 606 357 775 278 719 357 b 499 318 561 357 521 343 l 517 457 l 739 457 l 739 538 l 436 538 l 403 225 l 488 225 b 592 279 510 258 539 279 b 686 174 656 279 686 233 b 581 69 686 106 644 69 b 482 135 525 69 493 90 l 393 131 b 578 -11 401 40 472 -11 z m 56 0 l 164 0 l 357 354 l 249 354 z "},"⅛":{"ha":833,"x_min":0,"x_max":0,"o":"m 122 449 l 214 449 l 214 988 l 146 988 b 22 869 146 914 103 869 l -11 869 l -11 800 l 122 801 z m 463 631 l 571 631 l 764 986 l 656 986 z m 590 -11 b 792 144 721 -11 792 46 b 683 290 792 210 749 263 b 765 408 733 308 765 342 b 590 549 765 496 706 549 b 415 408 476 549 415 496 b 497 290 415 342 447 308 b 389 144 431 264 389 210 b 590 -11 389 46 460 -11 z m 590 328 b 507 403 536 328 507 353 b 590 468 507 443 536 468 b 674 403 644 468 674 443 b 590 328 674 353 644 328 z m 42 0 l 150 0 l 343 354 l 235 354 z m 590 69 b 481 150 521 69 481 96 b 590 244 481 203 521 244 b 700 150 660 244 700 203 b 590 69 700 96 660 69 z "},"⅜":{"ha":833,"x_min":0,"x_max":0,"o":"m 213 438 b 410 622 332 438 410 506 b 240 806 410 726 354 806 b 133 767 196 806 156 792 l 151 906 l 374 906 l 374 986 l 71 986 l 38 674 l 122 674 b 226 728 144 707 174 728 b 321 622 290 728 321 682 b 215 518 321 554 279 518 b 117 583 160 518 128 539 l 28 579 b 213 438 36 489 107 438 z m 476 631 l 585 631 l 778 986 l 669 986 z m 604 -11 b 806 144 735 -11 806 46 b 697 290 806 210 763 263 b 779 408 747 308 779 342 b 604 549 779 496 719 549 b 429 408 490 549 429 496 b 511 290 429 342 461 308 b 403 144 444 264 403 210 b 604 -11 403 46 474 -11 z m 604 328 b 521 403 550 328 521 353 b 604 468 521 443 550 468 b 688 403 658 468 688 443 b 604 328 688 353 658 328 z m 56 0 l 164 0 l 357 354 l 249 354 z m 604 69 b 494 150 535 69 494 96 b 604 244 494 203 535 244 b 714 150 674 244 714 203 b 604 69 714 96 674 69 z "},"⅝":{"ha":833,"x_min":0,"x_max":0,"o":"m 224 438 b 419 601 335 438 419 499 b 300 736 419 663 392 714 b 393 850 360 754 393 786 b 217 997 393 938 333 997 b 36 853 108 997 47 933 l 125 847 b 217 915 129 885 160 915 b 303 842 275 915 303 885 b 217 771 303 794 268 771 l 182 771 l 182 692 l 217 692 b 329 603 296 692 329 656 b 224 518 329 551 292 518 b 117 593 150 518 121 549 l 28 589 b 224 438 33 501 79 438 z m 469 631 l 578 631 l 771 986 l 663 986 z m 604 -11 b 806 144 735 -11 806 46 b 697 290 806 210 763 263 b 779 408 747 308 779 342 b 604 549 779 496 719 549 b 429 408 490 549 429 496 b 511 290 429 342 461 308 b 403 144 444 264 403 210 b 604 -11 403 46 474 -11 z m 604 328 b 521 403 550 328 521 353 b 604 468 521 443 550 468 b 688 403 658 468 688 443 b 604 328 688 353 658 328 z m 49 0 l 157 0 l 350 354 l 242 354 z m 604 69 b 494 150 535 69 494 96 b 604 244 494 203 535 244 b 714 150 674 244 714 203 b 604 69 714 96 674 69 z "},"⅞":{"ha":833,"x_min":0,"x_max":0,"o":"m 135 447 l 224 447 b 399 925 224 639 290 786 l 399 986 l 38 986 l 38 906 l 294 906 b 135 447 192 772 135 615 z m 450 631 l 558 631 l 751 986 l 643 986 z m 604 -11 b 806 144 735 -11 806 46 b 697 290 806 210 763 263 b 779 408 747 308 779 342 b 604 549 779 496 719 549 b 429 408 490 549 429 496 b 511 290 429 342 461 308 b 403 144 444 264 403 210 b 604 -11 403 46 474 -11 z m 604 328 b 521 403 550 328 521 353 b 604 468 521 443 550 468 b 688 403 658 468 688 443 b 604 328 688 353 658 328 z m 29 0 l 138 0 l 331 354 l 222 354 z m 604 69 b 494 150 535 69 494 96 b 604 244 494 203 535 244 b 714 150 674 244 714 203 b 604 69 714 96 674 69 z "},"₀":{"ha":833,"x_min":0,"x_max":0,"o":"m 417 -150 b 633 131 547 -150 633 -43 b 417 410 633 304 549 410 b 200 131 285 410 200 304 b 417 -150 200 -43 286 -150 z m 306 31 b 292 131 297 58 292 93 b 417 326 292 261 335 326 b 481 307 442 326 463 319 l 308 25 z m 417 -67 b 353 -43 393 -67 371 -58 l 525 240 b 542 131 536 211 542 175 b 417 -67 542 1 497 -67 z "},"₁":{"ha":833,"x_min":0,"x_max":0,"o":"m 368 -139 l 460 -139 l 460 400 l 392 400 b 268 282 392 326 349 282 l 235 282 l 235 213 l 368 214 z "},"₂":{"ha":833,"x_min":0,"x_max":0,"o":"m 231 -139 l 597 -139 l 597 -58 l 333 -58 b 413 49 333 -22 357 18 l 469 79 b 603 254 550 122 603 165 b 428 410 603 346 535 410 b 232 235 308 410 243 340 l 321 231 b 428 329 329 297 361 329 b 511 254 472 329 511 301 b 440 151 511 201 493 181 l 368 111 b 231 -139 246 43 231 -24 z "},"₃":{"ha":833,"x_min":0,"x_max":0,"o":"m 417 -150 b 613 14 528 -150 613 -89 b 493 149 613 75 585 126 b 586 263 553 167 586 199 b 410 410 586 350 526 410 b 229 265 301 410 240 346 l 318 260 b 410 328 322 297 353 328 b 496 254 468 328 496 297 b 410 183 496 207 461 183 l 375 183 l 375 104 l 410 104 b 522 15 489 104 522 68 b 417 -69 522 -36 485 -69 b 310 6 343 -69 314 -39 l 221 1 b 417 -150 226 -86 272 -150 z "},"₄":{"ha":833,"x_min":0,"x_max":0,"o":"m 431 -139 l 522 -139 l 522 -14 l 597 -14 l 597 67 l 522 67 l 522 399 l 436 399 l 181 57 l 181 -14 l 431 -14 z m 278 67 l 431 265 l 431 67 z "},"₅":{"ha":833,"x_min":0,"x_max":0,"o":"m 411 -150 b 608 35 531 -150 608 -82 b 439 218 608 139 553 218 b 332 179 394 218 354 204 l 350 318 l 572 318 l 572 399 l 269 399 l 236 86 l 321 86 b 425 140 343 119 372 140 b 519 35 489 140 519 94 b 414 -69 519 -33 478 -69 b 315 -4 358 -69 326 -49 l 226 -8 b 411 -150 235 -99 306 -150 z "},"₆":{"ha":833,"x_min":0,"x_max":0,"o":"m 415 -150 b 618 40 532 -150 618 -81 b 429 229 618 168 536 229 b 307 171 371 229 326 204 b 432 329 313 271 360 329 b 525 268 488 329 514 310 l 611 276 b 432 410 590 365 543 410 b 215 100 276 410 215 269 b 415 -150 215 -62 296 -150 z m 417 -69 b 307 43 347 -69 306 -25 b 418 149 308 110 353 149 b 529 43 492 149 529 110 b 417 -69 529 -25 489 -69 z "},"₇":{"ha":833,"x_min":0,"x_max":0,"o":"m 333 -139 l 422 -139 b 597 339 422 53 489 200 l 597 400 l 236 400 l 236 319 l 493 319 b 333 -139 390 186 333 29 z "},"₈":{"ha":833,"x_min":0,"x_max":0,"o":"m 417 -150 b 618 6 547 -150 618 -93 b 510 151 618 71 575 124 b 592 269 560 169 592 203 b 417 410 592 357 532 410 b 242 269 303 410 242 357 b 324 151 242 203 274 169 b 215 6 257 125 215 71 b 417 -150 215 -93 286 -150 z m 417 189 b 333 264 363 189 333 214 b 417 329 333 304 363 329 b 500 264 471 329 500 304 b 417 189 500 214 471 189 z m 417 -69 b 307 11 347 -69 307 -43 b 417 106 307 64 347 106 b 526 11 486 106 526 64 b 417 -69 526 -43 486 -69 z "},"₉":{"ha":833,"x_min":0,"x_max":0,"o":"m 418 410 b 215 219 301 410 215 340 b 404 31 215 92 297 31 b 526 89 463 31 507 56 b 401 -69 521 -11 474 -69 b 308 -8 346 -69 319 -50 l 222 -17 b 401 -150 243 -106 290 -150 b 618 160 557 -150 618 -10 b 418 410 618 322 538 410 z m 417 329 b 526 217 486 329 528 285 b 415 111 525 150 481 111 b 304 217 342 111 304 150 b 417 329 304 285 344 329 z "},"⁰":{"ha":833,"x_min":0,"x_max":0,"o":"m 417 438 b 633 718 547 438 633 544 b 417 997 633 892 549 997 b 200 718 285 997 200 892 b 417 438 200 544 286 438 z m 306 618 b 292 718 297 646 292 681 b 417 914 292 849 335 914 b 481 894 442 914 463 907 l 308 613 z m 417 521 b 353 544 393 521 371 529 l 525 828 b 542 718 536 799 542 763 b 417 521 542 589 497 521 z "},"¹":{"ha":833,"x_min":0,"x_max":0,"o":"m 368 449 l 460 449 l 460 988 l 392 988 b 268 869 392 914 349 869 l 235 869 l 235 800 l 368 801 z "},"²":{"ha":833,"x_min":0,"x_max":0,"o":"m 231 449 l 597 449 l 597 529 l 333 529 b 413 636 333 565 357 606 l 469 667 b 603 842 550 710 603 753 b 428 997 603 933 535 997 b 232 822 308 997 243 928 l 321 818 b 428 917 329 885 361 917 b 511 842 472 917 511 889 b 440 739 511 789 493 768 l 368 699 b 231 449 246 631 231 564 z "},"³":{"ha":833,"x_min":0,"x_max":0,"o":"m 417 438 b 613 601 528 438 613 499 b 493 736 613 663 585 714 b 586 850 553 754 586 786 b 410 997 586 938 526 997 b 229 853 301 997 240 933 l 318 847 b 410 915 322 885 353 915 b 496 842 468 915 496 885 b 410 771 496 794 461 771 l 375 771 l 375 692 l 410 692 b 522 603 489 692 522 656 b 417 518 522 551 485 518 b 310 593 343 518 314 549 l 221 589 b 417 438 226 501 272 438 z "},"⁴":{"ha":833,"x_min":0,"x_max":0,"o":"m 431 449 l 522 449 l 522 574 l 597 574 l 597 654 l 522 654 l 522 986 l 436 986 l 181 644 l 181 574 l 431 574 z m 278 654 l 431 853 l 431 654 z "},"⁵":{"ha":833,"x_min":0,"x_max":0,"o":"m 411 438 b 608 622 531 438 608 506 b 439 806 608 726 553 806 b 332 767 394 806 354 792 l 350 906 l 572 906 l 572 986 l 269 986 l 236 674 l 321 674 b 425 728 343 707 372 728 b 519 622 489 728 519 682 b 414 518 519 554 478 518 b 315 583 358 518 326 539 l 226 579 b 411 438 235 489 306 438 z "},"⁶":{"ha":833,"x_min":0,"x_max":0,"o":"m 415 438 b 618 628 532 438 618 507 b 429 817 618 756 536 817 b 307 758 371 817 326 792 b 432 917 313 858 360 917 b 525 856 488 917 514 897 l 611 864 b 432 997 590 953 543 997 b 215 688 276 997 215 857 b 415 438 215 525 296 438 z m 417 518 b 307 631 347 518 306 563 b 418 736 308 697 353 736 b 529 631 492 736 529 697 b 417 518 529 563 489 518 z "},"⁷":{"ha":833,"x_min":0,"x_max":0,"o":"m 333 447 l 422 447 b 597 925 422 639 489 786 l 597 986 l 236 986 l 236 906 l 493 906 b 333 447 390 772 333 615 z "},"⁸":{"ha":833,"x_min":0,"x_max":0,"o":"m 417 438 b 618 593 547 438 618 494 b 510 739 618 658 575 711 b 592 857 560 757 592 790 b 417 997 592 944 532 997 b 242 857 303 997 242 944 b 324 739 242 790 274 757 b 215 593 257 713 215 658 b 417 438 215 494 286 438 z m 417 776 b 333 851 363 776 333 801 b 417 917 333 892 363 917 b 500 851 471 917 500 892 b 417 776 500 801 471 776 z m 417 518 b 307 599 347 518 307 544 b 417 693 307 651 347 693 b 526 599 486 693 526 651 b 417 518 526 544 486 518 z "},"⁹":{"ha":833,"x_min":0,"x_max":0,"o":"m 418 997 b 215 807 301 997 215 928 b 404 618 215 679 297 618 b 526 676 463 618 507 643 b 401 518 521 576 474 518 b 308 579 346 518 319 538 l 222 571 b 401 438 243 482 290 438 b 618 747 557 438 618 578 b 418 997 618 910 538 997 z m 417 917 b 526 804 486 917 528 872 b 415 699 525 738 481 699 b 304 804 342 699 304 738 b 417 917 304 872 344 917 z "}," ":{"ha":833,"x_min":0,"x_max":0,"o":""}," ":{"ha":833,"x_min":0,"x_max":0,"o":""},".":{"ha":833,"x_min":0,"x_max":0,"o":"m 331 0 l 503 0 l 503 169 l 331 169 z "},",":{"ha":833,"x_min":0,"x_max":0,"o":"m 333 -225 l 417 -225 l 500 14 l 500 169 l 333 169 l 333 0 l 408 0 z "},":":{"ha":833,"x_min":0,"x_max":0,"o":"m 331 536 l 503 536 l 503 706 l 331 706 z m 331 0 l 503 0 l 503 169 l 331 169 z "},";":{"ha":833,"x_min":0,"x_max":0,"o":"m 331 536 l 503 536 l 503 706 l 331 706 z m 333 -225 l 417 -225 l 500 14 l 500 169 l 333 169 l 333 0 l 408 0 z "},"…":{"ha":833,"x_min":0,"x_max":0,"o":"m 69 0 l 242 0 l 242 169 l 69 169 z m 329 0 l 501 0 l 501 169 l 329 169 z m 592 0 l 764 0 l 764 169 l 592 169 z "},"!":{"ha":833,"x_min":0,"x_max":0,"o":"m 379 290 l 456 290 b 476 667 464 388 476 556 l 476 986 l 357 986 l 357 667 b 379 290 357 556 371 388 z m 331 0 l 503 0 l 503 169 l 331 169 z "},"¡":{"ha":833,"x_min":0,"x_max":0,"o":"m 331 761 l 331 592 l 503 592 l 503 761 z m 379 471 b 357 94 371 374 357 206 l 357 -225 l 476 -225 l 476 94 b 456 471 476 206 464 374 z "},"?":{"ha":833,"x_min":0,"x_max":0,"o":"m 353 279 l 472 279 b 568 469 472 376 493 421 b 742 725 688 547 742 608 b 438 1008 742 890 618 1008 b 92 694 235 1008 108 878 l 217 686 b 438 892 231 819 300 892 b 617 725 550 892 617 821 b 488 542 617 642 596 608 b 353 279 392 482 353 413 z m 326 0 l 499 0 l 499 169 l 326 169 z "},"¿":{"ha":833,"x_min":0,"x_max":0,"o":"m 507 756 l 335 756 l 335 586 l 507 586 z m 396 -225 b 742 89 599 -225 725 -94 l 617 97 b 396 -108 603 -36 533 -108 b 217 35 283 -108 217 -56 b 346 226 217 124 238 160 b 481 489 442 286 481 356 l 361 489 b 265 299 361 392 340 347 b 92 35 146 221 92 157 b 396 -225 92 -125 215 -225 z "},"·":{"ha":833,"x_min":0,"x_max":0,"o":"m 331 338 l 503 338 l 503 507 l 331 507 z "},"•":{"ha":833,"x_min":0,"x_max":0,"o":"m 417 282 b 567 432 499 282 567 350 b 417 582 567 515 499 582 b 267 432 335 582 267 515 b 417 282 267 350 335 282 z "},"*":{"ha":833,"x_min":0,"x_max":0,"o":"m 275 394 l 417 597 l 560 394 l 643 450 l 506 639 l 722 639 l 722 742 l 506 742 l 643 931 l 560 986 l 417 783 l 275 986 l 192 931 l 328 742 l 111 742 l 111 639 l 328 639 l 192 450 z "},"〃":{"ha":833,"x_min":0,"x_max":0,"o":"m 396 390 l 486 390 l 611 668 l 482 668 z m 222 390 l 313 390 l 438 668 l 310 668 z "},"#":{"ha":833,"x_min":0,"x_max":0,"o":"m 139 0 l 239 0 l 290 274 l 464 274 l 413 0 l 513 0 l 564 274 l 692 274 l 708 371 l 582 371 l 626 611 l 747 611 l 764 708 l 644 708 l 696 986 l 596 986 l 544 708 l 371 708 l 422 986 l 322 986 l 271 708 l 142 708 l 125 611 l 253 611 l 208 371 l 86 371 l 69 274 l 190 274 z m 308 371 l 353 611 l 526 611 l 482 371 z "},"/":{"ha":833,"x_min":0,"x_max":0,"o":"m 150 -153 l 261 -153 l 683 1042 l 572 1042 z "},"\\":{"ha":833,"x_min":0,"x_max":0,"o":"m 683 -153 l 261 1042 l 150 1042 l 572 -153 z "},"-":{"ha":833,"x_min":0,"x_max":0,"o":"m 167 350 l 667 350 l 667 460 l 167 460 z "},"–":{"ha":833,"x_min":0,"x_max":0,"o":"m 139 351 l 694 351 l 694 460 l 139 460 z "},"—":{"ha":833,"x_min":0,"x_max":0,"o":"m 28 351 l 806 351 l 806 460 l 28 460 z "},"_":{"ha":833,"x_min":0,"x_max":0,"o":"m 111 -108 l 722 -108 l 722 0 l 111 0 z "},"〜":{"ha":833,"x_min":0,"x_max":0,"o":"m 586 301 b 825 451 679 301 772 358 l 744 532 b 586 418 694 460 640 418 b 417 482 543 418 486 439 b 247 542 353 522 296 542 b 8 392 154 542 63 485 l 89 311 b 247 425 139 385 193 425 b 417 361 290 425 347 404 b 586 301 481 321 538 301 z "},"(":{"ha":833,"x_min":0,"x_max":0,"o":"m 494 -153 l 611 -153 b 343 444 403 47 343 246 b 611 1042 343 643 403 843 l 494 1042 b 222 444 278 850 222 647 b 494 -153 222 242 278 39 z "},")":{"ha":833,"x_min":0,"x_max":0,"o":"m 339 -153 b 611 444 556 39 611 242 b 339 1042 611 647 556 850 l 222 1042 b 490 444 431 843 490 643 b 222 -153 490 246 431 47 z "},"{":{"ha":833,"x_min":0,"x_max":0,"o":"m 558 -167 l 681 -167 l 681 -58 l 560 -58 b 444 69 475 -58 444 -15 l 444 197 b 264 433 444 336 400 419 l 264 442 b 444 678 400 456 444 539 l 444 806 b 560 933 444 890 475 933 l 681 933 l 681 1042 l 558 1042 b 333 803 397 1042 333 943 l 333 658 b 153 494 333 539 303 494 l 153 381 b 333 217 303 381 333 336 l 333 72 b 558 -167 333 -68 397 -167 z "},"}":{"ha":833,"x_min":0,"x_max":0,"o":"m 275 -167 b 500 72 436 -167 500 -68 l 500 217 b 681 381 500 336 531 381 l 681 494 b 500 658 531 494 500 539 l 500 803 b 275 1042 500 943 436 1042 l 153 1042 l 153 933 l 274 933 b 389 806 358 933 389 890 l 389 678 b 569 442 389 539 433 456 l 569 433 b 389 197 433 419 389 336 l 389 69 b 274 -58 389 -15 358 -58 l 153 -58 l 153 -167 z "},"[":{"ha":833,"x_min":0,"x_max":0,"o":"m 639 -153 l 639 -56 l 306 -56 l 306 944 l 639 944 l 639 1042 l 194 1042 l 194 -153 z "},"]":{"ha":833,"x_min":0,"x_max":0,"o":"m 194 -153 l 639 -153 l 639 1042 l 194 1042 l 194 944 l 528 944 l 528 -56 l 194 -56 z "},"‚":{"ha":833,"x_min":0,"x_max":0,"o":"m 333 -225 l 417 -225 l 500 14 l 500 169 l 333 169 l 333 0 l 408 0 z "},"„":{"ha":833,"x_min":0,"x_max":0,"o":"m 194 -225 l 278 -225 l 361 14 l 361 169 l 194 169 l 194 0 l 269 0 z m 472 -225 l 556 -225 l 639 14 l 639 169 l 472 169 l 472 0 l 547 0 z "},"“":{"ha":833,"x_min":0,"x_max":0,"o":"m 639 1017 l 556 1017 l 472 778 l 472 622 l 639 622 l 639 792 l 564 792 z m 361 1017 l 278 1017 l 194 778 l 194 622 l 361 622 l 361 792 l 286 792 z "},"”":{"ha":833,"x_min":0,"x_max":0,"o":"m 194 592 l 278 592 l 361 831 l 361 986 l 194 986 l 194 817 l 269 817 z m 472 592 l 556 592 l 639 831 l 639 986 l 472 986 l 472 817 l 547 817 z "},"‘":{"ha":833,"x_min":0,"x_max":0,"o":"m 508 1015 l 425 1015 l 342 776 l 342 621 l 508 621 l 508 790 l 433 790 z "},"’":{"ha":833,"x_min":0,"x_max":0,"o":"m 325 592 l 408 592 l 492 831 l 492 986 l 325 986 l 325 817 l 400 817 z "},"«":{"ha":833,"x_min":0,"x_max":0,"o":"m 444 106 l 208 383 l 444 661 l 301 661 l 111 435 l 111 332 l 301 106 z m 722 106 l 486 383 l 722 661 l 579 661 l 389 435 l 389 332 l 579 106 z "},"»":{"ha":833,"x_min":0,"x_max":0,"o":"m 389 106 l 532 106 l 722 332 l 722 435 l 532 661 l 389 661 l 625 383 z m 111 106 l 254 106 l 444 332 l 444 435 l 254 661 l 111 661 l 347 383 z "},"‹":{"ha":833,"x_min":0,"x_max":0,"o":"m 583 106 l 347 383 l 583 661 l 440 661 l 250 435 l 250 332 l 440 106 z "},"›":{"ha":833,"x_min":0,"x_max":0,"o":"m 250 106 l 393 106 l 583 332 l 583 435 l 393 661 l 250 661 l 486 383 z "},"\"":{"ha":833,"x_min":0,"x_max":0,"o":"m 479 490 l 571 490 l 604 833 l 604 986 l 474 986 z m 263 490 l 354 490 l 360 986 l 229 986 l 229 833 z "},"'":{"ha":833,"x_min":0,"x_max":0,"o":"m 367 490 l 467 490 l 486 839 l 486 986 l 347 986 l 347 839 z "},"ƒ":{"ha":833,"x_min":0,"x_max":0,"o":"m 111 0 l 228 -1 b 438 185 354 -3 424 61 l 488 633 l 722 633 l 722 736 l 499 736 l 507 806 b 592 883 513 856 542 883 l 722 883 l 722 985 l 601 986 b 393 800 476 988 407 924 l 386 736 l 226 736 l 226 633 l 375 633 l 325 179 b 239 103 319 129 290 103 l 111 103 z "},"฿":{"ha":833,"x_min":0,"x_max":0,"o":"m 93 0 l 321 0 l 321 -126 l 418 -126 l 418 0 b 740 275 619 4 740 107 b 519 508 740 403 658 490 b 699 717 628 528 699 610 b 418 985 699 871 604 971 l 418 1118 l 321 1118 l 321 986 l 93 986 z m 213 560 l 213 869 l 321 869 l 321 560 z m 574 714 b 418 561 574 626 525 572 l 418 868 b 574 714 525 857 574 803 z m 213 117 l 213 443 l 321 443 l 321 117 z m 615 275 b 418 117 615 178 553 119 l 418 443 b 615 275 547 439 615 378 z "},"":{"ha":833,"x_min":0,"x_max":0,"o":"m 146 0 l 688 0 b 822 135 765 0 822 57 l 822 676 b 688 811 822 754 765 811 l 146 811 b 11 676 68 811 11 754 l 11 135 b 146 0 11 57 68 0 z m 119 172 l 415 688 l 713 172 z "},"@":{"ha":833,"x_min":0,"x_max":0,"o":"m 594 -97 l 558 -6 b 383 -58 497 -40 436 -58 b 125 342 224 -58 125 64 b 453 889 125 711 269 889 b 708 524 632 889 708 749 b 625 200 708 281 675 200 b 578 303 599 200 578 235 b 614 694 578 374 593 500 l 517 694 l 508 626 l 507 632 b 407 696 490 671 454 696 b 200 350 292 696 200 532 b 347 111 200 204 254 111 b 492 226 410 111 463 151 b 608 106 510 154 553 106 b 806 531 718 106 806 194 b 458 986 806 799 686 986 b 28 340 213 986 28 769 b 381 -153 28 -7 175 -153 b 594 -97 453 -153 521 -135 z m 381 197 b 308 361 333 197 308 261 b 419 601 308 486 358 601 b 493 464 468 601 493 556 b 381 197 493 324 440 197 z "},"&":{"ha":833,"x_min":0,"x_max":0,"o":"m 333 -22 b 614 63 467 -22 560 11 l 665 0 l 806 0 l 688 143 b 781 431 742 208 779 319 l 664 442 b 614 231 664 347 647 276 l 389 518 b 594 797 538 617 594 692 b 364 1008 594 928 511 1008 b 122 781 214 1008 122 922 b 222 547 122 693 158 631 b 28 242 75 443 28 368 b 333 -22 28 72 144 -22 z m 325 603 b 247 781 267 678 247 724 b 364 892 247 850 290 892 b 469 789 431 892 469 856 b 325 603 469 718 431 668 z m 347 89 b 153 242 211 89 153 149 b 292 456 153 328 192 386 l 536 147 b 347 89 504 114 442 89 z "},"¶":{"ha":833,"x_min":0,"x_max":0,"o":"m 375 0 l 486 0 l 486 881 l 583 881 l 583 0 l 694 0 l 694 986 l 382 986 b 111 706 231 986 111 878 b 375 425 111 533 224 425 z "},"§":{"ha":833,"x_min":0,"x_max":0,"o":"m 431 -89 b 719 117 599 -89 719 -3 b 606 292 719 201 683 254 b 722 447 683 322 722 374 b 438 681 722 571 653 624 b 261 800 300 717 261 743 b 411 897 261 856 324 897 b 601 764 517 897 586 849 l 721 772 b 424 1008 700 921 590 1008 b 138 794 253 1008 138 925 b 265 639 138 729 181 676 b 135 461 179 601 135 542 b 399 254 135 356 208 294 b 599 125 544 224 599 182 b 431 22 599 63 557 22 b 232 168 310 22 246 79 l 111 160 b 431 -89 125 17 242 -89 z m 471 344 b 246 474 299 344 246 411 b 386 582 246 533 310 582 b 613 453 490 582 613 544 b 471 344 613 388 557 344 z "},"©":{"ha":833,"x_min":0,"x_max":0,"o":"m 415 -17 b 819 496 657 -17 819 194 b 415 1008 819 797 657 1008 b 14 496 174 1008 14 797 b 415 -17 14 194 174 -17 z m 415 69 b 106 496 222 69 106 240 b 415 922 106 753 222 922 b 728 496 608 922 728 753 b 415 69 728 240 608 69 z m 417 200 b 651 421 538 200 635 285 l 556 428 b 417 296 543 340 492 296 b 276 494 325 296 276 375 b 417 693 276 614 325 693 b 551 572 490 693 540 651 l 647 579 b 417 789 633 708 533 789 b 181 494 278 789 181 665 b 417 200 181 322 278 200 z "},"®":{"ha":833,"x_min":0,"x_max":0,"o":"m 418 249 b 794 629 628 249 794 419 b 418 1008 794 839 628 1008 b 39 629 207 1008 39 839 b 418 249 39 419 207 249 z m 418 324 b 119 629 240 324 119 463 b 418 933 119 796 240 933 b 714 629 594 933 714 796 b 418 324 714 463 594 324 z m 267 421 l 344 421 l 344 583 l 408 583 l 504 421 l 592 421 l 485 593 b 575 708 542 608 575 650 b 404 835 575 788 511 835 l 267 835 z m 344 647 l 344 769 l 415 769 b 500 711 469 769 500 749 b 415 647 500 672 469 647 z "},"℗":{"ha":833,"x_min":0,"x_max":0,"o":"m 418 249 b 794 629 628 249 794 419 b 418 1008 794 839 628 1008 b 39 629 207 1008 39 839 b 418 249 39 419 207 249 z m 418 324 b 119 629 240 324 119 463 b 418 933 119 796 240 933 b 714 629 594 933 714 796 b 418 324 714 463 594 324 z m 292 421 l 369 421 l 369 583 l 429 583 b 600 708 536 583 600 624 b 429 835 600 788 536 835 l 292 835 z m 369 647 l 369 769 l 440 769 b 525 711 494 769 525 749 b 440 647 525 672 494 647 z "},"™":{"ha":833,"x_min":0,"x_max":0,"o":"m 371 499 l 453 499 l 453 767 l 543 499 l 625 499 l 715 765 l 715 499 l 797 499 l 797 986 l 710 986 l 583 607 l 460 986 l 371 986 z m 133 499 l 215 499 l 215 908 l 331 908 l 331 986 l 19 986 l 19 908 l 133 908 z "},"°":{"ha":833,"x_min":0,"x_max":0,"o":"m 417 569 b 636 789 536 569 636 664 b 417 1008 636 914 536 1008 b 197 789 297 1008 197 914 b 417 569 197 664 297 569 z m 417 672 b 300 789 353 672 300 719 b 417 908 300 860 354 908 b 533 789 479 908 533 860 b 417 672 533 719 481 672 z "},"′":{"ha":833,"x_min":0,"x_max":0,"o":"m 326 669 l 432 669 l 508 986 l 390 986 z "},"″":{"ha":833,"x_min":0,"x_max":0,"o":"m 242 669 l 347 669 l 424 986 l 306 986 z m 411 669 l 517 669 l 593 986 l 475 986 z "},"|":{"ha":833,"x_min":0,"x_max":0,"o":"m 361 -153 l 472 -153 l 472 1042 l 361 1042 z "},"¦":{"ha":833,"x_min":0,"x_max":0,"o":"m 363 549 l 471 549 l 471 1042 l 363 1042 z m 363 -153 l 471 -153 l 471 340 l 363 340 z "},"†":{"ha":833,"x_min":0,"x_max":0,"o":"m 361 0 l 472 0 l 472 631 l 694 631 l 694 736 l 472 736 l 472 986 l 361 986 l 361 736 l 139 736 l 139 631 l 361 631 z "},"‡":{"ha":833,"x_min":0,"x_max":0,"o":"m 139 239 l 361 239 l 361 0 l 472 0 l 472 239 l 694 239 l 694 344 l 472 344 l 472 631 l 694 631 l 694 736 l 472 736 l 472 986 l 361 986 l 361 736 l 139 736 l 139 631 l 361 631 l 361 344 l 139 344 z "},"№":{"ha":833,"x_min":0,"x_max":0,"o":"m 644 522 b 819 765 760 522 819 617 b 644 1008 819 911 760 1008 b 469 765 528 1008 469 913 b 644 522 469 617 528 522 z m 14 0 l 125 0 l 125 792 l 264 0 l 431 0 l 431 986 l 319 986 l 319 194 l 181 986 l 14 986 z m 644 613 b 581 765 594 613 581 671 b 644 918 581 857 594 918 b 708 765 692 918 708 860 b 644 613 708 669 692 613 z m 492 292 l 797 292 l 797 394 l 492 394 z "},"␣":{"ha":833,"x_min":0,"x_max":0,"o":"m 53 -264 l 781 -264 l 781 0 l 671 0 l 671 -156 l 163 -156 l 163 0 l 53 0 z "},"␌":{"ha":833,"x_min":0,"x_max":0,"o":"m 110 417 l 181 417 l 181 607 l 381 607 l 381 675 l 181 675 l 181 807 l 393 807 l 393 875 l 110 875 z m 461 99 l 531 99 l 531 289 l 732 289 l 732 357 l 531 357 l 531 489 l 744 489 l 744 557 l 461 557 z "},"⌧":{"ha":833,"x_min":0,"x_max":0,"o":"m 19 0 l 814 0 l 814 986 l 19 986 z m 115 96 l 115 890 l 718 890 l 718 96 z m 290 289 l 417 415 l 543 288 l 621 365 l 494 493 l 619 618 l 543 694 l 418 569 l 290 696 l 213 618 l 340 492 l 214 365 z "},"⌫":{"ha":833,"x_min":0,"x_max":0,"o":"m 219 0 l 822 0 l 822 986 l 219 986 l 6 490 z m 285 96 l 111 492 l 285 890 l 726 890 l 726 96 z m 328 289 l 453 415 l 581 288 l 657 365 l 531 493 l 656 618 l 581 694 l 454 568 l 328 696 l 250 618 l 378 492 l 251 365 z "},"⌦":{"ha":833,"x_min":0,"x_max":0,"o":"m 614 0 l 828 490 l 614 986 l 11 986 l 11 0 z m 549 96 l 107 96 l 107 890 l 549 890 l 722 492 z m 253 288 l 381 415 l 506 289 l 582 365 l 457 492 l 583 618 l 506 696 l 379 568 l 253 694 l 178 618 l 303 493 l 176 365 z "},"⏎":{"ha":833,"x_min":0,"x_max":0,"o":"m 419 -11 l 419 258 l 824 258 l 824 986 l 501 986 l 501 581 l 419 581 l 419 847 l 6 419 z m 332 472 l 610 472 l 610 878 l 715 878 l 715 367 l 332 367 l 332 229 l 150 418 l 332 608 z "},"␋":{"ha":833,"x_min":0,"x_max":0,"o":"m 213 417 l 288 417 l 428 875 l 354 875 l 250 521 l 146 875 l 72 875 z m 558 99 l 629 99 l 629 489 l 761 489 l 761 557 l 426 557 l 426 489 l 558 489 z "},"¢":{"ha":833,"x_min":0,"x_max":0,"o":"m 314 -17 l 411 -17 l 422 108 b 429 108 424 108 426 108 b 743 378 593 108 713 214 l 621 386 b 432 219 599 276 525 221 l 478 761 b 615 614 547 746 597 693 l 738 622 b 488 874 711 767 619 854 l 499 1008 l 401 1008 l 390 876 b 90 493 207 858 90 711 b 326 122 90 301 181 165 z m 213 493 b 381 763 213 642 274 740 l 336 239 b 213 493 257 276 213 367 z "},"¤":{"ha":833,"x_min":0,"x_max":0,"o":"m 124 154 l 251 282 b 417 231 299 250 356 231 b 582 282 478 231 535 250 l 710 154 l 788 231 l 658 360 b 710 524 690 406 710 463 b 658 689 710 585 690 642 l 788 818 l 710 894 l 581 767 b 417 817 533 799 478 817 b 253 767 356 817 300 799 l 124 894 l 46 818 l 175 689 b 124 524 143 642 124 585 b 175 360 124 463 143 406 l 46 231 z m 417 328 b 221 524 308 328 221 415 b 417 719 221 632 308 719 b 613 524 522 719 613 632 b 417 328 613 415 522 328 z "},"$":{"ha":833,"x_min":0,"x_max":0,"o":"m 365 -125 l 468 -125 l 468 -21 b 772 242 650 -8 772 96 b 468 535 772 400 692 469 l 468 864 b 629 672 564 844 615 772 l 754 681 b 468 983 735 844 636 963 l 468 1111 l 365 1111 l 365 985 b 85 714 190 968 85 865 b 365 443 85 582 164 497 l 365 103 b 186 324 265 126 203 203 l 61 315 b 365 -17 76 138 193 8 z m 210 719 b 365 867 210 801 269 854 l 365 567 b 210 719 244 607 210 642 z m 647 244 b 468 96 647 157 585 104 l 468 414 b 647 244 617 367 647 324 z "},"€":{"ha":833,"x_min":0,"x_max":0,"o":"m 14 326 l 99 326 b 439 -22 135 108 247 -22 b 792 325 625 -22 756 108 l 665 332 b 439 94 638 175 553 94 b 224 326 319 94 250 176 l 486 326 l 501 429 l 213 429 l 213 431 b 211 492 211 450 211 471 b 213 540 211 508 211 525 l 514 540 l 529 643 l 221 643 l 222 649 b 439 892 247 806 318 892 b 656 676 542 892 624 818 l 783 685 b 439 1008 742 889 613 1008 b 96 643 243 1008 129 871 l 14 643 l 14 540 l 88 540 l 88 539 b 86 492 86 524 86 507 b 88 429 86 471 86 450 l 14 429 z "},"₴":{"ha":833,"x_min":0,"x_max":0,"o":"m 28 540 l 806 540 l 806 643 l 728 643 b 756 742 742 665 756 700 b 439 1008 756 897 644 1008 b 89 742 235 1008 132 906 l 219 729 b 442 892 250 833 314 892 b 642 742 589 892 642 828 b 611 643 642 703 626 668 l 28 643 z m 407 -17 b 764 232 583 -17 719 79 l 628 243 b 400 100 590 156 503 100 b 192 253 278 100 192 161 b 211 326 192 276 197 304 l 806 326 l 806 429 l 28 429 l 28 326 l 89 326 b 72 244 78 307 72 272 b 407 -17 72 88 207 -17 z "},"₱":{"ha":833,"x_min":0,"x_max":0,"o":"m 153 0 l 272 0 l 272 317 l 374 317 b 663 519 521 317 624 388 l 792 519 l 792 617 l 679 617 l 679 624 b 681 654 681 633 681 643 b 679 686 681 665 681 676 l 792 686 l 792 783 l 664 783 b 374 986 625 915 522 986 l 153 986 l 153 783 l 42 783 l 42 686 l 153 686 l 153 617 l 42 617 l 42 519 l 153 519 z m 272 869 l 374 869 b 532 783 451 869 504 842 l 272 783 z m 554 683 b 556 654 556 674 556 664 b 554 617 556 642 556 628 l 272 617 l 272 686 l 554 686 z m 272 433 l 272 519 l 531 519 l 529 515 b 374 433 500 460 449 433 z "},"₽":{"ha":833,"x_min":0,"x_max":0,"o":"m 153 0 l 272 0 l 272 169 l 514 169 l 514 272 l 272 272 l 272 383 l 453 383 b 792 685 658 383 792 496 b 453 986 792 874 658 986 l 153 986 l 153 272 l 42 272 l 42 169 l 153 169 z m 272 500 l 272 869 l 439 869 b 667 685 594 869 667 804 b 439 500 667 565 594 500 z "},"₹":{"ha":833,"x_min":0,"x_max":0,"o":"m 467 0 l 636 0 l 203 383 l 322 383 b 665 632 519 383 643 475 l 792 632 l 792 736 l 667 736 b 601 883 657 797 636 846 l 792 883 l 792 986 l 42 986 l 42 869 l 321 869 b 540 736 449 869 521 825 l 42 736 l 42 632 l 539 632 l 538 628 b 321 500 515 543 443 500 l 42 500 l 42 383 z "},"₪":{"ha":833,"x_min":0,"x_max":0,"o":"m 247 0 l 597 0 b 806 208 725 0 806 81 l 806 986 l 692 986 l 692 201 b 607 114 692 147 658 114 l 361 114 l 361 771 l 247 771 z m 28 0 l 142 0 l 142 872 l 386 872 b 471 785 438 872 471 838 l 471 215 l 585 215 l 585 778 b 378 986 585 906 504 986 l 28 986 z "},"£":{"ha":833,"x_min":0,"x_max":0,"o":"m 64 0 l 753 0 l 753 121 l 183 121 b 333 440 300 181 333 275 l 564 440 l 564 543 l 317 543 b 281 715 294 617 281 672 b 456 892 281 818 350 892 b 631 754 536 892 607 846 l 769 764 b 450 1008 749 893 657 1008 b 157 735 282 1008 157 890 b 197 543 157 678 174 615 l 64 543 l 64 440 l 221 440 b 226 386 224 421 226 403 b 64 114 226 269 168 176 z "},"¥":{"ha":833,"x_min":0,"x_max":0,"o":"m 108 199 l 358 199 l 358 0 l 478 0 l 478 199 l 728 199 l 728 307 l 478 307 l 478 403 l 479 404 l 728 404 l 728 513 l 535 513 l 778 986 l 642 986 l 417 525 l 192 986 l 56 986 l 301 513 l 108 513 l 108 404 l 357 404 l 358 403 l 358 307 l 108 307 z "},"+":{"ha":833,"x_min":0,"x_max":0,"o":"m 85 356 l 363 356 l 363 78 l 471 78 l 471 356 l 749 356 l 749 464 l 471 464 l 471 742 l 363 742 l 363 464 l 85 464 z "},"−":{"ha":833,"x_min":0,"x_max":0,"o":"m 111 356 l 722 356 l 722 464 l 111 464 z "},"×":{"ha":833,"x_min":0,"x_max":0,"o":"m 124 193 l 200 117 l 417 333 l 633 117 l 710 193 l 493 410 l 710 626 l 633 703 l 417 486 l 200 703 l 124 626 l 340 410 z "},"÷":{"ha":833,"x_min":0,"x_max":0,"o":"m 417 575 b 506 661 472 575 506 611 b 417 747 506 711 472 747 b 328 661 361 747 328 711 b 417 575 328 611 361 575 z m 97 356 l 736 356 l 736 464 l 97 464 z m 417 72 b 506 158 472 72 506 108 b 417 244 506 208 472 244 b 328 158 361 244 328 208 b 417 72 328 108 361 72 z "},"=":{"ha":833,"x_min":0,"x_max":0,"o":"m 111 506 l 722 506 l 722 614 l 111 614 z m 111 218 l 722 218 l 722 326 l 111 326 z "}}}
